<svg xmlns="http://www.w3.org/2000/svg" viewBox="0 0 226.29 246.53"><defs><style>.cls-1{fill:#67c2b5;opacity:0.87;}.cls-2,.cls-5,.cls-6{fill:none;stroke:#231815;stroke-linecap:round;stroke-linejoin:round;}.cls-2{stroke-width:3.2px;}.cls-3{fill:#231815;}.cls-4{fill:#fff;}.cls-5{stroke-width:4.79px;}.cls-6{stroke-width:2.54px;}</style></defs><g id="圖層_2" data-name="圖層 2"><g id="G"><path class="cls-1" d="M33.37,197.16a31.07,31.07,0,0,1,.41-43.94h0L4.58,123.46A16,16,0,0,1,4.68,101L101,4.68a16,16,0,0,1,22.6,0l98,98a16,16,0,0,1-.11,22.71l-29.84,29.28a31.05,31.05,0,0,1-44.31,43.5L126.68,218.5a20.63,20.63,0,0,1-29.09-.28L77.32,197.57A31.08,31.08,0,0,1,33.37,197.16Z"/><polyline class="cls-2" points="63.62 146.21 151.02 170.58 172.95 158.13"/><polyline class="cls-2" points="141.94 150.02 81.72 168.78 61.44 162.26"/><path class="cls-3" d="M109.39,86.83A23.42,23.42,0,0,1,92.18,109.4c-.69.2-1.38.35-2.08.48a22.56,22.56,0,0,1-3.51.34c-.21,0-.41,0-.62,0H76A23.42,23.42,0,0,1,52.52,86.83Z"/><path class="cls-3" d="M166.28,86.83a23.31,23.31,0,0,1-6.86,16.55,23.57,23.57,0,0,1-11.68,6.35c-.7.15-1.42.26-2.16.36a24.39,24.39,0,0,1-2.72.15h-10a23.42,23.42,0,0,1-23.43-23.41Z"/><path class="cls-4" d="M86.59,110.22c-.21,0-.41,0-.62,0H81.83L67.09,86.83h4.78Z"/><path class="cls-4" d="M92.18,109.4c-.69.2-1.38.35-2.08.48l-14.5-23H78Z"/><polygon class="cls-4" points="141.94 110.24 137.16 110.24 122.43 86.83 127.22 86.83 141.94 110.24"/><path class="cls-4" d="M148.16,109.61c-.71.14-1.43.26-2.17.36L131.35,86.71h2.41Z"/><polyline class="cls-5" points="68.78 60.87 96.52 73.2 102.64 67.04"/><polyline class="cls-5" points="148.28 60.87 120.54 73.2 114.42 67.04"/><line class="cls-5" x1="93.53" y1="129.67" x2="136.51" y2="120.97"/><path class="cls-5" d="M144.12,115s5.87,1.09,4.16,7.21"/><polyline class="cls-6" points="92.58 213.12 83.77 245.25 58.48 242.63"/><polyline class="cls-6" points="129.75 214.82 136.25 245.25 161.54 242.63"/></g></g></svg>