<svg width="370" height="332" viewBox="0 0 370 332" fill="none" xmlns="http://www.w3.org/2000/svg">
<g clip-path="url(#clip0_374_78)">
<g filter="url(#filter0_f_374_78)">
<path d="M184.17 124.845C216.853 124.845 243.348 98.3816 243.348 65.7371C243.348 33.0925 216.853 6.62891 184.17 6.62891C151.487 6.62891 124.992 33.0925 124.992 65.7371C124.992 98.3816 151.487 124.845 184.17 124.845Z" stroke="white" stroke-opacity="0.4" stroke-width="8" stroke-linecap="round" stroke-dasharray="10 10"/>
</g>
<path d="M184.17 125.122C217.006 125.122 243.625 98.5342 243.625 65.7371C243.625 32.9401 217.006 6.35278 184.17 6.35278C151.334 6.35278 124.716 32.9401 124.716 65.7371C124.716 98.5342 151.334 125.122 184.17 125.122Z" stroke="white" stroke-linecap="round" stroke-dasharray="10 10"/>
<mask id="mask0_374_78" style="mask-type:luminance" maskUnits="userSpaceOnUse" x="168" y="23" width="32" height="32">
<path d="M199.529 23.517H168.314V54.6949H199.529V23.517Z" fill="white"/>
</mask>
<g mask="url(#mask0_374_78)">
<path d="M190.145 26.7309L191.751 24.1198C192.126 23.5066 192.927 23.3169 193.54 23.6937C194.152 24.0691 194.343 24.8681 193.966 25.4799L192.36 28.0911C192.116 28.4912 191.687 28.7107 191.251 28.7107C191.018 28.7107 190.784 28.6484 190.572 28.5185C189.959 28.143 189.768 27.3428 190.145 26.7309ZM175.373 28.0897C175.617 28.4899 176.046 28.7107 176.483 28.7107C176.715 28.7107 176.949 28.6484 177.161 28.5197C177.773 28.1443 177.966 27.3454 177.59 26.7335L175.987 24.1211C175.611 23.5092 174.81 23.3182 174.198 23.6924C173.586 24.0678 173.393 24.8667 173.769 25.4786L175.373 28.0897ZM172.529 30.9581L170.191 29.8396C169.546 29.5266 168.764 29.8019 168.457 30.4502C168.146 31.0971 168.421 31.8727 169.069 32.1818L171.407 33.3004C171.588 33.3874 171.779 33.429 171.968 33.429C172.453 33.429 172.919 33.1575 173.141 32.6911C173.452 32.0442 173.178 31.2673 172.529 30.9581ZM183.745 28.7146C176.573 28.8328 170.889 36.5961 174.784 44.0736C175.375 45.2091 176.253 46.16 177.196 47.0264C177.554 47.3551 177.831 47.7618 178.068 48.1982H182.621V41.4638C181.111 40.926 180.02 39.497 180.02 37.8056C180.02 37.0872 180.601 36.5065 181.32 36.5065C182.04 36.5065 182.621 37.0872 182.621 37.8056C182.621 38.524 183.203 39.1047 183.922 39.1047C184.64 39.1047 185.222 38.5227 185.222 37.8056C185.222 37.0885 185.803 36.5065 186.523 36.5065C187.242 36.5065 187.823 37.0872 187.823 37.8056C187.823 39.497 186.732 40.926 185.222 41.4638V48.1982H189.733C190.029 47.6903 190.412 47.2109 190.913 46.7939C191.769 46.0794 192.576 45.2831 193.071 44.2841C195.33 39.7205 194.435 34.8541 191.217 31.6947C189.212 29.7253 186.558 28.6718 183.745 28.7146ZM178.709 51.1588C178.605 53.0633 180.033 54.6949 181.942 54.6949H185.871C187.667 54.6949 189.123 53.2412 189.123 51.4472V50.7977H178.694C178.694 50.9198 178.716 51.0341 178.709 51.1588ZM199.416 30.4021C199.12 29.7487 198.351 29.4538 197.697 29.7526L195.183 30.8854C194.528 31.1803 194.237 31.9493 194.534 32.6028C194.75 33.0834 195.223 33.3679 195.719 33.3679C195.898 33.3679 196.08 33.3315 196.253 33.2523L198.766 32.1195C199.421 31.8246 199.712 31.0556 199.416 30.4021Z" fill="white"/>
</g>
<path d="M161.307 65.952H163.165V75.2657H161.307V65.952ZM164.326 64.2782H166.234V77.4201C166.234 78.4642 166.035 79.0111 165.421 79.3425C164.824 79.6574 163.895 79.7237 162.551 79.7237C162.468 79.1934 162.203 78.2984 161.937 77.735C162.816 77.7681 163.663 77.7681 163.945 77.7681C164.21 77.7516 164.326 77.6687 164.326 77.4035V64.2782ZM153.691 71.5038H159.249V72.6804H153.691V71.5038ZM154.67 77.7516H159.349V79.2265H154.67V77.7516ZM152.546 69.4654H154.388V71.3878C154.388 73.625 154.139 76.9561 152.828 79.2099C152.446 78.9448 151.6 78.5968 151.103 78.4476C152.413 76.3098 152.546 73.3267 152.546 71.3878V69.4654ZM153.674 69.4654H159.979V74.7188H153.641V73.3433H158.171V70.8409H153.674V69.4654ZM153.907 75.216H160.377V79.674H158.635V76.5749H155.566V79.7402H153.907V75.216ZM156.097 64.2285L157.922 64.9411C156.578 66.9795 154.338 68.7859 152.164 69.8963C151.982 69.4488 151.468 68.4379 151.136 67.9904C153.06 67.1784 155.018 65.8029 156.097 64.2285ZM155.516 66.184L156.478 64.7091C157.839 65.488 159.979 66.6812 160.991 67.427L159.963 69.1174C158.984 68.3219 156.926 67.0458 155.516 66.184ZM154.736 67.7584H158.154V68.9185H154.736V67.7584ZM177.251 69.7305H183.374V71.5701H177.251V69.7305ZM168.209 65.8857H175.675V67.5098H168.209V65.8857ZM168.043 72.4815H175.659V74.1554H168.043V72.4815ZM167.943 69.5814H175.941V71.222H167.943V69.5814ZM179.89 70.5426H181.831V79.7237H179.89V70.5426ZM169.088 67.8247L170.664 67.4435C170.913 68.007 171.146 68.7528 171.229 69.2334L169.586 69.6974C169.503 69.2002 169.304 68.4047 169.088 67.8247ZM173.153 67.427L174.962 67.775C174.597 68.6533 174.265 69.5151 173.95 70.1117L172.34 69.7637C172.622 69.1173 172.971 68.123 173.153 67.427ZM181.549 64.3942L183.092 65.8526C181.35 66.5321 179.06 67.0292 177.085 67.3275C177.003 66.9132 176.72 66.2338 176.505 65.8194C178.33 65.488 180.338 64.9577 181.549 64.3942ZM170.548 64.5599L172.556 64.0793C172.888 64.792 173.286 65.7366 173.435 66.3498L171.345 66.9132C171.212 66.3 170.864 65.3057 170.548 64.5599ZM176.505 65.8194H178.346V71.7689C178.346 74.2051 178.131 77.6356 176.704 79.7568C176.389 79.4088 175.592 78.7956 175.177 78.5802C176.405 76.6909 176.505 73.9233 176.505 71.7689V65.8194ZM173.435 75.216L174.729 74.4868C175.244 75.2491 175.808 76.2269 176.073 76.8566L174.729 77.7018C174.464 77.0389 173.9 75.9783 173.435 75.216ZM169.221 74.6857L170.747 75.1331C170.333 76.3098 169.636 77.6853 169.055 78.547C168.773 78.2984 168.126 77.851 167.744 77.6356C168.325 76.8732 168.872 75.7132 169.221 74.6857ZM171.146 70.4929H173.087V79.6905H171.146V70.4929ZM188.252 74.9011H190.21V77.155C190.21 77.6521 190.376 77.7018 191.288 77.7018C191.703 77.7018 193.395 77.7018 193.943 77.7018C194.723 77.7018 194.839 77.4698 194.922 75.796C195.353 76.1109 196.183 76.3926 196.714 76.5086C196.481 78.8785 195.934 79.4751 194.092 79.4751C193.611 79.4751 191.537 79.4751 191.089 79.4751C188.816 79.4751 188.252 78.9282 188.252 77.1881V74.9011ZM190.641 74.6857L192.002 73.5919C192.748 74.2548 193.777 75.1994 194.291 75.796L192.848 77.0224C192.383 76.4092 191.388 75.3983 190.641 74.6857ZM196.249 75.1497L197.991 74.3376C198.672 75.3651 199.634 76.7904 200.082 77.6521L198.224 78.5968C197.825 77.7184 196.913 76.2435 196.249 75.1497ZM185.863 74.5697L187.638 75.2491C187.323 76.4423 186.825 77.9339 186.228 78.8951L184.419 78.0001C185.033 77.1052 185.581 75.7463 185.863 74.5697ZM184.701 66.6149H191.686V68.2887H184.701V66.6149ZM187.455 64.2616H189.347V74.2382H187.455V64.2616ZM187.389 67.7253L188.75 68.1561C188.069 70.1614 186.858 72.233 185.581 73.393C185.282 72.9621 184.701 72.3158 184.303 72.0009C185.547 71.0895 186.759 69.3494 187.389 67.7253ZM189.231 68.8356C189.795 69.1505 191.537 70.3934 191.985 70.7249L190.94 72.3158C190.293 71.6363 188.899 70.3603 188.202 69.8134L189.231 68.8356ZM194.142 69.0676V70.0454H197.212V69.0676H194.142ZM194.142 71.4872V72.4815H197.212V71.4872H194.142ZM194.142 66.6481V67.5927H197.212V66.6481H194.142ZM192.333 65.0737H199.12V74.0393H192.333V65.0737ZM202.056 65.8857L203.168 64.4274C204.197 64.8417 205.607 65.5543 206.32 66.1012L205.159 67.7418C204.512 67.1618 203.135 66.3663 202.056 65.8857ZM201.077 70.3437L202.139 68.8522C203.168 69.2499 204.595 69.946 205.308 70.4929L204.197 72.1335C203.55 71.5866 202.156 70.8077 201.077 70.3437ZM201.675 78.2653C202.554 77.0224 203.832 74.9508 204.827 73.045L206.287 74.3542C205.408 76.1109 204.346 78.0001 203.351 79.6077L201.675 78.2653ZM210.103 64.2451H212.128V72.1667H210.103V64.2451ZM206.155 70.9237H216.143V72.813H206.155V70.9237ZM206.818 66.7144H215.529V68.587H206.818V66.7144ZM212.078 74.9674L213.704 74.1719C214.816 75.6303 216.027 77.5527 216.475 78.8951L214.683 79.8065C214.318 78.4973 213.173 76.4755 212.078 74.9674ZM207.133 79.4088L207.051 77.8344L208.046 77.2047L214.235 76.5583C214.218 77.0887 214.268 77.8676 214.334 78.2984C208.56 79.0111 207.698 79.1436 207.133 79.4088ZM207.133 79.4088C207.017 78.9945 206.685 78.0001 206.437 77.4367C206.835 77.3207 207.133 76.9727 207.515 76.3595C207.913 75.7794 209.141 73.4593 209.805 71.2883L211.978 71.9678C211.049 74.2879 209.672 76.6578 208.428 78.2984V78.3482C208.428 78.3482 207.133 79.0442 207.133 79.4088ZM151.932 85.4743H166.135V88.391H164.26V87.0155H153.724V88.391H151.932V85.4743ZM158.287 87.9933H159.929C159.83 89.0705 159.697 90.3466 159.564 91.1752H157.889C158.055 90.3134 158.204 89.0373 158.287 87.9933ZM155.549 94.4399V94.9537H162.485V94.4399H155.549ZM155.549 95.8983V96.4286H162.485V95.8983H155.549ZM155.549 93.0147V93.4953H162.485V93.0147H155.549ZM153.641 92.0038H164.509V97.423H153.641V92.0038ZM159.714 98.1687L160.759 97.0418C162.684 97.5058 164.824 98.1356 166.135 98.583L164.774 99.7928C163.596 99.3288 161.638 98.6825 159.714 98.1687ZM156.08 88.5402L155.815 90.5289H161.788L161.954 88.5402H156.08ZM154.438 87.5458H163.895L163.513 91.5398H153.923L154.438 87.5458ZM156.86 97.0584L158.37 98.1356C156.959 98.8813 154.637 99.5111 152.695 99.7928C152.446 99.4282 151.982 98.815 151.633 98.4505C153.492 98.2184 155.798 97.6218 156.86 97.0584ZM151.451 88.8053H155.267V89.0208H162.617V88.8053H166.666V90.2306H162.617V90.0151H155.267V90.2306H151.451V88.8053ZM157.54 84.4799L159.266 83.9828C159.647 84.5628 160.029 85.3583 160.195 85.872L158.353 86.4189C158.237 85.8886 157.872 85.0765 157.54 84.4799ZM180.769 87.3967L182.362 88.0099C180.653 89.7997 177.633 90.9929 174.846 91.6889C174.68 91.3078 174.215 90.5454 173.916 90.1808C176.555 89.7002 179.375 88.7722 180.769 87.3967ZM174.066 86.4521L182.959 85.8057L183.059 87.3304L174.165 88.0099L174.066 86.4521ZM178.562 84.9771L179.773 84.0822C180.553 84.3639 181.482 84.8777 181.997 85.2754L180.736 86.2863C180.255 85.872 179.292 85.292 178.562 84.9771ZM180.703 94.5725L182.378 95.252C180.586 97.4395 177.368 98.8979 174.232 99.7265C174.049 99.3122 173.551 98.4836 173.253 98.119C176.223 97.5058 179.226 96.3458 180.703 94.5725ZM173.983 93.6776L183.208 93.0147L183.307 94.556L174.099 95.252L173.983 93.6776ZM178.114 92.0701L179.325 91.1918C180.089 91.5398 181.018 92.0867 181.516 92.501L180.271 93.4787C179.773 93.0313 178.844 92.4015 178.114 92.0701ZM170.216 86.4023V88.6396H172.075V86.4023H170.216ZM168.574 84.7617H173.817V90.2803H168.574V84.7617ZM170.631 89.5511H172.307V97.1578H170.631V89.5511ZM168.458 91.4403H170.001V97.5887H168.458V91.4403ZM167.761 96.8098C169.354 96.5446 171.726 96.0309 173.966 95.5337L174.149 97.2241C172.042 97.7213 169.802 98.2184 168.093 98.6162L167.761 96.8098ZM171.378 92.1364H173.933V93.8102H171.378V92.1364ZM175.742 84.1319H177.583C178.064 87.5293 179.508 89.9157 181.532 90.0151C181.831 90.0317 181.997 89.6505 182.096 88.8551C182.461 89.2362 183.075 89.634 183.457 89.8163C183.059 91.4238 182.461 91.9044 181.681 91.8878C178.181 91.7221 176.355 88.4407 175.742 84.1319ZM175.476 91.2083H177.351C177.816 95.0034 179.359 97.7047 181.549 97.8539C181.897 97.8704 182.063 97.4064 182.179 96.4618C182.561 96.8429 183.208 97.2572 183.606 97.423C183.208 99.2294 182.577 99.7763 181.715 99.7597C177.965 99.5774 176.09 95.9646 175.476 91.2083ZM190.309 86.5018H199.584V88.3247H190.309V86.5018ZM190.608 90.3134H197.693V92.1198H190.608V90.3134ZM193.893 84.1319H195.851V91.2912H193.893V84.1319ZM192.765 91.7552C193.959 94.8211 196.481 97.0749 200.231 98.003C199.8 98.4007 199.236 99.1962 198.97 99.71C194.988 98.5499 192.483 95.9978 190.973 92.269L192.765 91.7552ZM197.494 90.3134H197.859L198.207 90.2471L199.485 90.7609C198.157 95.6829 194.822 98.3676 190.409 99.6602C190.21 99.1299 189.729 98.2847 189.347 97.8704C193.362 96.9258 196.481 94.4897 197.494 90.6283V90.3134ZM184.369 92.5507C185.829 92.2524 187.97 91.7386 189.994 91.2249L190.243 93.0479C188.401 93.545 186.427 94.0588 184.884 94.4565L184.369 92.5507ZM184.585 87.2807H190.094V89.1368H184.585V87.2807ZM186.493 84.1319H188.451V97.5058C188.451 98.4505 188.285 98.9476 187.721 99.2459C187.157 99.5442 186.36 99.6105 185.166 99.6105C185.116 99.0968 184.851 98.3013 184.618 97.7876C185.265 97.8041 185.962 97.8041 186.178 97.8041C186.41 97.8041 186.493 97.7213 186.493 97.4893V84.1319ZM205.574 88.0264H212.011V89.866H205.574V88.0264ZM207.781 84.1816H209.506V99.6271H207.781V84.1816ZM212.377 85.3749H216.342V87.1315H212.377V85.3749ZM211.962 89.3854H216.591V91.1586H211.962V89.3854ZM209.772 85.5571L210.983 84.9108C211.481 85.5406 212.045 86.4189 212.31 86.9989L211.033 87.7116C210.8 87.1481 210.253 86.22 209.772 85.5571ZM213.405 90.1808H215.297V97.3898C215.297 98.3345 215.164 98.8648 214.567 99.1796C213.986 99.4945 213.19 99.5277 212.078 99.5277C212.028 98.9808 211.796 98.1522 211.547 97.6053C212.194 97.6218 212.907 97.6218 213.123 97.6218C213.339 97.6218 213.405 97.5721 213.405 97.3733V90.1808ZM203.765 84.1319L205.574 84.7782C204.694 86.2532 203.367 87.8441 202.09 88.8551C201.857 88.4407 201.376 87.7281 201.061 87.3635C202.106 86.5515 203.218 85.2091 203.765 84.1319ZM202.786 91.2415L204.346 89.6837L204.612 89.7665V99.6934H202.786V91.2415ZM204.014 87.6287L205.806 88.2253C204.86 90.3631 203.351 92.6501 201.841 94.0588C201.642 93.6445 201.094 92.6667 200.746 92.2358C202.023 91.1255 203.284 89.3854 204.014 87.6287ZM205.889 90.7443H207.283C207.266 93.9096 207.1 95.9977 205.823 97.2738C205.64 96.9258 205.225 96.3789 204.877 96.1138C205.806 95.0863 205.872 93.4622 205.889 90.7443ZM210.087 90.7443H211.497V94.8874C211.497 95.3349 211.497 95.4509 211.613 95.4509C211.713 95.4509 211.879 95.4509 211.978 95.4509C212.144 95.4509 212.36 95.4177 212.526 95.368C212.542 95.7326 212.609 96.3955 212.659 96.7269C212.459 96.8098 212.227 96.8264 211.962 96.8264C211.862 96.8264 211.779 96.8264 211.646 96.8264C210.319 96.8264 210.087 96.3126 210.087 94.8543V90.7443Z" fill="white"/>
<g filter="url(#filter1_f_374_78)">
<path d="M65.8146 325.371C98.4976 325.371 124.992 298.907 124.992 266.263C124.992 233.618 98.4976 207.155 65.8146 207.155C33.1316 207.155 6.63672 233.618 6.63672 266.263C6.63672 298.907 33.1316 325.371 65.8146 325.371Z" stroke="white" stroke-opacity="0.4" stroke-width="8" stroke-linecap="round" stroke-dasharray="10 10"/>
</g>
<path d="M65.8148 325.647C98.6505 325.647 125.269 299.06 125.269 266.263C125.269 233.466 98.6505 206.879 65.8148 206.879C32.979 206.879 6.36035 233.466 6.36035 266.263C6.36035 299.06 32.979 325.647 65.8148 325.647Z" stroke="white" stroke-linecap="round" stroke-dasharray="10 10"/>
<mask id="mask1_374_78" style="mask-type:luminance" maskUnits="userSpaceOnUse" x="53" y="224" width="32" height="32">
<path d="M84.982 224.043H53.2441V255.744H84.982V224.043Z" fill="white"/>
</mask>
<g mask="url(#mask1_374_78)">
<path d="M77.0475 239.893C72.665 239.893 69.1132 243.441 69.1132 247.818C69.1132 252.196 72.665 255.743 77.0475 255.743C81.43 255.743 84.9817 252.196 84.9817 247.818C84.9817 243.441 81.43 239.893 77.0475 239.893ZM77.866 251.007C77.366 251.506 76.7024 251.781 75.9961 251.781H75.9933C75.2876 251.781 74.6234 251.505 74.1251 251.005L71.4643 248.348L73.3342 246.48L75.9961 249.139L80.7768 244.364L82.6467 246.232L77.866 251.007ZM60.5175 233.289C57.9651 233.289 55.8889 231.215 55.8889 228.666C55.8889 226.117 57.9651 224.043 60.5175 224.043C63.0699 224.043 65.1461 226.117 65.1461 228.666C65.1461 231.215 63.0699 233.289 60.5175 233.289ZM72.4189 233.289C69.867 233.289 67.7908 231.215 67.7908 228.666C67.7908 226.117 69.867 224.043 72.4189 224.043C74.9713 224.043 77.0475 226.117 77.0475 228.666C77.0475 231.215 74.9713 233.289 72.4189 233.289ZM59.1951 239.233C59.1951 237.478 59.8217 235.867 60.8626 234.61H57.2113C55.0241 234.61 53.2441 236.387 53.2441 238.572V242.535H60.0164C59.4954 241.528 59.1951 240.406 59.1951 239.233ZM61.8399 239.233C61.8399 236.683 63.9161 234.61 66.4685 234.61C68.97 234.61 71.0146 236.603 71.0943 239.082C69.4003 240.237 68.0591 241.869 67.2671 243.786C67.0077 243.831 66.7406 243.854 66.4696 243.854C63.9172 243.854 61.841 241.781 61.841 239.231L61.8399 239.233ZM67.8843 253.102H58.5336V249.139C58.5336 246.954 60.314 245.177 62.5008 245.177H66.8014C66.5846 246.02 66.4685 246.905 66.4685 247.818C66.4685 249.742 66.9839 251.547 67.8843 253.102Z" fill="white"/>
</g>
<path d="M32.9629 273.823C34.2737 273.441 36.2149 272.745 38.0898 272.066L38.4382 273.823C36.7458 274.486 34.9207 275.182 33.4606 275.728L32.9629 273.823ZM33.1786 268.569H38.2059V270.392H33.1786V268.569ZM34.9871 265.437H36.8122V278.877C36.8122 279.805 36.6463 280.319 36.1319 280.617C35.6342 280.932 34.9207 280.998 33.8423 280.998C33.7925 280.501 33.5602 279.689 33.3279 279.142C33.9252 279.176 34.5059 279.176 34.705 279.159C34.9041 279.159 34.9871 279.109 34.9871 278.877V265.437ZM40.6284 265.603H42.4535V272.861C42.4535 276.176 42.0221 279.109 38.7203 280.932C38.4216 280.501 37.7414 279.838 37.31 279.524C40.2633 277.999 40.6284 275.646 40.6284 272.845V265.603ZM43.5154 265.603H45.3902V278.165C45.3902 278.944 45.4566 279.06 45.7885 279.06C45.9378 279.06 46.5517 279.06 46.7342 279.06C47.0494 279.06 47.1324 278.579 47.1822 276.889C47.6136 277.22 48.327 277.551 48.858 277.667C48.6754 279.954 48.1943 280.833 46.9001 280.833C46.5849 280.833 45.7387 280.833 45.44 280.833C43.9467 280.833 43.5154 280.236 43.5154 278.148V265.603ZM38.0068 268.321L39.4835 267.509C40.1638 268.553 40.8772 269.912 41.1925 270.806L39.6494 271.735C39.3508 270.806 38.6373 269.381 38.0068 268.321ZM44.6768 273.707L45.8714 272.53C46.9665 273.425 48.2275 274.651 48.858 275.48L47.597 276.855C46.9997 276.027 45.7387 274.651 44.6768 273.707ZM37.4759 275.298C38.2557 274.834 39.4337 274.055 40.5952 273.276L41.2423 274.784C40.3463 275.53 39.3508 276.308 38.488 276.955L37.4759 275.298ZM46.7508 267.31L48.5261 268.205C47.8127 269.431 47.0826 270.84 46.4687 271.735L45.1082 270.972C45.6723 269.994 46.3858 268.453 46.7508 267.31ZM51.579 267.094V268.155H52.4584V267.094H51.579ZM50.1687 265.851H53.9185V269.414H50.1687V265.851ZM55.9261 267.094V268.155H56.822V267.094H55.9261ZM54.5158 265.851H58.2821V269.414H54.5158V265.851ZM58.3153 270.276L65.1844 269.448L65.4001 271.27L58.531 272.132L58.3153 270.276ZM62.0153 266.431L63.5252 265.652C64.1723 266.514 64.9023 267.674 65.1844 268.453L63.5749 269.332C63.3261 268.553 62.6458 267.326 62.0153 266.431ZM51.9772 273.756V274.618H56.4404V273.756H51.9772ZM51.9772 271.502V272.381H56.4404V271.502H51.9772ZM50.3346 270.044H58.1494V276.093H50.3346V270.044ZM49.671 276.922H58.5808V278.662H49.671V276.922ZM53.3378 270.541H55.0136V275.48H55.1463V280.982H53.2216V275.48H53.3378V270.541ZM59.5929 265.52H61.4678C61.5507 272.563 62.4301 278.529 63.6081 278.612C63.857 278.629 64.0395 277.85 64.1225 276.358C64.4543 276.773 65.2673 277.286 65.566 277.469C65.1512 280.369 64.305 281.015 63.5915 280.998C60.6548 280.866 59.8252 274.668 59.5929 265.52ZM63.4588 271.751L64.9687 272.596C63.857 275.96 61.5507 279.225 58.7301 280.833C58.3983 280.369 57.7844 279.789 57.2866 279.441C60.2068 278.049 62.4301 274.983 63.4588 271.751ZM71.6718 273.408H77.2799V278.629H71.6718V277.005H75.4216V275.032H71.6718V273.408ZM70.8256 273.408H72.6673V279.573H70.8256V273.408ZM68.1045 268.453H72.2691V269.812H68.1045V268.453ZM75.8032 268.453H80.001V269.812H75.8032V268.453ZM79.1714 266.05H81.179V278.595C81.179 279.722 80.9467 280.286 80.2664 280.617C79.5696 280.949 78.5243 280.982 76.9978 280.982C76.9314 280.418 76.5996 279.474 76.3175 278.96C77.2799 279.01 78.4247 278.993 78.74 278.993C79.0552 278.993 79.1714 278.877 79.1714 278.579V266.05ZM68.2705 266.05H73.5135V272.265H68.2705V270.74H71.6552V267.575H68.2705V266.05ZM80.2498 266.05V267.558H76.5332V270.773H80.2498V272.281H74.6418V266.05H80.2498ZM67.1256 266.05H69.1001V280.982H67.1256V266.05ZM85.6422 269.431V270.226H87.9983V269.431H85.6422ZM85.6422 267.393V268.171H87.9983V267.393H85.6422ZM83.8835 266.067H89.84V271.569H83.8835V266.067ZM83.1036 272.513H90.5866V273.972H83.1036V272.513ZM90.5202 266.116H98.1691V267.509H90.5202V266.116ZM86.2063 272.977H87.8655V279.64L86.2063 278.678V272.977ZM87.0691 275.314H90.2879V276.739H87.0691V275.314ZM93.7225 266.448L95.531 266.846C95.1328 267.774 94.7014 268.768 94.353 269.414L92.9427 269.05C93.2413 268.304 93.5566 267.227 93.7225 266.448ZM92.8099 271.784V272.563H95.8297V271.784H92.8099ZM92.8099 273.823V274.618H95.8297V273.823H92.8099ZM92.8099 269.729V270.508H95.8297V269.729H92.8099ZM91.0346 268.387H97.6714V275.977H91.0346V268.387ZM92.3785 276.093L94.0211 276.59C93.3077 277.535 92.1297 278.479 91.101 279.043C90.8189 278.728 90.1884 278.148 89.8234 277.883C90.8189 277.452 91.8144 276.773 92.3785 276.093ZM83.8669 274.618H85.4597C85.3767 277.154 85.1279 279.59 83.8669 281.081C83.6346 280.667 83.1036 280.037 82.7054 279.739C83.6512 278.579 83.8171 276.623 83.8669 274.618ZM85.1942 276.01C86.1234 278.794 88.1974 279.076 91.5821 279.093C92.6938 279.093 97.2731 279.093 98.6337 279.026C98.3682 279.408 98.0862 280.17 97.9866 280.667H91.5821C87.4673 280.667 85.1942 280.104 84.0162 276.358L85.1942 276.01ZM94.7346 276.69L96.0951 275.977C96.9911 276.557 98.0198 277.452 98.5341 278.082L97.1072 278.927C96.5929 278.264 95.5642 277.303 94.7346 276.69ZM36.2813 288.191H45.4566V289.285H36.2813V288.191ZM36.0656 295.118H45.6889V296.195H36.0656V295.118ZM37.6086 296.676L38.853 296.079C39.301 296.494 39.8319 297.107 40.0642 297.521L38.7369 298.184C38.5212 297.77 38.04 297.14 37.6086 296.676ZM38.2557 291.837V292.351H43.449V291.837H38.2557ZM38.2557 290.577V291.058H43.449V290.577H38.2557ZM36.7459 289.765H45.0252V293.163H36.7459V289.765ZM41.9059 294.638H43.5485V297.239C43.5485 297.886 43.4158 298.085 42.9346 298.234C42.4867 298.383 41.823 298.383 40.8938 298.383C40.8275 298.018 40.645 297.654 40.4956 297.372C40.9602 297.389 41.5243 297.389 41.6902 297.372C41.8396 297.372 41.9059 297.322 41.9059 297.173V294.638ZM36.3311 293.709C38.3719 293.726 41.4414 293.709 44.4279 293.676L44.3781 294.555C41.5077 294.654 38.5378 294.737 36.3974 294.77L36.3311 293.709ZM42.8185 293.544L43.814 292.881C44.4611 293.328 45.2077 294.008 45.5728 294.455L44.5275 295.234C44.1624 294.737 43.4158 294.008 42.8185 293.544ZM40.031 287.594H41.6571V294.058L40.031 294.124V287.594ZM33.9418 285.854H47.9454V300.836H46.0539V287.362H35.7503V300.869H33.9418V285.854ZM34.8212 298.549H46.8172V300.057H34.8212V298.549ZM63.8736 290.146L65.118 291.456C63.8902 292.301 62.3305 293.179 61.1691 293.709L60.1736 292.549C61.3184 291.986 62.9113 290.942 63.8736 290.146ZM56.5068 286.252L57.9669 285.34C58.7467 285.92 59.5597 286.749 59.9579 287.362L58.4149 288.406C58.0664 287.793 57.2534 286.882 56.5068 286.252ZM55.4449 287.926H65.1346V289.633H55.4449V287.926ZM59.4601 292.069L60.7045 292.897C59.7588 293.826 57.9669 294.986 56.6561 295.648C56.4072 295.218 55.9592 294.588 55.5942 294.24C56.8884 293.809 58.614 292.881 59.4601 292.069ZM60.2732 294.323L61.5673 295.201C60.3395 296.543 57.9835 297.985 56.092 298.714C55.8265 298.267 55.3619 297.67 54.9306 297.306C56.8552 296.775 59.1615 295.516 60.2732 294.323ZM62.148 285.324L64.0561 285.887C63.4422 286.865 62.7453 287.859 62.1978 288.506L60.5884 287.975C61.1359 287.263 61.7996 286.152 62.148 285.324ZM50.401 286.02H54.3167V287.793H52.1432V300.885H50.401V286.02ZM53.7028 286.02H54.0346L54.3167 285.954L55.6108 286.683C55.1795 288.108 54.632 289.914 54.1508 291.207C55.1795 292.5 55.3785 293.61 55.3785 294.571C55.3785 295.648 55.1629 296.344 54.6319 296.709C54.3665 296.891 54.0512 297.007 53.6862 297.057C53.3876 297.09 52.9893 297.107 52.6077 297.107C52.5911 296.626 52.4418 295.88 52.1763 295.4C52.475 295.416 52.6907 295.433 52.8898 295.416C53.0723 295.416 53.2382 295.383 53.3544 295.284C53.5535 295.135 53.6364 294.803 53.6364 294.339C53.6364 293.56 53.4207 292.533 52.475 291.422C52.9396 289.931 53.4705 287.644 53.7028 286.583V286.02ZM59.5597 288.506L61.1691 289.119C59.9247 290.644 57.8839 292.036 56.0588 292.881C55.8265 292.516 55.279 291.804 54.914 291.472C56.6893 290.826 58.531 289.732 59.5597 288.506ZM63.1104 292.533C63.6413 294.256 64.67 296.162 65.6655 297.256C65.2673 297.538 64.6866 298.134 64.3879 298.532C63.3261 297.239 62.2476 295.019 61.6171 293.03L63.1104 292.533ZM58.083 290.561L59.5265 289.798C62.679 292.781 62.6126 298.449 61.2023 299.808C60.6714 300.454 60.0906 300.67 59.2279 300.686C58.8794 300.686 58.3651 300.67 57.8839 300.637C57.8673 300.14 57.718 299.394 57.4027 298.88C57.9669 298.946 58.5144 298.963 58.896 298.963C59.2776 298.963 59.5431 298.88 59.7754 298.499C60.5718 297.604 60.7211 293.096 58.083 290.561ZM69.9628 290.66H78.292V292.483H69.9628V290.66ZM69.7637 298.283H78.3252V300.123H69.7637V298.283ZM68.8844 293.908H79.6359V300.769H77.5122V295.665H70.9086V300.836H68.8844V293.908ZM74.2436 285.224L76.0189 286.136C73.9947 289.069 70.892 291.389 67.7395 292.881C67.4077 292.317 66.8436 291.555 66.2794 291.058C69.3489 289.848 72.4848 287.81 74.2436 285.224ZM74.9238 286.368C77.2301 288.671 79.6193 289.931 82.0584 290.809C81.5606 291.273 80.9799 292.003 80.6978 292.632C78.1924 291.472 75.8364 290.047 73.2314 287.246L74.9238 286.368ZM90.57 288.009H98.5341V289.898H89.6409L90.57 288.009ZM92.7601 291.655H98.1028V293.461H92.7601V291.655ZM92.7436 295.317H98.3184V297.173H92.7436V295.317ZM91.748 288.638H93.7888V300.869H91.748V288.638ZM90.9516 285.456L92.8763 285.97C91.9471 288.655 90.4539 291.406 88.9274 293.129C88.6122 292.765 87.8489 292.052 87.4175 291.737C88.8776 290.246 90.1884 287.859 90.9516 285.456ZM86.5714 285.374L88.496 285.987C87.4175 288.804 85.6754 291.837 83.8503 293.726C83.6678 293.229 83.1036 292.102 82.7552 291.605C84.2817 290.097 85.7252 287.743 86.5714 285.374ZM84.8956 289.948L86.8866 287.942L86.9032 287.959V300.852H84.8956V289.948Z" fill="white"/>
<g filter="url(#filter2_f_374_78)">
<path d="M304.415 324.725C336.919 324.725 363.269 298.406 363.269 265.94C363.269 233.474 336.919 207.155 304.415 207.155C271.911 207.155 245.561 233.474 245.561 265.94C245.561 298.406 271.911 324.725 304.415 324.725Z" stroke="white" stroke-opacity="0.4" stroke-width="8" stroke-linecap="round" stroke-dasharray="10 10"/>
</g>
<path d="M305.062 325.001C337.719 325.001 364.192 298.558 364.192 265.94C364.192 233.321 337.719 206.879 305.062 206.879C272.404 206.879 245.931 233.321 245.931 265.94C245.931 298.558 272.404 325.001 305.062 325.001Z" stroke="white" stroke-linecap="round" stroke-dasharray="10 10"/>
<mask id="mask2_374_78" style="mask-type:luminance" maskUnits="userSpaceOnUse" x="289" y="223" width="32" height="32">
<path d="M320.584 223.95H289.54V254.958H320.584V223.95Z" fill="white"/>
</mask>
<g mask="url(#mask2_374_78)">
<path d="M311.53 243.33H298.595V240.746H311.53V243.33ZM303.753 235.728C304.131 236.063 304.604 236.228 305.074 236.228C305.532 236.228 305.986 236.069 306.338 235.756L308.116 234.287H311.593V226.596C311.593 225.138 310.406 223.95 308.944 223.95H301.306C299.845 223.95 298.658 225.136 298.658 226.596V234.287H302.011L303.754 235.728H303.753ZM317.35 235.578C319.137 235.578 320.584 234.132 320.584 232.348C320.584 230.564 319.137 229.118 317.35 229.118C315.564 229.118 314.117 230.564 314.117 232.348C314.117 234.132 315.564 235.578 317.35 235.578ZM292.774 235.578C294.56 235.578 296.008 234.132 296.008 232.348C296.008 230.564 294.56 229.118 292.774 229.118C290.987 229.118 289.54 230.564 289.54 232.348C289.54 234.132 290.987 235.578 292.774 235.578ZM289.54 254.958H296.008V252.374H289.54V254.958ZM317.35 236.87C315.564 236.87 314.117 238.316 314.117 240.1V247.206H308.943V254.958H311.53V249.79H316.704C318.847 249.79 320.584 248.055 320.584 245.914V240.1C320.584 238.316 319.137 236.87 317.35 236.87ZM296.008 240.1C296.008 238.316 294.56 236.87 292.774 236.87C290.987 236.87 289.54 238.316 289.54 240.1V245.914C289.54 248.055 291.277 249.79 293.421 249.79H298.595V254.958H301.181V247.206H296.008V240.1ZM314.117 254.958H320.584V252.374H314.117V254.958Z" fill="white"/>
</g>
<path d="M276.143 271.847H284.19V273.422H276.143V271.847ZM275.894 274.681H284.455V276.305H275.894V274.681ZM280.871 272.344H282.613V279.736H280.871V272.344ZM277.636 272.411H279.328V275.593C279.328 276.653 278.88 278.841 277.138 280.034C276.873 279.686 276.275 279.156 275.86 278.89C277.271 278.029 277.636 276.421 277.636 275.576V272.411ZM274.168 267.373H278.349V268.665H274.168V267.373ZM281.867 267.373H286.064V268.665H281.867V267.373ZM285.285 265.102H287.242V277.73C287.242 278.725 287.06 279.288 286.463 279.62C285.849 279.951 284.986 280.001 283.708 279.984C283.659 279.454 283.393 278.526 283.128 278.012C283.858 278.045 284.687 278.045 284.936 278.045C285.202 278.045 285.285 277.946 285.285 277.697V265.102ZM274.351 265.102H279.61V271.002H274.351V269.577H277.735V266.527H274.351V265.102ZM286.297 265.102V266.527H282.58V269.61H286.297V271.035H280.689V265.102H286.297ZM273.173 265.102H275.13V280.034H273.173V265.102ZM294.543 265.334H304.365V267.124H294.543V265.334ZM293.946 265.334H295.87V269.925C295.87 272.875 295.572 277.283 293.597 280.051C293.232 279.719 292.386 279.189 291.921 278.99C293.78 276.405 293.946 272.626 293.946 269.925V265.334ZM298.226 272.212V273.123H302.059V272.212H298.226ZM298.226 269.975V270.869H302.059V269.975H298.226ZM296.451 268.549H303.901V274.549H296.451V268.549ZM296.733 275.211L298.492 275.709C297.994 276.902 297.198 278.277 296.584 279.139C296.202 278.857 295.456 278.41 295.024 278.178C295.671 277.399 296.318 276.239 296.733 275.211ZM301.445 275.675L303.171 275.013C303.718 276.023 304.448 277.382 304.78 278.194L302.955 278.99C302.656 278.145 301.993 276.736 301.445 275.675ZM299.106 267.058L301.362 267.456C300.914 268.218 300.466 268.964 300.101 269.444L298.508 269.013C298.741 268.433 298.99 267.621 299.106 267.058ZM299.089 273.952H300.981V278.161C300.981 279.006 300.864 279.487 300.267 279.752C299.703 280.017 298.923 280.034 297.895 280.017C297.828 279.52 297.596 278.808 297.38 278.327C297.961 278.344 298.641 278.344 298.84 278.344C299.023 278.327 299.089 278.277 299.089 278.112V273.952ZM289.715 266.014L290.876 264.605C291.706 265.053 292.983 265.765 293.63 266.213L292.436 267.804C291.838 267.323 290.577 266.544 289.715 266.014ZM288.918 270.505L290.063 269.063C290.893 269.494 292.17 270.173 292.817 270.588L291.639 272.195C291.025 271.748 289.781 271.002 288.918 270.505ZM289.134 278.758C289.814 277.449 290.76 275.344 291.457 273.388L293.083 274.482C292.452 276.272 291.689 278.178 290.942 279.819L289.134 278.758ZM307.534 265.169H319.298V266.71H307.534V265.169ZM306.058 267.688H320.692V269.245H306.058V267.688ZM312.296 265.55H314.354V268.483H312.296V265.55ZM309.774 273.19V273.985H316.876V273.19H309.774ZM309.774 275.178V275.99H316.876V275.178H309.774ZM309.774 271.234V272.013H316.876V271.234H309.774ZM307.767 269.941H318.983V277.266H307.767V269.941ZM314.287 278.029L315.897 277.068C317.655 277.697 319.729 278.559 320.924 279.156L318.701 280.067C317.738 279.52 315.996 278.675 314.287 278.029ZM310.604 277.018L312.429 277.83C311.069 278.741 308.912 279.603 307.203 280.1C306.871 279.703 306.19 278.973 305.742 278.625C307.501 278.294 309.476 277.697 310.604 277.018ZM331.045 268.897H337.566V270.704H331.045V268.897ZM326.798 265.135H330.78V266.279H326.798V265.135ZM324.491 271.151H330.863V272.162H324.491V271.151ZM325.802 277.217H329.419V278.045H325.802V277.217ZM323.778 266.826H330.249V268.135H323.778V266.826ZM332.986 264.506H334.878V269.08C334.878 272.311 334.496 276.885 331.725 280.034C331.41 279.636 330.73 279.006 330.232 278.692C332.87 275.974 332.986 271.797 332.986 269.08V264.506ZM334.961 270.057C335.326 273.538 336.122 276.786 337.831 278.46C337.4 278.808 336.753 279.553 336.454 280.067C334.563 277.996 333.799 274.383 333.368 270.289L334.961 270.057ZM334.911 265.566L336.388 265.019C336.935 265.881 337.483 267.025 337.682 267.804L336.089 268.4C335.94 267.638 335.442 266.461 334.911 265.566ZM325.885 264.456H327.71V267.257H325.885V264.456ZM327.03 277.482H328.208V279.636H327.03V277.482ZM322.899 266.826H324.541V272.03C324.541 274.3 324.359 277.581 323.297 279.669C323.015 279.371 322.318 278.841 321.936 278.658C322.832 276.769 322.899 274.051 322.899 272.013V266.826ZM324.641 268.93L329.054 268.466L329.187 269.312L324.773 269.809L324.641 268.93ZM329.768 266.826H330.016L330.282 266.776L331.443 267.041C331.194 267.837 330.912 268.748 330.647 269.345L329.253 269.013C329.436 268.483 329.651 267.671 329.768 267.025V266.826ZM326.499 273.388V273.902H328.755V273.388H326.499ZM325.221 272.56H330.099V274.731H325.221V272.56ZM324.392 275.129H330.099V276.139H325.786V279.819H324.392V275.129ZM329.519 275.129H330.912V278.493C330.912 279.073 330.846 279.404 330.464 279.603C330.099 279.802 329.635 279.819 329.004 279.819C328.971 279.454 328.805 278.957 328.639 278.625C328.971 278.642 329.253 278.642 329.369 278.642C329.486 278.625 329.519 278.592 329.519 278.476V275.129ZM325.985 276.454L326.831 276.073C327.146 276.438 327.461 276.968 327.561 277.333L326.682 277.764C326.582 277.382 326.283 276.852 325.985 276.454ZM328.374 276.023L329.336 276.405C328.955 276.935 328.573 277.382 328.274 277.747L327.478 277.416C327.777 277.018 328.175 276.421 328.374 276.023ZM325.918 267.82H327.163V269.411C327.163 269.776 327.212 269.892 327.544 269.892C327.826 269.892 329.038 269.892 329.353 269.892C329.668 269.892 330.249 269.875 330.514 269.809C330.531 270.124 330.564 270.472 330.597 270.77C330.365 270.836 329.867 270.853 329.419 270.853C329.054 270.853 327.627 270.853 327.329 270.853C326.151 270.853 325.918 270.422 325.918 269.411V267.82ZM273.139 285.022H287.325V286.928H273.139V285.022ZM277.038 289.099H283.692V290.955H277.038V289.099ZM276.225 293.574H283.161V295.413H276.225V293.574ZM272.642 297.568H287.807V299.49H272.642V297.568ZM276.756 286.547H278.947C278.382 289.513 277.603 293.192 277.005 295.413H274.765C275.462 293.093 276.292 289.414 276.756 286.547ZM283.012 289.099H283.227L283.576 289.033L285.102 289.198C284.837 291.784 284.306 295.347 283.841 298.181L281.767 297.982C282.282 295.148 282.812 291.32 283.012 289.315V289.099ZM297.115 289.182H303.055V290.972H297.115V289.182ZM297.131 293.093H303.071V294.899H297.131V293.093ZM297.115 297.021H303.071V298.81H297.115V297.021ZM296.169 285.254H304V299.689H301.993V287.127H298.077V299.788H296.169V285.254ZM289.2 287.773H295.588V289.663H289.2V287.773ZM291.606 284.359H293.514V299.921H291.606V284.359ZM291.49 289.049L292.685 289.464C292.137 292.165 291.042 295.347 289.731 297.07C289.549 296.507 289.084 295.695 288.786 295.198C289.98 293.756 291.042 291.171 291.49 289.049ZM293.365 290.508C293.846 290.972 295.472 292.977 295.837 293.424L294.709 295.032C294.228 294.054 293.05 292.248 292.452 291.419L293.365 290.508ZM315.532 291.419L317.556 291.983C315.648 296.424 311.948 298.711 306.987 299.921C306.771 299.457 306.157 298.562 305.792 298.148C310.621 297.22 314.055 295.247 315.532 291.419ZM309.973 288.536L311.931 289.298C310.77 290.74 308.978 292.248 307.485 293.159C307.12 292.762 306.356 292.032 305.908 291.701C307.402 290.972 309.028 289.745 309.973 288.536ZM311.234 291.502C312.711 295.065 315.93 297.286 320.974 298.048C320.542 298.462 319.995 299.308 319.746 299.838C314.453 298.844 311.317 296.325 309.459 292.032L311.234 291.502ZM306.025 286.464H320.659V288.403H306.025V286.464ZM314.934 289.58L316.511 288.436C317.938 289.43 319.879 290.905 320.791 291.95L319.099 293.259C318.269 292.215 316.411 290.64 314.934 289.58ZM311.699 284.807L313.607 284.16C314.038 284.857 314.586 285.818 314.802 286.431L312.811 287.177C312.612 286.547 312.13 285.553 311.699 284.807ZM327.08 286.348H337.433V288.138H327.08V286.348ZM331.178 292.53H332.92V299.192H331.178V292.53ZM328.374 292.38H330.166V294.004C330.166 295.844 329.9 298.181 327.694 299.855C327.395 299.457 326.731 298.844 326.3 298.545C328.158 297.186 328.374 295.363 328.374 293.938V292.38ZM333.484 288.801L334.977 287.922C335.873 289 337.151 290.508 337.765 291.419L336.155 292.463C335.591 291.519 334.38 289.961 333.484 288.801ZM327.727 292.132L327.694 290.707L328.722 290.11L335.907 289.729C335.956 290.226 336.106 290.922 336.205 291.32C329.303 291.817 328.374 291.867 327.727 292.132ZM322.849 286L323.944 284.542C324.973 284.989 326.333 285.735 326.997 286.348L325.819 287.956C325.221 287.342 323.894 286.514 322.849 286ZM322.169 290.591L323.197 289.099C324.259 289.48 325.669 290.176 326.366 290.74L325.255 292.397C324.608 291.817 323.247 291.055 322.169 290.591ZM322.467 298.38C323.347 297.137 324.624 295.065 325.62 293.159L327.08 294.469C326.2 296.225 325.138 298.114 324.143 299.722L322.467 298.38ZM334.015 292.38H335.84V297.319C335.84 297.849 335.873 298.015 336.073 298.015C336.222 298.015 336.554 298.015 336.72 298.015C336.952 298.015 337.3 297.998 337.516 297.916C337.549 298.38 337.582 299.026 337.649 299.44C337.416 299.54 337.068 299.54 336.736 299.54C336.521 299.54 336.106 299.54 335.89 299.54C334.314 299.54 334.015 298.877 334.015 297.286V292.38ZM327.727 292.132C327.627 291.751 327.312 290.806 327.096 290.292C327.511 290.193 327.876 289.845 328.374 289.265C328.921 288.685 330.531 286.464 331.56 284.293L333.501 285.039C332.207 287.326 330.498 289.563 328.938 291.121V291.171C328.938 291.171 327.727 291.784 327.727 292.132Z" fill="white"/>
<path d="M110.06 203.288L120.61 197.573L110.473 189.811L110.06 203.288ZM145.027 142.082L134.476 147.797L144.613 155.558L145.027 142.082ZM115.871 195.324L140.971 151.39L139.215 150.046L114.116 193.979L115.871 195.324Z" fill="white"/>
<path d="M256.193 203.288L245.642 197.573L255.779 189.811L256.193 203.288ZM221.226 142.082L231.776 147.797L221.639 155.558L221.226 142.082ZM250.381 195.324L225.282 151.39L227.037 150.046L252.137 193.979L250.381 195.324Z" fill="white"/>
<path d="M149.327 261.291L160.388 267.67V254.912L149.327 261.291ZM219.882 261.291L208.82 254.912V267.67L219.882 261.291ZM159.282 262.396H209.926V260.186H159.282V262.396Z" fill="white"/>
</g>
<defs>
<filter id="filter0_f_374_78" x="112.992" y="-5.37109" width="142.355" height="142.216" filterUnits="userSpaceOnUse" color-interpolation-filters="sRGB">
<feFlood flood-opacity="0" result="BackgroundImageFix"/>
<feBlend mode="normal" in="SourceGraphic" in2="BackgroundImageFix" result="shape"/>
<feGaussianBlur stdDeviation="4" result="effect1_foregroundBlur_374_78"/>
</filter>
<filter id="filter1_f_374_78" x="-5.36328" y="195.155" width="142.355" height="142.216" filterUnits="userSpaceOnUse" color-interpolation-filters="sRGB">
<feFlood flood-opacity="0" result="BackgroundImageFix"/>
<feBlend mode="normal" in="SourceGraphic" in2="BackgroundImageFix" result="shape"/>
<feGaussianBlur stdDeviation="4" result="effect1_foregroundBlur_374_78"/>
</filter>
<filter id="filter2_f_374_78" x="233.561" y="195.155" width="141.709" height="141.57" filterUnits="userSpaceOnUse" color-interpolation-filters="sRGB">
<feFlood flood-opacity="0" result="BackgroundImageFix"/>
<feBlend mode="normal" in="SourceGraphic" in2="BackgroundImageFix" result="shape"/>
<feGaussianBlur stdDeviation="4" result="effect1_foregroundBlur_374_78"/>
</filter>
<clipPath id="clip0_374_78">
<rect width="370" height="332" fill="white"/>
</clipPath>
</defs>
</svg>
