<svg width="33" height="35" viewBox="0 0 33 35" fill="none" xmlns="http://www.w3.org/2000/svg">
<path d="M27.3602 10.08C24.8358 7.75396 21.5662 6.22563 17.9554 5.89896L20.875 0H32.3477L27.3602 10.08ZM15.0358 5.90042L12.125 0H0.499161L5.52458 10.1865C8.06208 7.80208 11.3725 6.23438 15.0358 5.90042ZM29.625 21.875C29.625 29.1127 23.7362 35 16.5 35C9.26374 35 3.37499 29.1127 3.37499 21.875C3.37499 14.6373 9.26374 8.75 16.5 8.75C23.7362 8.75 29.625 14.6373 29.625 21.875ZM23.7917 19.6875H18.5679L17.1154 14.5425H15.9167L14.4627 19.6875H9.20979V20.7769L13.1502 23.0781L11.584 27.7083L12.475 28.3792L16.519 25.251L20.5469 28.366L21.4729 27.72L19.79 23.1481L23.7917 20.771V19.689V19.6875Z" fill="#B7EFFF"/>
</svg>
