<svg width="60" height="60" viewBox="0 0 60 60" fill="none" xmlns="http://www.w3.org/2000/svg">
<path d="M38.75 57.5C38.75 58.88 37.63 60 36.25 60H23.75C22.37 60 21.25 58.88 21.25 57.5C21.25 53.75 25.5925 50 30 50C34.4075 50 38.75 53.75 38.75 57.5ZM8.0775 47.5C11.53 47.5 14.3275 44.7025 14.3275 41.25C14.3275 37.7975 11.53 35 8.0775 35C4.625 35 1.8275 37.7975 1.8275 41.25C1.8275 44.7025 4.625 47.5 8.0775 47.5ZM30 47.5C33.4525 47.5 36.25 44.7025 36.25 41.25C36.25 37.7975 33.4525 35 30 35C26.5475 35 23.75 37.7975 23.75 41.25C23.75 44.7025 26.5475 47.5 30 47.5ZM47.5 0H12.5C5.5975 0 0 5.5975 0 12.5V33.4525C2.0475 31.3325 4.905 30 8.0775 30C13.435 30 17.9125 33.77 19.04 38.7925C20.1675 33.77 24.645 30 30.0025 30C35.36 30 39.8375 33.77 40.965 38.7925C42.0925 33.77 46.57 30 51.9275 30C55.1 30 57.9575 31.3325 60.005 33.4525V12.5C60.005 5.5975 54.4075 0 47.505 0H47.5ZM51.9225 47.5C55.375 47.5 58.1725 44.7025 58.1725 41.25C58.1725 37.7975 55.375 35 51.9225 35C48.47 35 45.6725 37.7975 45.6725 41.25C45.6725 44.7025 48.47 47.5 51.9225 47.5ZM51.875 50C47.7075 50 43.9175 53.8475 43.75 57.5C43.75 58.88 44.87 60 46.25 60H57.5C58.88 60 60 58.88 60 57.5C59.8025 53.855 56.0375 50 51.875 50ZM8.125 50C3.9575 50 0.1675 53.8475 0 57.5C0 58.88 1.12 60 2.5 60H13.75C15.13 60 16.25 58.88 16.25 57.5C16.0525 53.855 12.2875 50 8.125 50Z" fill="white"/>
</svg>
