<svg width="60" height="60" viewBox="0 0 60 60" fill="none" xmlns="http://www.w3.org/2000/svg">
<path d="M59.86 31.6725L52.2825 10.0225C51.2325 7.01752 48.385 4.99752 45.2025 4.99752H32.5V2.50002C32.485 -0.769975 27.5125 -0.767476 27.5 2.50002V5.00002H14.7975C11.615 5.00002 8.7675 7.02002 7.7175 10.0225L0.14 31.6725C0.0475 31.9375 0 33.2525 0 33.2525C0 39.5175 4.6775 44.67 10.65 44.9825C13.7525 45.155 16.735 44.055 18.995 41.91C21.225 39.795 22.5 36.82 22.5 33.75C22.5 33.75 22.4475 31.92 22.3475 31.645L14.485 10.02C14.5875 10.0075 14.6925 10 14.7975 10H27.5V55H12.5C9.23 55.015 9.2325 59.9875 12.5 60H47.5C50.77 59.985 50.7675 55.0125 47.5 55H32.5V10H45.2025C45.3075 10 45.4125 10.005 45.515 10.02L37.65 31.645C37.55 31.9175 37.4975 33.75 37.4975 33.75C37.4975 36.8225 38.775 39.795 41.0025 41.91C48.025 48.6625 60.1225 43.79 59.9975 33.255C59.9975 33.255 59.95 31.94 59.8575 31.675L59.86 31.6725ZM16.43 30H6.0225L11.1275 15.4175L16.43 30ZM48.8725 15.4175L53.9775 30H43.57L48.8725 15.4175Z" fill="white"/>
</svg>