<svg width="60" height="60" viewBox="0 0 60 60" fill="none" xmlns="http://www.w3.org/2000/svg">
<path d="M24.27 31.3752C21.7525 29.0402 17.62 29.5052 15.74 32.6202C14.52 34.6452 14.865 37.2577 16.3525 39.0927L20.8225 44.8527C21.67 45.9427 21.4725 47.5127 20.38 48.3602C19.29 49.2077 17.72 49.0102 16.8725 47.9177L12.4025 42.1577C9.5975 38.7002 9.19 33.7952 11.4575 30.0377C11.765 29.5277 12.1225 29.0602 12.5 28.6177V14.0077C12.5 10.7377 10.1475 7.76019 6.895 7.43269C3.155 7.05769 0 9.98519 0 13.6502V40.0177C0 45.3527 2.1325 50.4677 5.9225 54.2252L10.4025 58.6627C11.3275 59.5202 12.54 59.9952 13.8025 59.9952H32.5C33.88 59.9952 35 58.8752 35 57.4952V47.9452C35 43.8077 33.29 39.8527 30.275 37.0177L24.27 31.3727V31.3752ZM53.105 7.43769C49.8525 7.76269 47.5 10.7427 47.5 14.0127V28.6227C47.8775 29.0652 48.2325 29.5302 48.5425 30.0427C50.8075 33.8002 50.4025 38.7052 47.5975 42.1627L40.0025 49.7227V57.5027C40.0025 58.3827 39.8225 59.2177 39.5425 60.0027H46.2025C47.4625 60.0027 48.6775 59.5277 49.6025 58.6702L54.0775 54.2402C57.87 50.4852 60.005 45.3677 60.005 40.0277V13.6552C60.005 9.99019 56.8525 7.06269 53.11 7.43769H53.105ZM44.26 32.6227C42.38 29.5077 38.2475 29.0427 35.73 31.3777L33.65 33.3327L33.7 33.3802C36.5525 36.0627 38.5025 39.5402 39.4075 43.3002L43.645 39.0952C45.1325 37.2602 45.4775 34.6452 44.2575 32.6227H44.26ZM42.5075 6.87769C42.5075 12.2852 35.4575 19.0052 31.945 21.8227C30.8125 22.7302 29.2025 22.7302 28.07 21.8227C24.5575 19.0027 17.5075 12.2852 17.5075 6.87769C17.3425 3.25519 20.1375 0.182686 23.7575 0.00268555C27.3775 0.182686 30.1725 3.25519 30.0075 6.87769C29.8425 3.25519 32.6375 0.182686 36.2575 0.00268555C39.8775 0.182686 42.6725 3.25519 42.5075 6.87769Z" fill="white"/>
</svg>
