<svg fill="none" xmlns="http://www.w3.org/2000/svg" viewBox="50 50.88 757.1 134.5"> <g clip-path="url(#clip0_82_684)" filter="url(#filter0_f_82_684)"> <path d="M264.22 50.8862H295.701C296.231 50.8862 296.739 51.0968 297.114 51.4716C297.489 51.8465 297.699 52.3549 297.699 52.885V163.359C297.699 163.889 297.489 164.397 297.114 164.772C296.739 165.147 296.231 165.357 295.701 165.357H264.22C263.69 165.357 263.182 165.147 262.807 164.772C262.433 164.397 262.222 163.889 262.222 163.359V52.885C262.222 52.3549 262.433 51.8465 262.807 51.4716C263.182 51.0968 263.69 50.8862 264.22 50.8862Z" fill="#D5FFB3" fill-opacity="0.25"></path> <path d="M325.245 50.8862H355.209C355.533 50.8889 355.851 50.9704 356.137 51.1236C356.422 51.2768 356.666 51.4972 356.847 51.7656L395.68 108.851C395.919 109.207 396.266 109.477 396.67 109.62C397.074 109.764 397.513 109.773 397.922 109.648C398.332 109.522 398.691 109.268 398.945 108.923C399.2 108.578 399.336 108.161 399.335 107.732V52.885C399.335 52.3549 399.546 51.8465 399.921 51.4716C400.295 51.0968 400.803 50.8862 401.333 50.8862H430.657C431.187 50.8862 431.695 51.0968 432.07 51.4716C432.445 51.8465 432.655 52.3549 432.655 52.885V163.359C432.655 163.889 432.445 164.397 432.07 164.772C431.695 165.147 431.187 165.357 430.657 165.357H400.394C400.067 165.358 399.745 165.278 399.456 165.125C399.166 164.971 398.919 164.749 398.736 164.478L360.143 107.852C359.904 107.496 359.557 107.227 359.153 107.083C358.749 106.94 358.31 106.93 357.901 107.056C357.491 107.181 357.132 107.435 356.878 107.78C356.623 108.125 356.487 108.543 356.488 108.971V163.359C356.488 163.889 356.277 164.397 355.902 164.772C355.528 165.147 355.02 165.357 354.49 165.357H325.245C324.716 165.357 324.208 165.147 323.833 164.772C323.458 164.397 323.248 163.889 323.248 163.359V52.885C323.248 52.3549 323.458 51.8465 323.833 51.4716C324.208 51.0968 324.716 50.8862 325.245 50.8862Z" fill="#D5FFB3" fill-opacity="0.25"></path> <path d="M459.502 50.8862H490.924C491.454 50.8862 491.962 51.0968 492.337 51.4716C492.711 51.8465 492.922 52.3549 492.922 52.885V163.359C492.922 163.889 492.711 164.397 492.337 164.772C491.962 165.147 491.454 165.357 490.924 165.357H459.502C458.973 165.357 458.464 165.147 458.09 164.772C457.715 164.397 457.505 163.889 457.505 163.359V52.885C457.505 52.3549 457.715 51.8465 458.09 51.4716C458.464 51.0968 458.973 50.8862 459.502 50.8862Z" fill="#D5FFB3" fill-opacity="0.25"></path> <path d="M512.278 50.8862H615.732C616.262 50.8862 616.77 51.0968 617.145 51.4716C617.52 51.8465 617.73 52.3549 617.73 52.885V77.1504C617.73 77.6805 617.52 78.1889 617.145 78.5638C616.77 78.9386 616.262 79.1492 615.732 79.1492H583.771C583.242 79.1492 582.733 79.3598 582.359 79.7346C581.984 80.1095 581.774 80.6179 581.774 81.148V163.359C581.774 163.889 581.563 164.397 581.189 164.772C580.814 165.147 580.306 165.357 579.776 165.357H548.414C547.885 165.357 547.376 165.147 547.002 164.772C546.627 164.397 546.417 163.889 546.417 163.359V81.148C546.417 80.6179 546.206 80.1095 545.832 79.7346C545.457 79.3598 544.949 79.1492 544.419 79.1492H512.278C511.748 79.1492 511.24 78.9386 510.866 78.5638C510.491 78.1889 510.281 77.6805 510.281 77.1504V52.885C510.281 52.3549 510.491 51.8465 510.866 51.4716C511.24 51.0968 511.748 50.8862 512.278 50.8862Z" fill="#D5FFB3" fill-opacity="0.25"></path> <path d="M623.084 177.37H702.867V185.365H623.084C622.554 185.365 622.046 185.155 621.671 184.78C621.296 184.405 621.086 183.897 621.086 183.367V179.369C621.086 178.839 621.296 178.331 621.671 177.956C622.046 177.581 622.554 177.37 623.084 177.37Z" fill="#D5FFB3" fill-opacity="0.25"></path> <path d="M725.179 177.37H805.082C805.612 177.37 806.12 177.581 806.495 177.956C806.869 178.331 807.08 178.839 807.08 179.369V183.367C807.08 183.897 806.869 184.405 806.495 184.78C806.12 185.155 805.612 185.365 805.082 185.365H725.179V177.37Z" fill="#D5FFB3" fill-opacity="0.25"></path> <path d="M51.9976 177.37H131.781V185.365H51.9976C51.4678 185.365 50.9597 185.155 50.5851 184.78C50.2105 184.405 50 183.897 50 183.367V179.369C50 178.839 50.2105 178.331 50.5851 177.956C50.9597 177.581 51.4678 177.37 51.9976 177.37Z" fill="#D5FFB3" fill-opacity="0.25"></path> <path d="M154.133 177.37H233.896C234.426 177.37 234.934 177.581 235.309 177.956C235.684 178.331 235.894 178.839 235.894 179.369V183.367C235.894 183.897 235.684 184.405 235.309 184.78C234.934 185.155 234.426 185.365 233.896 185.365H154.133V177.37Z" fill="#D5FFB3" fill-opacity="0.25"></path> </g> <g clip-path="url(#clip1_82_684)"> <path d="M312.343 58.6788H284.876C284.281 58.6788 283.711 58.9152 283.29 59.336C282.87 59.7567 282.634 60.3273 282.634 60.9222V157.283C282.634 157.878 282.87 158.448 283.29 158.869C283.711 159.29 284.281 159.526 284.876 159.526H312.343C312.938 159.526 313.508 159.29 313.929 158.869C314.349 158.448 314.586 157.878 314.586 157.283V60.9222C314.586 60.3273 314.349 59.7567 313.929 59.336C313.508 58.9152 312.938 58.6788 312.343 58.6788Z" fill="#73BB3A" stroke="#454545"></path> <path d="M364.265 58.6788V58.6788C364.629 58.6819 364.986 58.7734 365.306 58.9454C365.626 59.1172 365.9 59.3642 366.104 59.6652C366.104 59.6655 366.104 59.6657 366.104 59.666L399.983 109.458L399.985 109.46C400.134 109.681 400.349 109.849 400.601 109.938C400.852 110.027 401.125 110.033 401.38 109.955C401.635 109.877 401.858 109.719 402.016 109.505L402.419 109.802L402.016 109.505C402.175 109.29 402.26 109.03 402.259 108.764V108.762V60.9222C402.259 60.3273 402.495 59.7567 402.916 59.336C402.916 59.336 402.916 59.336 402.916 59.336L403.27 59.6894C403.596 59.3625 404.04 59.1788 404.502 59.1788H430.086C430.548 59.1788 430.992 59.3625 431.318 59.6894C431.645 60.0164 431.829 60.4599 431.829 60.9222V157.283C431.829 157.745 431.645 158.188 431.318 158.515C430.992 158.842 430.548 159.026 430.086 159.026L364.265 58.6788ZM364.265 58.6788H364.261H338.119C337.524 58.6788 336.953 58.9152 336.533 59.336C336.112 59.7567 335.876 60.3273 335.876 60.9222V157.283C335.876 157.878 336.112 158.448 336.533 158.869C336.953 159.29 337.524 159.526 338.119 159.526H363.633C364.228 159.526 364.799 159.29 365.219 158.869C365.64 158.448 365.876 157.878 365.876 157.283L365.876 109.843L365.876 109.842C365.876 109.576 365.961 109.316 366.119 109.101C366.277 108.886 366.5 108.728 366.755 108.65C367.01 108.572 367.283 108.578 367.535 108.668C367.786 108.757 368.002 108.924 368.15 109.146L368.152 109.149L401.822 158.539L364.265 58.6788Z" fill="#73BB3A" stroke="#454545"></path> <path d="M482.666 58.6788H455.252C454.657 58.6788 454.087 58.9152 453.666 59.336C453.246 59.7567 453.009 60.3273 453.009 60.9222V157.283C453.009 157.878 453.246 158.448 453.666 158.869C454.087 159.29 454.657 159.526 455.252 159.526H482.666C483.261 159.526 483.832 159.29 484.252 158.869C484.673 158.448 484.909 157.878 484.909 157.283V60.9222C484.909 60.3273 484.673 59.7567 484.252 59.336C483.832 58.9152 483.261 58.6788 482.666 58.6788Z" fill="#73BB3A" stroke="#454545"></path> <path d="M593.142 59.336L593.142 59.336C592.722 58.9152 592.151 58.6788 591.556 58.6788H501.297C500.702 58.6788 500.131 58.9152 499.711 59.336C499.29 59.7567 499.054 60.3273 499.054 60.9222V82.0877C499.054 82.6826 499.29 83.2532 499.711 83.674C500.131 84.0947 500.702 84.3311 501.297 84.3311H529.338C529.668 84.3311 529.984 84.4621 530.217 84.6953C530.45 84.9285 530.581 85.2447 530.581 85.5746V157.283C530.581 157.878 530.817 158.448 531.238 158.869C531.659 159.29 532.229 159.526 532.824 159.526H560.186C560.781 159.526 561.351 159.29 561.772 158.869C562.192 158.448 562.429 157.878 562.429 157.283V85.5746C562.429 85.2448 562.56 84.9285 562.793 84.6953C563.026 84.4621 563.342 84.3311 563.671 84.3311H591.556C592.151 84.3311 592.722 84.0947 593.142 83.674L592.789 83.3205L593.142 83.674C593.563 83.2532 593.799 82.6826 593.799 82.0877V60.9222C593.799 60.3273 593.563 59.7567 593.142 59.336Z" fill="#73BB3A" stroke="#454545"></path> <path d="M668.077 169.504V169.004H667.577H597.97C597.375 169.004 596.804 169.241 596.384 169.661C595.963 170.082 595.727 170.653 595.727 171.248V174.734C595.727 175.329 595.963 175.9 596.384 176.321L596.727 175.978L596.384 176.321C596.804 176.742 597.375 176.978 597.97 176.978H667.577H668.077V176.478V169.504Z" fill="#73BB3A" stroke="#454545"></path> <path d="M758.342 169.661C757.921 169.241 757.351 169.004 756.756 169.004H687.044H686.544V169.504V176.478V176.978H687.044H756.756C757.351 176.978 757.921 176.742 758.342 176.321C758.762 175.9 758.999 175.329 758.999 174.734V171.248C758.999 170.653 758.762 170.082 758.342 169.661ZM758.342 169.661L757.988 170.015M758.342 169.661C758.342 169.661 758.342 169.661 758.342 169.661L757.988 170.015M757.988 170.015C758.315 170.342 758.499 170.785 758.499 171.248V174.734C758.499 175.197 758.315 175.64 757.988 175.967C757.661 176.294 757.218 176.478 756.756 176.478H687.544H687.044V175.978V170.004V169.504H687.544H756.756C757.218 169.504 757.661 169.688 757.988 170.015Z" fill="#73BB3A" stroke="#454545"></path> <path d="M169.829 169.504V169.004H169.329H99.7217C99.1268 169.004 98.5563 169.241 98.1357 169.661C97.7151 170.082 97.4789 170.653 97.4789 171.248V174.734C97.4789 175.329 97.7151 175.9 98.1357 176.321L98.4893 175.967L98.1357 176.321C98.5563 176.742 99.1268 176.978 99.7217 176.978H169.329H169.829V176.478V169.504Z" fill="#73BB3A" stroke="#454545"></path> <path d="M188.831 169.004H188.331V169.504V176.478V176.978H188.831H258.421C259.016 176.978 259.586 176.742 260.007 176.321C260.427 175.9 260.663 175.329 260.663 174.734V171.248C260.663 170.653 260.427 170.082 260.007 169.661C259.586 169.241 259.016 169.004 258.421 169.004H188.831Z" fill="#73BB3A" stroke="#454545"></path> </g> <defs> <filter id="filter0_f_82_684" x="0" y="0.886169" width="857" height="234.459" filterUnits="userSpaceOnUse" color-interpolation-filters="sRGB"> <feFlood flood-opacity="0" result="BackgroundImageFix"></feFlood> <feBlend mode="normal" in="SourceGraphic" in2="BackgroundImageFix" result="shape"></feBlend> <feGaussianBlur stdDeviation="25" result="effect1_foregroundBlur_82_684"></feGaussianBlur> </filter> <clipPath id="clip0_82_684"> <rect width="757" height="134.459" fill="white" transform="translate(50 50.8862)"></rect> </clipPath> <clipPath id="clip1_82_684"> <rect width="660.45" height="117.282" fill="white" transform="translate(97.9789 59.1788)"></rect> </clipPath> </defs> </svg>