<svg fill="none" xmlns="http://www.w3.org/2000/svg" viewBox="223.5 414.48 1107.71 420.34"> <g filter="url(#filter0_f_73_598)"> <path d="M1299.51 803.545L1110.92 764.418C1106.01 763.4 1103.56 762.891 1101.98 762.018C1098.49 760.077 1097.41 756.744 1099.12 753.125C1099.88 751.496 1101.58 749.65 1104.97 745.957L1115.92 734.018C1122.71 726.626 1120.24 718.981 1110.42 716.943V716.943C1100.6 714.905 1087.13 719.245 1080.35 726.637L1031.88 779.458C1025.09 786.85 1011.63 791.191 1001.81 789.153V789.153C991.985 787.114 989.52 779.47 996.304 772.078L1007.26 760.139C1010.65 756.446 1012.34 754.6 1013.11 752.972C1014.82 749.353 1013.74 746.02 1010.24 744.078C1008.67 743.205 1006.22 742.696 1001.31 741.678L831.95 706.541C827.043 705.523 824.589 705.014 823.015 704.141C819.516 702.2 818.442 698.867 820.148 695.248C820.916 693.619 822.61 691.773 825.999 688.08L836.955 676.141C843.738 668.749 841.274 661.104 831.45 659.066V659.066C821.627 657.028 808.164 661.368 801.381 668.76L752.909 721.581C746.126 728.973 732.663 733.314 722.84 731.275V731.275C713.016 729.237 710.552 721.593 717.335 714.201L728.291 702.261C731.68 698.568 733.374 696.722 734.142 695.094C735.848 691.475 734.774 688.142 731.275 686.201C729.701 685.327 727.247 684.818 722.34 683.8L552.982 648.663C548.075 647.645 545.621 647.136 544.047 646.263C540.548 644.322 539.474 640.989 541.18 637.37C541.947 635.742 543.642 633.895 547.03 630.203L557.987 618.263C564.77 610.871 562.306 603.226 552.482 601.188V601.188C542.658 599.15 529.196 603.49 522.413 610.882L473.941 663.704C467.158 671.096 453.695 675.436 443.872 673.398V673.398C434.048 671.36 431.583 663.715 438.367 656.323L449.323 644.384C452.711 640.691 454.405 638.845 455.173 637.217C456.879 633.598 455.805 630.265 452.306 628.323C450.732 627.45 448.278 626.941 443.371 625.923L254.782 586.797" stroke="url(#paint0_linear_73_598)" stroke-opacity="0.3" stroke-width="12.5066"></path> </g> <path d="M1299.92 792.993L1111.33 753.867C1106.43 752.849 1103.97 752.339 1102.4 751.466C1098.9 749.525 1097.83 746.192 1099.53 742.573C1100.3 740.945 1101.99 739.099 1105.38 735.406L1116.34 723.466C1123.12 716.074 1120.66 708.429 1110.83 706.391V706.391C1101.01 704.353 1087.55 708.694 1080.76 716.086L1032.29 768.907C1025.51 776.299 1012.05 780.639 1002.22 778.601V778.601C992.4 776.563 989.935 768.918 996.718 761.526L1007.67 749.587C1011.06 745.895 1012.76 744.048 1013.52 742.42C1015.23 738.801 1014.16 735.468 1010.66 733.527C1009.08 732.654 1006.63 732.145 1001.72 731.127L832.365 695.99C827.457 694.972 825.004 694.462 823.43 693.589C819.931 691.648 818.856 688.315 820.563 684.696C821.33 683.068 823.024 681.222 826.413 677.529L837.37 665.589C844.153 658.197 841.688 650.553 831.865 648.514V648.514C822.041 646.476 808.579 650.817 801.795 658.209L753.324 711.03C746.54 718.422 733.078 722.762 723.254 720.724V720.724C713.431 718.686 710.966 711.041 717.75 703.649L728.706 691.709C732.095 688.017 733.789 686.17 734.556 684.542C736.263 680.923 735.188 677.59 731.689 675.649C730.115 674.776 727.662 674.267 722.754 673.249L553.397 638.112C548.489 637.094 546.036 636.585 544.462 635.711C540.963 633.77 539.888 630.437 541.594 626.818C542.362 625.19 544.056 623.344 547.445 619.651L558.401 607.711C565.185 600.319 562.72 592.675 552.897 590.637V590.637C543.073 588.598 529.61 592.939 522.827 600.331L474.356 653.152C467.572 660.544 454.11 664.884 444.286 662.846V662.846C434.463 660.808 431.998 653.163 438.781 645.771L449.737 633.832C453.126 630.14 454.82 628.294 455.587 626.666C457.294 623.046 456.219 619.713 452.72 617.772C451.146 616.899 448.693 616.39 443.786 615.372L255.197 576.245" stroke="url(#paint1_linear_73_598)" stroke-width="12.5066"></path> <path d="M296.655 584.104L325.267 584.104" stroke="url(#paint2_linear_73_598)" stroke-width="1.83178" stroke-linecap="round"></path> <path d="M296.656 583.798L296.656 546.094" stroke="white" stroke-width="1.83178" stroke-linecap="round"></path> <circle cx="10.6854" cy="10.6854" r="10.6854" transform="matrix(-1 -2.15506e-08 -2.15506e-08 1 307.341 525.487)" fill="white"></circle> <path d="M501.755 623.617L530.366 623.617" stroke="url(#paint3_linear_73_598)" stroke-width="1.83178" stroke-linecap="round"></path> <path d="M501.755 623.312L501.755 585.608" stroke="white" stroke-width="1.83178" stroke-linecap="round"></path> <circle cx="10.6854" cy="10.6854" r="10.6854" transform="matrix(-1 -2.15506e-08 -2.15506e-08 1 512.44 565)" fill="white"></circle> <path d="M627.051 652.104L655.663 652.104" stroke="url(#paint4_linear_73_598)" stroke-width="1.83178" stroke-linecap="round"></path> <path d="M627.052 651.799L627.052 614.094" stroke="white" stroke-width="1.83178" stroke-linecap="round"></path> <circle cx="10.6854" cy="10.6854" r="10.6854" transform="matrix(-1 -2.15506e-08 -2.15506e-08 1 637.737 593.487)" fill="white"></circle> <path d="M778.051 683.617L806.663 683.617" stroke="url(#paint5_linear_73_598)" stroke-width="1.83178" stroke-linecap="round"></path> <path d="M778.052 683.312L778.052 645.608" stroke="white" stroke-width="1.83178" stroke-linecap="round"></path> <circle cx="10.6854" cy="10.6854" r="10.6854" transform="matrix(-1 -2.15506e-08 -2.15506e-08 1 788.737 625)" fill="white"></circle> <path d="M901.951 709.617L930.562 709.617" stroke="url(#paint6_linear_73_598)" stroke-width="1.83178" stroke-linecap="round"></path> <path d="M901.951 709.312L901.951 671.607" stroke="white" stroke-width="1.83178" stroke-linecap="round"></path> <circle cx="10.6854" cy="10.6854" r="10.6854" transform="matrix(-1 -2.15506e-08 -2.15506e-08 1 912.637 651)" fill="white"></circle> <path d="M1056.05 742.13L1084.66 742.13" stroke="url(#paint7_linear_73_598)" stroke-width="1.83178" stroke-linecap="round"></path> <path d="M1056.05 741.824L1056.05 704.12" stroke="white" stroke-width="1.83178" stroke-linecap="round"></path> <circle cx="10.6854" cy="10.6854" r="10.6854" transform="matrix(-1 -2.15506e-08 -2.15506e-08 1 1066.74 683.513)" fill="white"></circle> <path d="M1201.95 772.104L1230.56 772.104" stroke="url(#paint8_linear_73_598)" stroke-width="1.83178" stroke-linecap="round"></path> <path d="M1201.95 771.799L1201.95 734.094" stroke="white" stroke-width="1.83178" stroke-linecap="round"></path> <circle cx="10.6854" cy="10.6854" r="10.6854" transform="matrix(-1 -2.15506e-08 -2.15506e-08 1 1212.64 713.487)" fill="white"></circle> <g filter="url(#filter1_b_73_598)"> <rect x="237.266" y="415.487" width="118" height="92" rx="10" fill="white" fill-opacity="0.1"></rect> <rect x="238.266" y="416.487" width="116" height="90" rx="9" stroke="#6D6D6D" stroke-width="2"></rect> <path d="M261.326 445.782L271.166 445.782L271.166 447.302L261.326 447.302L261.326 445.782ZM261.006 449.202L271.546 449.202L271.546 450.782L261.006 450.782L261.006 449.202ZM267.366 446.262L269.046 446.262L269.046 455.102L267.366 455.102L267.366 446.262ZM263.346 446.342L264.986 446.342L264.986 450.062C264.986 451.322 264.466 453.942 262.286 455.422C262.026 455.082 261.446 454.562 261.046 454.302C262.926 453.162 263.346 451.122 263.346 450.062L263.346 446.342ZM258.906 440.482L264.266 440.482L264.266 441.762L258.906 441.762L258.906 440.482ZM268.146 440.482L273.546 440.482L273.546 441.762L268.146 441.762L268.146 440.482ZM272.806 437.722L274.666 437.722L274.666 453.162C274.666 454.202 274.466 454.762 273.806 455.082C273.146 455.402 272.146 455.442 270.606 455.422C270.546 454.922 270.286 454.042 270.026 453.542C271.046 453.582 272.066 453.582 272.386 453.562C272.706 453.562 272.806 453.442 272.806 453.142L272.806 437.722ZM259.066 437.722L265.446 437.722L265.446 444.622L259.066 444.622L259.066 443.222L263.666 443.222L263.666 439.122L259.066 439.122L259.066 437.722ZM273.746 437.722L273.746 439.122L268.806 439.122L268.806 443.262L273.746 443.262L273.746 444.662L267.006 444.662L267.006 437.722L273.746 437.722ZM257.946 437.722L259.806 437.722L259.806 455.482L257.946 455.482L257.946 437.722ZM286.566 452.942L293.526 452.942L293.526 454.622L286.566 454.622L286.566 452.942ZM285.386 447.222L294.466 447.222L294.466 455.442L292.666 455.442L292.666 448.902L287.126 448.902L287.126 455.462L285.386 455.462L285.386 447.222ZM290.906 440.522L292.406 439.782C293.806 441.522 295.186 443.842 295.786 445.422L294.146 446.282C293.606 444.682 292.226 442.262 290.906 440.522ZM285.006 445.822C284.906 445.442 284.606 444.522 284.386 444.042C284.806 443.942 285.186 443.482 285.666 442.762C286.186 442.062 287.746 439.422 288.666 436.902L290.646 437.442C289.426 440.162 287.826 442.902 286.326 444.782L286.326 444.822C286.326 444.822 285.006 445.442 285.006 445.822ZM285.006 445.822L284.966 444.322L286.046 443.682L294.366 443.142C294.446 443.662 294.606 444.402 294.746 444.802C286.686 445.462 285.686 445.562 285.006 445.822ZM277.406 447.842L278.466 446.582C280.586 448.222 283.526 450.602 284.866 452.162L283.686 453.642C282.386 452.042 279.546 449.562 277.406 447.842ZM277.406 447.842C278.266 445.122 279.266 440.482 279.626 437.002L281.366 437.122C280.926 440.762 279.886 445.462 279.026 448.362L277.406 447.842ZM282.226 439.742L283.926 439.742L283.926 442.182C283.926 446.042 283.426 451.542 278.086 455.442C277.826 455.062 277.206 454.462 276.806 454.182C281.806 450.622 282.226 445.622 282.226 442.182L282.226 439.742ZM276.886 441.402C278.926 441.322 281.926 441.162 284.866 441.022L284.846 442.622C282.086 442.822 279.186 442.982 277.086 443.122L276.886 441.402ZM307.466 444.642L313.826 444.642L313.826 446.162L307.466 446.162L307.466 444.642ZM306.566 437.802L313.786 437.802L313.786 439.482L308.306 439.482L308.306 455.442L306.566 455.442L306.566 437.802ZM312.826 437.802L314.586 437.802L314.586 441.622C314.586 442.482 314.406 442.982 313.726 443.242C313.026 443.502 312.006 443.522 310.486 443.522C310.406 443.022 310.166 442.342 309.926 441.882C311.066 441.922 312.126 441.922 312.426 441.902C312.746 441.882 312.826 441.822 312.826 441.602L312.826 437.802ZM309.666 445.562C310.706 449.142 312.846 452.382 315.786 453.822C315.366 454.182 314.806 454.862 314.506 455.342C311.466 453.582 309.366 450.022 308.206 445.942L309.666 445.562ZM313.266 444.642L313.586 444.642L313.906 444.562L315.066 444.982C314.286 449.402 312.306 453.322 309.086 455.502C308.806 455.082 308.246 454.542 307.826 454.222C310.806 452.302 312.666 448.682 313.266 445.022L313.266 444.642ZM297.706 438.842L305.426 438.842L305.426 440.442L297.706 440.442L297.706 438.842ZM297.106 449.962L305.926 449.962L305.926 451.562L297.106 451.562L297.106 449.962ZM297.126 442.162L305.906 442.162L305.906 443.782L297.126 443.782L297.126 442.162ZM297.566 446.402L305.526 446.402L305.526 448.022L297.566 448.022L297.566 446.402ZM300.746 436.942L302.506 436.942L302.506 442.762L300.746 442.762L300.746 436.942ZM300.746 447.062L302.506 447.062L302.506 455.402L300.746 455.402L300.746 447.062ZM303.386 443.702L305.006 444.122C304.426 445.242 303.806 446.462 303.266 447.282L301.886 446.882C302.426 446.022 303.066 444.662 303.386 443.702ZM298.386 444.162L299.786 443.742C300.206 444.482 300.606 445.462 300.746 446.082L299.266 446.562C299.166 445.922 298.786 444.922 298.386 444.162ZM323.706 452.942L333.046 452.942L333.046 454.682L323.706 454.682L323.706 452.942ZM322.866 438.902L330.106 438.902L330.106 440.582L322.866 440.582L322.866 438.902ZM323.606 436.822L325.746 437.242C324.146 439.982 321.746 442.682 318.226 444.782C317.946 444.322 317.306 443.642 316.886 443.302C320.186 441.522 322.446 439.002 323.606 436.822ZM329.486 438.902L329.846 438.902L330.186 438.802L331.466 439.482C329.086 445.602 323.586 449.642 317.906 451.522C317.686 451.002 317.206 450.222 316.806 449.822C322.146 448.282 327.506 444.382 329.486 439.222L329.486 438.902ZM320.326 442.822L321.726 441.602C323.226 442.642 325.106 444.162 326.006 445.262L324.466 446.622C323.666 445.522 321.826 443.902 320.326 442.822ZM332.146 446.722L334.106 446.722L334.106 455.502L332.146 455.502L332.146 446.722ZM324.526 446.722L333.106 446.722L333.106 448.442L324.526 448.442L324.526 455.462L322.626 455.462L322.626 448.162L324.106 446.722L324.526 446.722Z" fill="white"></path> <path d="M286.324 487.472C284.004 487.472 282.544 486.532 281.484 485.492L282.604 483.992C283.424 484.832 284.504 485.572 286.044 485.572C287.704 485.572 288.944 484.392 288.944 482.432C288.944 480.492 287.824 479.372 286.144 479.372C285.224 479.372 284.664 479.632 283.804 480.192L282.664 479.472L283.104 472.472L290.584 472.472L290.584 474.432L285.124 474.432L284.784 478.192C285.404 477.872 286.004 477.692 286.804 477.692C289.264 477.692 291.284 479.132 291.284 482.372C291.284 485.612 288.884 487.472 286.324 487.472ZM292.61 490.792L298.17 471.212L299.75 471.212L294.21 490.792L292.61 490.792ZM301.863 487.192L301.863 485.292L305.103 485.292L305.103 475.052L302.443 475.052L302.443 473.592C303.843 473.352 304.803 472.992 305.663 472.472L307.403 472.472L307.403 485.292L310.283 485.292L310.283 487.192L301.863 487.192Z" fill="white"></path> </g> <g filter="url(#filter2_b_73_598)"> <rect x="442.366" y="455" width="118" height="92" rx="10" fill="white" fill-opacity="0.1"></rect> <rect x="443.366" y="456" width="116" height="90" rx="9" stroke="#6D6D6D" stroke-width="2"></rect> <path d="M472.566 484.155L478.926 484.155L478.926 485.675L472.566 485.675L472.566 484.155ZM471.666 477.315L478.886 477.315L478.886 478.995L473.406 478.995L473.406 494.955L471.666 494.955L471.666 477.315ZM477.926 477.315L479.686 477.315L479.686 481.135C479.686 481.995 479.506 482.495 478.826 482.755C478.126 483.015 477.106 483.035 475.586 483.035C475.506 482.535 475.266 481.855 475.026 481.395C476.166 481.435 477.226 481.435 477.526 481.415C477.846 481.395 477.926 481.335 477.926 481.115L477.926 477.315ZM474.766 485.075C475.806 488.655 477.946 491.895 480.886 493.335C480.466 493.695 479.906 494.375 479.606 494.855C476.566 493.095 474.466 489.535 473.306 485.455L474.766 485.075ZM478.366 484.155L478.686 484.155L479.006 484.075L480.166 484.495C479.386 488.915 477.406 492.835 474.186 495.015C473.906 494.595 473.346 494.055 472.926 493.735C475.906 491.815 477.766 488.195 478.366 484.535L478.366 484.155ZM462.806 478.355L470.526 478.355L470.526 479.955L462.806 479.955L462.806 478.355ZM462.206 489.475L471.026 489.475L471.026 491.075L462.206 491.075L462.206 489.475ZM462.226 481.675L471.006 481.675L471.006 483.295L462.226 483.295L462.226 481.675ZM462.666 485.915L470.626 485.915L470.626 487.535L462.666 487.535L462.666 485.915ZM465.846 476.455L467.606 476.455L467.606 482.275L465.846 482.275L465.846 476.455ZM465.846 486.575L467.606 486.575L467.606 494.915L465.846 494.915L465.846 486.575ZM468.486 483.215L470.106 483.635C469.526 484.755 468.906 485.975 468.366 486.795L466.986 486.395C467.526 485.535 468.166 484.175 468.486 483.215ZM463.486 483.675L464.886 483.255C465.306 483.995 465.706 484.975 465.846 485.595L464.366 486.075C464.266 485.435 463.886 484.435 463.486 483.675ZM488.806 492.455L498.146 492.455L498.146 494.195L488.806 494.195L488.806 492.455ZM487.966 478.415L495.206 478.415L495.206 480.095L487.966 480.095L487.966 478.415ZM488.706 476.335L490.846 476.755C489.246 479.495 486.846 482.195 483.326 484.295C483.046 483.835 482.406 483.155 481.986 482.815C485.286 481.035 487.546 478.515 488.706 476.335ZM494.586 478.415L494.946 478.415L495.286 478.315L496.566 478.995C494.186 485.115 488.686 489.155 483.006 491.035C482.786 490.515 482.306 489.735 481.906 489.335C487.246 487.795 492.606 483.895 494.586 478.735L494.586 478.415ZM485.426 482.335L486.826 481.115C488.326 482.155 490.206 483.675 491.106 484.775L489.566 486.135C488.766 485.035 486.926 483.415 485.426 482.335ZM497.246 486.235L499.206 486.235L499.206 495.015L497.246 495.015L497.246 486.235ZM489.626 486.235L498.206 486.235L498.206 487.955L489.626 487.955L489.626 494.975L487.726 494.975L487.726 487.675L489.206 486.235L489.626 486.235ZM515.786 477.715L517.106 476.795C518.166 477.595 519.386 478.775 519.946 479.595L518.546 480.655C518.006 479.815 516.826 478.555 515.786 477.715ZM502.346 481.195L520.406 481.195L520.406 482.795L502.346 482.795L502.346 481.195ZM503.206 478.115L511.986 478.115L511.986 479.675L503.206 479.675L503.206 478.115ZM504.946 487.415L512.046 487.415L512.046 488.615L504.946 488.615L504.946 487.415ZM504.946 489.755L512.046 489.755L512.046 490.955L504.946 490.955L504.946 489.755ZM504.846 492.135L512.326 492.135L512.326 493.635L504.846 493.635L504.846 492.135ZM506.746 476.435L508.566 476.435L508.566 482.295L506.746 482.295L506.746 476.435ZM508.086 485.695L509.626 485.695L509.626 492.635L508.086 492.635L508.086 485.695ZM505.106 482.915L506.686 483.335C505.866 485.295 504.546 487.255 503.226 488.515C502.946 488.235 502.306 487.675 501.946 487.435C503.226 486.335 504.406 484.635 505.106 482.915ZM505.586 484.875L512.406 484.875L512.406 486.315L505.586 486.315L505.586 494.595L503.946 494.595L503.946 486.335L505.306 484.875L505.586 484.875ZM513.106 476.435L514.966 476.435C514.846 485.475 516.206 492.955 518.346 492.955C518.826 492.955 519.026 492.095 519.126 489.855C519.526 490.255 520.146 490.655 520.606 490.835C520.306 493.915 519.726 494.775 518.186 494.775C514.246 494.775 513.126 486.135 513.106 476.435ZM517.826 483.835L519.566 484.335C518.206 488.775 515.926 492.575 512.566 494.955C512.266 494.535 511.726 493.975 511.246 493.635C514.406 491.595 516.646 487.935 517.826 483.835ZM507.526 483.515L508.926 482.955C509.406 483.575 509.886 484.415 510.086 485.015L508.606 485.655C508.426 485.075 507.966 484.175 507.526 483.515ZM532.106 482.935L539.446 482.935L539.446 484.835L532.106 484.835L532.106 482.935ZM522.266 492.095L540.426 492.095L540.426 493.975L522.266 493.975L522.266 492.095ZM531.146 476.455L533.146 476.455L533.146 493.075L531.146 493.075L531.146 476.455ZM524.946 480.715L526.906 480.715L526.906 492.995L524.946 492.995L524.946 480.715Z" fill="white"></path> <path d="M485.72 526.985C483.4 526.985 481.94 526.045 480.88 525.005L482 523.505C482.82 524.345 483.9 525.085 485.44 525.085C487.1 525.085 488.34 523.905 488.34 521.945C488.34 520.005 487.22 518.885 485.54 518.885C484.62 518.885 484.06 519.145 483.2 519.705L482.06 518.985L482.5 511.985L489.98 511.985L489.98 513.945L484.52 513.945L484.18 517.705C484.8 517.385 485.4 517.205 486.2 517.205C488.66 517.205 490.68 518.645 490.68 521.885C490.68 525.125 488.28 526.985 485.72 526.985ZM492.007 530.305L497.567 510.725L499.147 510.725L493.607 530.305L492.007 530.305ZM500.42 526.705L500.42 525.365C504.78 521.525 507 518.665 507 516.245C507 514.665 506.16 513.565 504.52 513.565C503.36 513.565 502.4 514.285 501.62 515.185L500.3 513.925C501.58 512.545 502.88 511.725 504.8 511.725C507.5 511.725 509.24 513.465 509.24 516.145C509.24 518.965 506.96 521.905 503.84 524.905C504.6 524.825 505.54 524.745 506.26 524.745L509.94 524.745L509.94 526.705L500.42 526.705ZM514.806 526.705C515.066 521.345 516.006 517.905 518.866 513.945L511.946 513.945L511.946 511.985L521.406 511.985L521.406 513.385C517.966 517.705 517.426 520.965 517.166 526.705L514.806 526.705Z" fill="white"></path> </g> <g filter="url(#filter3_b_73_598)"> <rect x="568.366" y="483.487" width="118" height="92" rx="10" fill="white" fill-opacity="0.1"></rect> <rect x="569.366" y="484.487" width="116" height="90" rx="9" stroke="#6D6D6D" stroke-width="2"></rect> <path d="M589.046 506.302L605.806 506.302L605.806 508.142L589.046 508.142L589.046 506.302ZM597.826 513.082L604.926 513.082L604.926 514.942L597.826 514.942L597.826 513.082ZM588.326 520.802L606.426 520.802L606.426 522.642L588.326 522.642L588.326 520.802ZM596.926 507.022L598.906 507.022L598.906 521.702L596.926 521.702L596.926 507.022ZM590.946 511.582L592.906 511.582L592.906 521.782L590.946 521.782L590.946 511.582ZM617.646 507.582L624.786 507.582L624.786 509.422L617.646 509.422L617.646 507.582ZM608.266 506.102L618.186 506.102L618.186 507.862L608.266 507.862L608.266 506.102ZM610.746 510.202L615.766 510.202L615.766 511.902L610.746 511.902L610.746 510.202ZM610.746 514.362L615.766 514.362L615.766 516.062L610.746 516.062L610.746 514.362ZM624.246 507.582L624.586 507.582L624.926 507.522L626.146 507.842C625.266 515.862 622.406 520.662 618.006 523.262C617.726 522.782 617.186 522.062 616.766 521.702C620.726 519.642 623.486 514.842 624.246 508.002L624.246 507.582ZM619.706 509.502C620.726 515.022 622.966 519.622 626.966 521.722C626.546 522.082 625.946 522.802 625.646 523.302C621.366 520.802 619.146 516.022 617.886 509.842L619.706 509.502ZM609.746 506.802L611.546 506.802L611.546 519.822L609.746 519.822L609.746 506.802ZM615.006 506.802L616.826 506.802L616.826 523.442L615.006 523.442L615.006 506.802ZM607.826 519.202C609.806 518.962 612.806 518.562 615.686 518.122L615.786 519.862C613.106 520.322 610.266 520.762 608.186 521.082L607.826 519.202ZM639.406 516.362L641.246 515.522C642.866 517.702 644.766 520.542 645.726 522.362L643.806 523.402C642.906 521.542 640.986 518.542 639.406 516.362ZM633.506 505.442L635.586 506.102C634.126 509.402 631.846 512.702 629.646 514.782C629.286 514.362 628.446 513.562 627.966 513.202C630.166 511.362 632.266 508.422 633.506 505.442ZM630.526 522.622C630.406 522.202 630.046 521.142 629.766 520.582C630.366 520.422 630.906 519.822 631.686 518.902C632.526 518.002 635.086 514.482 636.726 511.102L638.906 512.022C636.926 515.542 634.426 519.042 632.006 521.482L632.006 521.522C632.006 521.522 630.526 522.202 630.526 522.622ZM630.526 522.622L630.466 521.002L631.786 520.282L643.446 519.562C643.546 520.142 643.746 520.942 643.866 521.382C632.706 522.202 631.426 522.262 630.526 522.622ZM639.426 505.402L641.646 505.402C642.566 508.422 644.506 511.362 646.926 512.902C646.486 513.302 645.786 514.162 645.466 514.742C642.946 512.842 640.926 509.622 639.866 506.482L639.426 506.482L639.426 505.402ZM636.686 505.402L640.986 505.402L640.986 507.342L636.686 507.342L636.686 505.402ZM648.546 512.182L666.206 512.182L666.206 513.942L648.546 513.942L648.546 512.182ZM651.826 507.662L664.846 507.662L664.846 509.402L651.826 509.402L651.826 507.662ZM651.966 520.782L663.006 520.782L663.006 522.542L651.966 522.542L651.966 520.782ZM656.826 504.902L658.826 504.902L658.826 513.242L656.826 513.242L656.826 504.902ZM650.946 515.702L664.046 515.702L664.046 523.562L662.046 523.562L662.046 517.442L652.866 517.442L652.866 523.602L650.946 523.602L650.946 515.702ZM652.086 505.022L653.966 505.482C653.126 507.942 651.726 510.362 650.346 511.922C649.966 511.622 649.086 511.122 648.626 510.902C650.086 509.502 651.346 507.242 652.086 505.022Z" fill="white"></path> <path d="M618.204 555.472C615.404 555.472 613.124 553.112 613.124 548.112C613.124 542.472 615.764 540.212 618.684 540.212C620.324 540.212 621.524 540.892 622.364 541.792L621.104 543.192C620.564 542.552 619.664 542.092 618.804 542.092C616.844 542.092 615.264 543.612 615.264 548.112C615.264 551.912 616.384 553.692 618.184 553.692C619.464 553.692 620.464 552.532 620.464 550.632C620.464 548.732 619.604 547.672 618.044 547.672C617.164 547.672 616.104 548.192 615.224 549.532L615.124 547.852C615.984 546.692 617.344 546.012 618.444 546.012C620.924 546.012 622.604 547.512 622.604 550.632C622.604 553.552 620.584 555.472 618.204 555.472ZM623.71 558.792L629.27 539.212L630.85 539.212L625.31 558.792L623.71 558.792ZM632.963 555.192L632.963 553.292L636.203 553.292L636.203 543.052L633.543 543.052L633.543 541.592C634.943 541.352 635.903 540.992 636.763 540.472L638.503 540.472L638.503 553.292L641.383 553.292L641.383 555.192L632.963 555.192Z" fill="white"></path> </g> <g filter="url(#filter4_b_73_598)"> <rect x="717.366" y="515" width="118" height="92" rx="10" fill="white" fill-opacity="0.1"></rect> <rect x="718.366" y="516" width="116" height="90" rx="9" stroke="#6D6D6D" stroke-width="2"></rect> <path d="M745.666 536.395L747.486 536.535C747.206 537.475 746.926 538.395 746.686 539.015L745.246 538.835C745.426 538.115 745.606 537.095 745.666 536.395ZM745.066 542.015L745.066 543.375L747.786 543.375L747.786 542.015L745.066 542.015ZM745.066 539.415L745.066 540.755L747.786 540.755L747.786 539.415L745.066 539.415ZM743.566 538.075L749.346 538.075L749.346 544.715L743.566 544.715L743.566 538.075ZM743.346 546.335L749.806 546.335L749.806 547.835L743.346 547.835L743.346 546.335ZM745.266 549.055L748.646 549.055L748.646 550.435L744.966 550.435L745.266 549.055ZM747.906 549.055L749.486 549.055C749.486 549.055 749.466 549.455 749.446 549.675C749.246 552.635 749.046 553.855 748.626 554.335C748.326 554.655 748.026 554.775 747.586 554.835C747.246 554.855 746.606 554.875 745.946 554.855C745.926 554.415 745.786 553.835 745.566 553.435C746.146 553.495 746.606 553.515 746.826 553.515C747.046 553.515 747.186 553.475 747.326 553.335C747.566 553.055 747.746 552.015 747.906 549.275L747.906 549.055ZM744.886 547.395L746.466 547.395C746.326 550.895 745.826 553.475 743.426 554.995C743.246 554.635 742.786 554.095 742.426 553.835C744.446 552.555 744.766 550.375 744.886 547.395ZM751.206 536.415L752.806 536.655C752.346 540.355 751.526 543.895 749.946 546.215C749.786 545.855 749.306 545.055 748.986 544.695C750.286 542.695 750.886 539.635 751.206 536.415ZM751.446 540.435L755.646 540.435L755.646 542.135L750.966 542.135L751.446 540.435ZM751.466 542.095C752.066 546.935 753.306 551.415 755.746 553.595C755.366 553.895 754.786 554.535 754.526 554.975C752.026 552.415 750.886 547.615 750.266 542.275L751.466 542.095ZM753.546 540.915L754.906 541.555C754.426 547.415 753.066 552.575 749.946 554.975C749.686 554.595 749.146 554.035 748.726 553.715C751.846 551.535 753.106 546.715 753.546 540.915ZM745.446 545.135L746.986 544.795C747.326 545.395 747.666 546.175 747.826 546.675L746.206 547.075C746.066 546.575 745.726 545.735 745.446 545.135ZM741.086 544.495L742.246 544.215C742.706 545.615 743.186 547.435 743.306 548.495L742.066 548.855C741.926 547.755 741.526 545.895 741.086 544.495ZM739.766 549.615L741.046 549.415C741.266 550.855 741.466 552.715 741.486 553.975L740.146 554.195C740.146 552.955 739.966 551.075 739.766 549.615ZM737.906 549.435L739.306 549.675C739.126 551.535 738.766 553.555 738.346 554.835C738.026 554.675 737.346 554.455 736.966 554.375C737.466 553.075 737.726 551.175 737.906 549.435ZM737.546 544.115C737.446 543.795 737.206 543.055 737.046 542.655C737.346 542.575 737.646 542.155 737.966 541.535C738.306 540.955 739.386 538.595 739.906 536.435L741.406 537.015C740.666 539.215 739.566 541.595 738.526 543.235L738.526 543.275C738.526 543.275 737.546 543.795 737.546 544.115ZM737.546 544.115L737.506 542.815L738.286 542.315L741.366 542.095C741.266 542.535 741.206 543.175 741.206 543.535C738.426 543.815 737.866 543.935 737.546 544.115ZM737.686 548.675C737.586 548.355 737.346 547.595 737.166 547.195C737.586 547.095 737.966 546.575 738.506 545.815C739.046 545.075 740.806 542.135 741.826 539.375L743.246 540.155C742.006 542.915 740.346 545.775 738.666 547.815L738.666 547.855C738.666 547.855 737.686 548.355 737.686 548.675ZM737.686 548.675L737.606 547.355L738.406 546.835L742.586 546.315C742.526 546.755 742.486 547.415 742.506 547.755C738.706 548.315 738.066 548.475 737.686 548.675ZM741.506 549.275L742.666 548.955C743.006 549.935 743.386 551.255 743.526 552.095L742.286 552.475C742.166 551.615 741.826 550.275 741.506 549.275ZM759.886 539.595L772.166 539.595L772.166 538.615L758.486 538.615L758.486 537.435L773.886 537.435L773.886 540.775L759.886 540.775L759.886 539.595ZM759.326 539.595L760.986 539.595C760.846 540.775 760.646 542.095 760.446 543.015L758.766 543.015C758.986 542.055 759.206 540.715 759.326 539.595ZM759.566 541.815L773.966 541.815L773.966 543.015L759.206 543.015L759.566 541.815ZM773.386 541.815L775.146 541.815C775.146 541.815 775.126 542.175 775.126 542.375C775.006 543.535 774.886 544.155 774.586 544.495C774.306 544.755 773.946 544.875 773.526 544.895C773.166 544.915 772.446 544.915 771.706 544.875C771.686 544.535 771.546 544.035 771.366 543.715C771.946 543.755 772.426 543.775 772.646 543.775C772.846 543.775 772.966 543.755 773.086 543.635C773.226 543.475 773.306 543.055 773.386 542.015L773.386 541.815ZM763.266 536.415L764.986 536.415L764.986 540.255C764.986 542.995 764.106 545.115 758.246 546.135C758.086 545.715 757.666 545.015 757.346 544.675C762.566 543.815 763.266 542.235 763.266 540.215L763.266 536.415ZM767.706 536.415L769.506 536.415L769.506 544.355L767.706 544.355L767.706 536.415ZM761.746 547.615L761.746 548.675L771.186 548.675L771.186 547.615L761.746 547.615ZM761.746 549.755L761.746 550.835L771.186 550.835L771.186 549.755L761.746 549.755ZM761.746 545.495L761.746 546.535L771.186 546.535L771.186 545.495L761.746 545.495ZM759.906 544.355L773.106 544.355L773.106 551.975L759.906 551.975L759.906 544.355ZM768.046 552.715L769.126 551.635C771.366 552.295 773.806 553.155 775.286 553.795L773.886 554.955C772.546 554.295 770.286 553.415 768.046 552.715ZM763.246 551.855L764.926 552.635C763.286 553.575 760.726 554.475 758.706 554.995C758.406 554.635 757.746 553.935 757.326 553.615C759.426 553.235 761.826 552.595 763.246 551.855ZM790.786 537.715L792.106 536.795C793.166 537.595 794.386 538.775 794.946 539.595L793.546 540.655C793.006 539.815 791.826 538.555 790.786 537.715ZM777.346 541.195L795.406 541.195L795.406 542.795L777.346 542.795L777.346 541.195ZM778.206 538.115L786.986 538.115L786.986 539.675L778.206 539.675L778.206 538.115ZM779.946 547.415L787.046 547.415L787.046 548.615L779.946 548.615L779.946 547.415ZM779.946 549.755L787.046 549.755L787.046 550.955L779.946 550.955L779.946 549.755ZM779.846 552.135L787.326 552.135L787.326 553.635L779.846 553.635L779.846 552.135ZM781.746 536.435L783.566 536.435L783.566 542.295L781.746 542.295L781.746 536.435ZM783.086 545.695L784.626 545.695L784.626 552.635L783.086 552.635L783.086 545.695ZM780.106 542.915L781.686 543.335C780.866 545.295 779.546 547.255 778.226 548.515C777.946 548.235 777.306 547.675 776.946 547.435C778.226 546.335 779.406 544.635 780.106 542.915ZM780.586 544.875L787.406 544.875L787.406 546.315L780.586 546.315L780.586 554.595L778.946 554.595L778.946 546.335L780.306 544.875L780.586 544.875ZM788.106 536.435L789.966 536.435C789.846 545.475 791.206 552.955 793.346 552.955C793.826 552.955 794.026 552.095 794.126 549.855C794.526 550.255 795.146 550.655 795.606 550.835C795.306 553.915 794.726 554.775 793.186 554.775C789.246 554.775 788.126 546.135 788.106 536.435ZM792.826 543.835L794.566 544.335C793.206 548.775 790.926 552.575 787.566 554.955C787.266 554.535 786.726 553.975 786.246 553.635C789.406 551.595 791.646 547.935 792.826 543.835ZM782.526 543.515L783.926 542.955C784.406 543.575 784.886 544.415 785.086 545.015L783.606 545.655C783.426 545.075 782.966 544.175 782.526 543.515ZM807.106 542.935L814.446 542.935L814.446 544.835L807.106 544.835L807.106 542.935ZM797.266 552.095L815.426 552.095L815.426 553.975L797.266 553.975L797.266 552.095ZM806.146 536.455L808.146 536.455L808.146 553.075L806.146 553.075L806.146 536.455ZM799.946 540.715L801.906 540.715L801.906 552.995L799.946 552.995L799.946 540.715Z" fill="white"></path> <path d="M761.5 586.985C758.7 586.985 756.42 584.625 756.42 579.625C756.42 573.985 759.06 571.725 761.98 571.725C763.62 571.725 764.82 572.405 765.66 573.305L764.4 574.705C763.86 574.065 762.96 573.605 762.1 573.605C760.14 573.605 758.56 575.125 758.56 579.625C758.56 583.425 759.68 585.205 761.48 585.205C762.76 585.205 763.76 584.045 763.76 582.145C763.76 580.245 762.9 579.185 761.34 579.185C760.46 579.185 759.4 579.705 758.52 581.045L758.42 579.365C759.28 578.205 760.64 577.525 761.74 577.525C764.22 577.525 765.9 579.025 765.9 582.145C765.9 585.065 763.88 586.985 761.5 586.985ZM767.007 590.305L772.567 570.725L774.147 570.725L768.607 590.305L767.007 590.305ZM776.26 586.705L776.26 584.805L779.5 584.805L779.5 574.565L776.84 574.565L776.84 573.105C778.24 572.865 779.2 572.505 780.06 571.985L781.8 571.985L781.8 584.805L784.68 584.805L784.68 586.705L776.26 586.705ZM786.826 586.705L786.826 585.365C791.186 581.525 793.406 578.665 793.406 576.245C793.406 574.665 792.566 573.565 790.926 573.565C789.766 573.565 788.806 574.285 788.026 575.185L786.706 573.925C787.986 572.545 789.286 571.725 791.206 571.725C793.906 571.725 795.646 573.465 795.646 576.145C795.646 578.965 793.366 581.905 790.246 584.905C791.006 584.825 791.946 584.745 792.666 584.745L796.346 584.745L796.346 586.705L786.826 586.705Z" fill="white"></path> </g> <g filter="url(#filter5_b_73_598)"> <rect x="843.366" y="511" width="118" height="122" rx="10" fill="white" fill-opacity="0.1"></rect> <rect x="844.366" y="512" width="116" height="120" rx="9" stroke="#6D6D6D" stroke-width="2"></rect> <path d="M853.726 533.615L871.066 533.615L871.066 536.815L869.266 536.815L869.266 535.095L855.446 535.095L855.446 536.815L853.726 536.815L853.726 533.615ZM858.526 535.415L860.286 535.415L860.286 540.655L858.526 540.655L858.526 535.415ZM864.446 535.415L866.226 535.415L866.226 540.655L864.446 540.655L864.446 535.415ZM855.626 536.195L869.106 536.195L869.106 537.295L855.626 537.295L855.626 536.195ZM855.906 538.055L868.926 538.055L868.926 539.095L855.906 539.095L855.906 538.055ZM853.546 539.835L871.246 539.835L871.246 541.195L853.546 541.195L853.546 539.835ZM858.826 540.195L860.226 540.775C858.846 542.515 856.386 544.115 854.086 544.875C853.826 544.475 853.326 543.835 852.946 543.515C855.186 542.895 857.606 541.635 858.826 540.195ZM866.126 540.115C867.286 541.475 869.586 542.655 871.786 543.195C871.386 543.535 870.866 544.195 870.606 544.635C868.366 543.915 866.046 542.355 864.746 540.655L866.126 540.115ZM858.426 544.775L858.426 545.555L866.246 545.555L866.246 544.775L858.426 544.775ZM858.426 546.535L858.426 547.355L866.246 547.355L866.246 546.535L858.426 546.535ZM858.426 543.035L858.426 543.815L866.246 543.815L866.246 543.035L858.426 543.035ZM856.686 542.035L868.066 542.035L868.066 548.335L856.686 548.335L856.686 542.035ZM863.486 549.035L864.686 548.015C866.886 548.595 869.346 549.335 870.846 549.855L869.286 550.915C867.946 550.395 865.726 549.655 863.486 549.035ZM859.666 547.995L861.146 548.955C859.526 549.835 856.826 550.595 854.646 550.955C854.386 550.635 853.886 550.055 853.546 549.735C855.726 549.395 858.406 548.655 859.666 547.995ZM861.126 532.715L863.006 532.215C863.366 532.775 863.746 533.575 863.886 534.075L861.926 534.655C861.806 534.135 861.466 533.315 861.126 532.715ZM873.346 535.495L891.366 535.495L891.366 537.235L873.346 537.235L873.346 535.495ZM875.546 542.095L880.966 542.095L880.966 543.535L875.546 543.535L875.546 542.095ZM875.546 545.235L880.966 545.235L880.966 546.675L875.546 546.675L875.546 545.235ZM884.246 539.035L886.006 539.035L886.006 547.235L884.246 547.235L884.246 539.035ZM880.306 538.835L882.126 538.835L882.126 548.995C882.126 549.855 881.946 550.335 881.346 550.615C880.746 550.895 879.846 550.915 878.546 550.915C878.446 550.435 878.166 549.735 877.926 549.275C878.806 549.315 879.686 549.315 879.946 549.295C880.226 549.295 880.306 549.215 880.306 548.955L880.306 538.835ZM888.286 538.455L890.146 538.455L890.146 548.795C890.146 549.795 889.946 550.295 889.246 550.595C888.566 550.875 887.526 550.935 886.006 550.915C885.906 550.415 885.606 549.615 885.326 549.115C886.466 549.155 887.526 549.155 887.866 549.135C888.186 549.135 888.286 549.055 888.286 548.775L888.286 538.455ZM876.306 533.035L878.086 532.395C878.826 533.215 879.666 534.355 880.026 535.115L878.126 535.795C877.826 535.055 877.046 533.875 876.306 533.035ZM886.586 532.335L888.626 532.975C887.846 534.235 886.946 535.575 886.226 536.475L884.526 535.875C885.246 534.935 886.106 533.435 886.586 532.335ZM874.666 538.835L876.366 538.835L876.366 543.555C876.366 545.835 876.126 548.995 874.646 551.015C874.366 550.715 873.626 550.155 873.226 549.935C874.526 548.095 874.666 545.515 874.666 543.535L874.666 538.835ZM875.766 538.835L881.186 538.835L881.186 540.355L875.766 540.355L875.766 538.835ZM894.406 534.595L910.386 534.595L910.386 536.555L894.406 536.555L894.406 534.595ZM893.326 547.615L911.446 547.615L911.446 549.515L893.326 549.515L893.326 547.615ZM901.226 535.635L903.366 535.635L903.366 548.395L901.226 548.395L901.226 535.635ZM922.146 535.735L931.686 535.735L931.686 537.535L921.266 537.535L922.146 535.735ZM924.706 540.095L931.206 540.095L931.206 541.815L924.706 541.815L924.706 540.095ZM924.686 544.515L931.466 544.515L931.466 546.295L924.686 546.295L924.686 544.515ZM923.746 536.335L925.686 536.335L925.686 550.975L923.746 550.975L923.746 536.335ZM922.786 532.635L924.606 533.115C923.486 536.315 921.726 539.535 919.886 541.615C919.586 541.275 918.846 540.595 918.426 540.295C920.226 538.455 921.826 535.555 922.786 532.635ZM917.766 532.495L919.586 533.075C918.286 536.475 916.206 539.995 914.026 542.235C913.846 541.795 913.286 540.735 912.946 540.275C914.866 538.395 916.686 535.455 917.766 532.495ZM915.686 537.815L917.566 535.915L917.586 535.935L917.586 550.955L915.686 550.955L915.686 537.815ZM944.366 532.695L946.146 532.275C946.506 533.235 946.966 534.495 947.146 535.255L945.286 535.775C945.126 534.995 944.726 533.675 944.366 532.695ZM939.706 535.855L951.606 535.855L951.606 537.675L939.706 537.675L939.706 535.855ZM943.806 540.515L949.266 540.515L949.266 542.275L943.806 542.275L943.806 540.515ZM948.706 540.515L950.606 540.515C950.606 540.515 950.586 541.095 950.566 541.355C950.326 547.095 950.086 549.275 949.446 550.015C949.026 550.555 948.586 550.715 947.886 550.775C947.286 550.835 946.206 550.855 945.086 550.795C945.066 550.235 944.826 549.455 944.486 548.935C945.586 549.015 946.606 549.035 947.046 549.035C947.406 549.035 947.606 548.995 947.826 548.775C948.266 548.315 948.506 546.235 948.706 540.835L948.706 540.515ZM933.346 537.355L939.786 537.355L939.786 539.155L933.346 539.155L933.346 537.355ZM935.746 532.735L937.586 532.735L937.586 546.075L935.746 546.075L935.746 532.735ZM932.986 546.115C934.746 545.555 937.406 544.615 939.946 543.675L940.306 545.435C937.926 546.375 935.386 547.335 933.426 548.075L932.986 546.115ZM942.886 536.895L944.786 536.895L944.786 540.355C944.786 543.735 944.126 547.975 939.506 550.995C939.186 550.595 938.546 550.035 938.066 549.695C942.346 546.875 942.886 543.135 942.886 540.315L942.886 536.895ZM887.426 571.295L897.266 571.295L897.266 572.815L887.426 572.815L887.426 571.295ZM887.106 574.715L897.646 574.715L897.646 576.295L887.106 576.295L887.106 574.715ZM893.466 571.775L895.146 571.775L895.146 580.615L893.466 580.615L893.466 571.775ZM889.446 571.855L891.086 571.855L891.086 575.575C891.086 576.835 890.566 579.455 888.386 580.935C888.126 580.595 887.546 580.075 887.146 579.815C889.026 578.675 889.446 576.635 889.446 575.575L889.446 571.855ZM885.006 565.995L890.366 565.995L890.366 567.275L885.006 567.275L885.006 565.995ZM894.246 565.995L899.646 565.995L899.646 567.275L894.246 567.275L894.246 565.995ZM898.906 563.235L900.766 563.235L900.766 578.675C900.766 579.715 900.566 580.275 899.906 580.595C899.246 580.915 898.246 580.955 896.706 580.935C896.646 580.435 896.386 579.555 896.126 579.055C897.146 579.095 898.166 579.095 898.486 579.075C898.806 579.075 898.906 578.955 898.906 578.655L898.906 563.235ZM885.166 563.235L891.546 563.235L891.546 570.135L885.166 570.135L885.166 568.735L889.766 568.735L889.766 564.635L885.166 564.635L885.166 563.235ZM899.846 563.235L899.846 564.635L894.906 564.635L894.906 568.775L899.846 568.775L899.846 570.175L893.106 570.175L893.106 563.235L899.846 563.235ZM884.046 563.235L885.906 563.235L885.906 580.995L884.046 580.995L884.046 563.235ZM912.666 578.455L919.626 578.455L919.626 580.135L912.666 580.135L912.666 578.455ZM911.486 572.735L920.566 572.735L920.566 580.955L918.766 580.955L918.766 574.415L913.226 574.415L913.226 580.975L911.486 580.975L911.486 572.735ZM917.006 566.035L918.506 565.295C919.906 567.035 921.286 569.355 921.886 570.935L920.246 571.795C919.706 570.195 918.326 567.775 917.006 566.035ZM911.106 571.335C911.006 570.955 910.706 570.035 910.486 569.555C910.906 569.455 911.286 568.995 911.766 568.275C912.286 567.575 913.846 564.935 914.766 562.415L916.746 562.955C915.526 565.675 913.926 568.415 912.426 570.295L912.426 570.335C912.426 570.335 911.106 570.955 911.106 571.335ZM911.106 571.335L911.066 569.835L912.146 569.195L920.466 568.655C920.546 569.175 920.706 569.915 920.846 570.315C912.786 570.975 911.786 571.075 911.106 571.335ZM903.506 573.355L904.566 572.095C906.686 573.735 909.626 576.115 910.966 577.675L909.786 579.155C908.486 577.555 905.646 575.075 903.506 573.355ZM903.506 573.355C904.366 570.635 905.366 565.995 905.726 562.515L907.466 562.635C907.026 566.275 905.986 570.975 905.126 573.875L903.506 573.355ZM908.326 565.255L910.026 565.255L910.026 567.695C910.026 571.555 909.526 577.055 904.186 580.955C903.926 580.575 903.306 579.975 902.906 579.695C907.906 576.135 908.326 571.135 908.326 567.695L908.326 565.255ZM902.986 566.915C905.026 566.835 908.026 566.675 910.966 566.535L910.946 568.135C908.186 568.335 905.286 568.495 903.186 568.635L902.986 566.915Z" fill="white"></path> <path d="M887.5 612.985C884.7 612.985 882.42 610.625 882.42 605.625C882.42 599.985 885.06 597.725 887.98 597.725C889.62 597.725 890.82 598.405 891.66 599.305L890.4 600.705C889.86 600.065 888.96 599.605 888.1 599.605C886.14 599.605 884.56 601.125 884.56 605.625C884.56 609.425 885.68 611.205 887.48 611.205C888.76 611.205 889.76 610.045 889.76 608.145C889.76 606.245 888.9 605.185 887.34 605.185C886.46 605.185 885.4 605.705 884.52 607.045L884.42 605.365C885.28 604.205 886.64 603.525 887.74 603.525C890.22 603.525 891.9 605.025 891.9 608.145C891.9 611.065 889.88 612.985 887.5 612.985ZM893.007 616.305L898.567 596.725L900.147 596.725L894.607 616.305L893.007 616.305ZM902.26 612.705L902.26 610.805L905.5 610.805L905.5 600.565L902.84 600.565L902.84 599.105C904.24 598.865 905.2 598.505 906.06 597.985L907.8 597.985L907.8 610.805L910.68 610.805L910.68 612.705L902.26 612.705ZM915.806 612.705C916.066 607.345 917.006 603.905 919.866 599.945L912.946 599.945L912.946 597.985L922.406 597.985L922.406 599.385C918.966 603.705 918.426 606.965 918.166 612.705L915.806 612.705Z" fill="white"></path> </g> <g filter="url(#filter6_b_73_598)"> <rect x="997.366" y="543" width="118" height="122" rx="10" fill="white" fill-opacity="0.1"></rect> <rect x="998.366" y="544" width="116" height="120" rx="9" stroke="#6D6D6D" stroke-width="2"></rect> <path d="M1007.73 565.615L1025.07 565.615L1025.07 568.815L1023.27 568.815L1023.27 567.095L1009.45 567.095L1009.45 568.815L1007.73 568.815L1007.73 565.615ZM1012.53 567.415L1014.29 567.415L1014.29 572.655L1012.53 572.655L1012.53 567.415ZM1018.45 567.415L1020.23 567.415L1020.23 572.655L1018.45 572.655L1018.45 567.415ZM1009.63 568.195L1023.11 568.195L1023.11 569.295L1009.63 569.295L1009.63 568.195ZM1009.91 570.055L1022.93 570.055L1022.93 571.095L1009.91 571.095L1009.91 570.055ZM1007.55 571.835L1025.25 571.835L1025.25 573.195L1007.55 573.195L1007.55 571.835ZM1012.83 572.195L1014.23 572.775C1012.85 574.515 1010.39 576.115 1008.09 576.875C1007.83 576.475 1007.33 575.835 1006.95 575.515C1009.19 574.895 1011.61 573.635 1012.83 572.195ZM1020.13 572.115C1021.29 573.475 1023.59 574.655 1025.79 575.195C1025.39 575.535 1024.87 576.195 1024.61 576.635C1022.37 575.915 1020.05 574.355 1018.75 572.655L1020.13 572.115ZM1012.43 576.775L1012.43 577.555L1020.25 577.555L1020.25 576.775L1012.43 576.775ZM1012.43 578.535L1012.43 579.355L1020.25 579.355L1020.25 578.535L1012.43 578.535ZM1012.43 575.035L1012.43 575.815L1020.25 575.815L1020.25 575.035L1012.43 575.035ZM1010.69 574.035L1022.07 574.035L1022.07 580.335L1010.69 580.335L1010.69 574.035ZM1017.49 581.035L1018.69 580.015C1020.89 580.595 1023.35 581.335 1024.85 581.855L1023.29 582.915C1021.95 582.395 1019.73 581.655 1017.49 581.035ZM1013.67 579.995L1015.15 580.955C1013.53 581.835 1010.83 582.595 1008.65 582.955C1008.39 582.635 1007.89 582.055 1007.55 581.735C1009.73 581.395 1012.41 580.655 1013.67 579.995ZM1015.13 564.715L1017.01 564.215C1017.37 564.775 1017.75 565.575 1017.89 566.075L1015.93 566.655C1015.81 566.135 1015.47 565.315 1015.13 564.715ZM1027.35 567.495L1045.37 567.495L1045.37 569.235L1027.35 569.235L1027.35 567.495ZM1029.55 574.095L1034.97 574.095L1034.97 575.535L1029.55 575.535L1029.55 574.095ZM1029.55 577.235L1034.97 577.235L1034.97 578.675L1029.55 578.675L1029.55 577.235ZM1038.25 571.035L1040.01 571.035L1040.01 579.235L1038.25 579.235L1038.25 571.035ZM1034.31 570.835L1036.13 570.835L1036.13 580.995C1036.13 581.855 1035.95 582.335 1035.35 582.615C1034.75 582.895 1033.85 582.915 1032.55 582.915C1032.45 582.435 1032.17 581.735 1031.93 581.275C1032.81 581.315 1033.69 581.315 1033.95 581.295C1034.23 581.295 1034.31 581.215 1034.31 580.955L1034.31 570.835ZM1042.29 570.455L1044.15 570.455L1044.15 580.795C1044.15 581.795 1043.95 582.295 1043.25 582.595C1042.57 582.875 1041.53 582.935 1040.01 582.915C1039.91 582.415 1039.61 581.615 1039.33 581.115C1040.47 581.155 1041.53 581.155 1041.87 581.135C1042.19 581.135 1042.29 581.055 1042.29 580.775L1042.29 570.455ZM1030.31 565.035L1032.09 564.395C1032.83 565.215 1033.67 566.355 1034.03 567.115L1032.13 567.795C1031.83 567.055 1031.05 565.875 1030.31 565.035ZM1040.59 564.335L1042.63 564.975C1041.85 566.235 1040.95 567.575 1040.23 568.475L1038.53 567.875C1039.25 566.935 1040.11 565.435 1040.59 564.335ZM1028.67 570.835L1030.37 570.835L1030.37 575.555C1030.37 577.835 1030.13 580.995 1028.65 583.015C1028.37 582.715 1027.63 582.155 1027.23 581.935C1028.53 580.095 1028.67 577.515 1028.67 575.535L1028.67 570.835ZM1029.77 570.835L1035.19 570.835L1035.19 572.355L1029.77 572.355L1029.77 570.835ZM1048.41 566.595L1064.39 566.595L1064.39 568.555L1048.41 568.555L1048.41 566.595ZM1047.33 579.615L1065.45 579.615L1065.45 581.515L1047.33 581.515L1047.33 579.615ZM1055.23 567.635L1057.37 567.635L1057.37 580.395L1055.23 580.395L1055.23 567.635ZM1076.15 567.735L1085.69 567.735L1085.69 569.535L1075.27 569.535L1076.15 567.735ZM1078.71 572.095L1085.21 572.095L1085.21 573.815L1078.71 573.815L1078.71 572.095ZM1078.69 576.515L1085.47 576.515L1085.47 578.295L1078.69 578.295L1078.69 576.515ZM1077.75 568.335L1079.69 568.335L1079.69 582.975L1077.75 582.975L1077.75 568.335ZM1076.79 564.635L1078.61 565.115C1077.49 568.315 1075.73 571.535 1073.89 573.615C1073.59 573.275 1072.85 572.595 1072.43 572.295C1074.23 570.455 1075.83 567.555 1076.79 564.635ZM1071.77 564.495L1073.59 565.075C1072.29 568.475 1070.21 571.995 1068.03 574.235C1067.85 573.795 1067.29 572.735 1066.95 572.275C1068.87 570.395 1070.69 567.455 1071.77 564.495ZM1069.69 569.815L1071.57 567.915L1071.59 567.935L1071.59 582.955L1069.69 582.955L1069.69 569.815ZM1098.37 564.695L1100.15 564.275C1100.51 565.235 1100.97 566.495 1101.15 567.255L1099.29 567.775C1099.13 566.995 1098.73 565.675 1098.37 564.695ZM1093.71 567.855L1105.61 567.855L1105.61 569.675L1093.71 569.675L1093.71 567.855ZM1097.81 572.515L1103.27 572.515L1103.27 574.275L1097.81 574.275L1097.81 572.515ZM1102.71 572.515L1104.61 572.515C1104.61 572.515 1104.59 573.095 1104.57 573.355C1104.33 579.095 1104.09 581.275 1103.45 582.015C1103.03 582.555 1102.59 582.715 1101.89 582.775C1101.29 582.835 1100.21 582.855 1099.09 582.795C1099.07 582.235 1098.83 581.455 1098.49 580.935C1099.59 581.015 1100.61 581.035 1101.05 581.035C1101.41 581.035 1101.61 580.995 1101.83 580.775C1102.27 580.315 1102.51 578.235 1102.71 572.835L1102.71 572.515ZM1087.35 569.355L1093.79 569.355L1093.79 571.155L1087.35 571.155L1087.35 569.355ZM1089.75 564.735L1091.59 564.735L1091.59 578.075L1089.75 578.075L1089.75 564.735ZM1086.99 578.115C1088.75 577.555 1091.41 576.615 1093.95 575.675L1094.31 577.435C1091.93 578.375 1089.39 579.335 1087.43 580.075L1086.99 578.115ZM1096.89 568.895L1098.79 568.895L1098.79 572.355C1098.79 575.735 1098.13 579.975 1093.51 582.995C1093.19 582.595 1092.55 582.035 1092.07 581.695C1096.35 578.875 1096.89 575.135 1096.89 572.315L1096.89 568.895ZM1044.73 596.995L1055.43 596.995L1055.43 598.755L1044.73 598.755L1044.73 596.995ZM1045.31 601.535L1054.91 601.535L1054.91 603.275L1045.31 603.275L1045.31 601.535ZM1046.73 610.395L1053.45 610.395L1053.45 612.115L1046.73 612.115L1046.73 610.395ZM1048.99 594.395L1050.91 594.395L1050.91 602.455L1048.99 602.455L1048.99 594.395ZM1045.71 605.135L1054.37 605.135L1054.37 612.895L1052.55 612.895L1052.55 606.835L1047.47 606.835L1047.47 612.975L1045.71 612.975L1045.71 605.135ZM1042.11 602.455L1043.51 602.055C1044.05 603.395 1044.61 605.155 1044.83 606.215L1043.35 606.735C1043.15 605.635 1042.63 603.835 1042.11 602.455ZM1040.19 607.655L1041.57 607.395C1041.85 608.835 1042.09 610.675 1042.17 611.915L1040.69 612.215C1040.65 610.975 1040.43 609.095 1040.19 607.655ZM1037.91 607.435L1039.45 607.695C1039.25 609.495 1038.89 611.435 1038.47 612.675C1038.13 612.495 1037.39 612.275 1036.99 612.155C1037.47 610.935 1037.73 609.095 1037.91 607.435ZM1037.55 602.115C1037.45 601.735 1037.17 600.915 1036.97 600.455C1037.35 600.355 1037.69 599.955 1038.11 599.355C1038.57 598.775 1039.95 596.495 1040.77 594.335L1042.47 595.055C1041.41 597.275 1039.99 599.575 1038.63 601.175L1038.63 601.195C1038.63 601.195 1037.55 601.755 1037.55 602.115ZM1037.55 602.115L1037.49 600.775L1038.31 600.275L1041.83 599.995C1041.75 600.435 1041.69 601.095 1041.67 601.475C1038.49 601.815 1037.91 601.935 1037.55 602.115ZM1037.69 606.675C1037.59 606.315 1037.31 605.455 1037.09 604.975C1037.57 604.875 1038.01 604.395 1038.65 603.675C1039.31 602.955 1041.43 600.155 1042.73 597.475L1044.31 598.435C1042.77 601.095 1040.75 603.815 1038.79 605.735L1038.79 605.775C1038.79 605.775 1037.69 606.335 1037.69 606.675ZM1037.69 606.675L1037.61 605.295L1038.47 604.735L1043.83 604.055C1043.75 604.515 1043.71 605.195 1043.73 605.575C1038.85 606.275 1038.13 606.455 1037.69 606.675ZM1042.27 607.255L1043.57 606.835C1044.05 608.075 1044.53 609.695 1044.75 610.755L1043.37 611.215C1043.19 610.155 1042.71 608.495 1042.27 607.255ZM1057.83 596.435L1074.93 596.435L1074.93 598.195L1057.83 598.195L1057.83 596.435ZM1065.35 594.435L1067.31 594.435L1067.31 612.975L1065.35 612.975L1065.35 594.435ZM1065.19 605.155L1066.79 605.855C1064.87 608.635 1061.53 611.115 1058.39 612.395C1058.09 611.935 1057.51 611.195 1057.07 610.815C1060.17 609.755 1063.49 607.495 1065.19 605.155ZM1067.61 605.235C1069.31 607.555 1072.63 609.735 1075.75 610.775C1075.29 611.175 1074.69 611.935 1074.39 612.435C1071.25 611.155 1067.97 608.675 1066.05 605.915L1067.61 605.235ZM1061.01 601.795L1061.01 604.495L1071.71 604.495L1071.71 601.795L1061.01 601.795ZM1059.19 600.115L1073.65 600.115L1073.65 606.175L1059.19 606.175L1059.19 600.115Z" fill="white"></path> <path d="M1041.5 644.985C1038.7 644.985 1036.42 642.625 1036.42 637.625C1036.42 631.985 1039.06 629.725 1041.98 629.725C1043.62 629.725 1044.82 630.405 1045.66 631.305L1044.4 632.705C1043.86 632.065 1042.96 631.605 1042.1 631.605C1040.14 631.605 1038.56 633.125 1038.56 637.625C1038.56 641.425 1039.68 643.205 1041.48 643.205C1042.76 643.205 1043.76 642.045 1043.76 640.145C1043.76 638.245 1042.9 637.185 1041.34 637.185C1040.46 637.185 1039.4 637.705 1038.52 639.045L1038.42 637.365C1039.28 636.205 1040.64 635.525 1041.74 635.525C1044.22 635.525 1045.9 637.025 1045.9 640.145C1045.9 643.065 1043.88 644.985 1041.5 644.985ZM1047.01 648.305L1052.57 628.725L1054.15 628.725L1048.61 648.305L1047.01 648.305ZM1055.42 644.705L1055.42 643.365C1059.78 639.525 1062 636.665 1062 634.245C1062 632.665 1061.16 631.565 1059.52 631.565C1058.36 631.565 1057.4 632.285 1056.62 633.185L1055.3 631.925C1056.58 630.545 1057.88 629.725 1059.8 629.725C1062.5 629.725 1064.24 631.465 1064.24 634.145C1064.24 636.965 1061.96 639.905 1058.84 642.905C1059.6 642.825 1060.54 642.745 1061.26 642.745L1064.94 642.745L1064.94 644.705L1055.42 644.705ZM1071.69 644.985C1068.91 644.985 1066.89 643.345 1066.89 641.065C1066.89 639.125 1068.15 637.805 1069.51 637.085L1069.51 637.005C1068.41 636.225 1067.53 635.105 1067.53 633.565C1067.53 631.265 1069.33 629.765 1071.75 629.765C1074.31 629.765 1075.89 631.345 1075.89 633.645C1075.89 635.165 1074.87 636.425 1073.97 637.125L1073.97 637.225C1075.29 637.965 1076.45 639.105 1076.45 641.125C1076.45 643.305 1074.53 644.985 1071.69 644.985ZM1072.65 636.545C1073.53 635.725 1073.97 634.785 1073.97 633.785C1073.97 632.445 1073.13 631.425 1071.71 631.425C1070.51 631.425 1069.61 632.245 1069.61 633.565C1069.61 635.145 1071.01 635.885 1072.65 636.545ZM1071.73 643.305C1073.23 643.305 1074.27 642.425 1074.27 641.045C1074.27 639.265 1072.65 638.585 1070.65 637.745C1069.63 638.465 1068.91 639.545 1068.91 640.825C1068.91 642.285 1070.13 643.305 1071.73 643.305Z" fill="white"></path> </g> <g filter="url(#filter7_b_73_598)"> <rect x="1143" y="573" width="118" height="122" rx="10" fill="white" fill-opacity="0.1"></rect> <rect x="1143" y="573" width="118" height="122" rx="10" stroke="#35EB93" stroke-width="2.5"></rect> <path d="M1172.22 611.575C1170.18 611.575 1168.32 610.775 1166.98 609.415L1168.34 607.795C1169.38 608.855 1170.84 609.535 1172.26 609.535C1174.02 609.535 1175.02 608.715 1175.02 607.455C1175.02 606.115 1174.02 605.695 1172.66 605.115L1170.62 604.215C1169.2 603.635 1167.64 602.515 1167.64 600.375C1167.64 598.055 1169.66 596.315 1172.46 596.315C1174.2 596.315 1175.82 597.035 1176.92 598.175L1175.72 599.635C1174.8 598.835 1173.76 598.335 1172.46 598.335C1170.96 598.335 1170 599.055 1170 600.215C1170 601.475 1171.18 601.955 1172.38 602.455L1174.4 603.295C1176.14 604.035 1177.4 605.115 1177.4 607.275C1177.4 609.635 1175.44 611.575 1172.22 611.575ZM1180.17 611.295L1180.17 596.575L1182.51 596.575L1182.51 611.295L1180.17 611.295ZM1189.34 611.295L1189.34 598.535L1185.02 598.535L1185.02 596.575L1196 596.575L1196 598.535L1191.68 598.535L1191.68 611.295L1189.34 611.295ZM1203.66 611.575C1199.98 611.575 1197.12 608.815 1197.12 603.975C1197.12 599.175 1200.06 596.315 1203.78 596.315C1205.62 596.315 1207.04 597.195 1207.94 598.155L1206.7 599.655C1205.94 598.875 1205.02 598.335 1203.82 598.335C1201.28 598.335 1199.52 600.455 1199.52 603.895C1199.52 607.395 1201.16 609.535 1203.76 609.535C1205.1 609.535 1206.14 608.935 1207 607.975L1208.26 609.435C1207.08 610.815 1205.58 611.575 1203.66 611.575ZM1215.69 611.575C1211.89 611.575 1209.27 608.635 1209.27 603.875C1209.27 599.135 1211.89 596.315 1215.69 596.315C1219.47 596.315 1222.09 599.135 1222.09 603.875C1222.09 608.635 1219.47 611.575 1215.69 611.575ZM1215.69 609.535C1218.13 609.535 1219.71 607.315 1219.71 603.875C1219.71 600.435 1218.13 598.335 1215.69 598.335C1213.23 598.335 1211.67 600.435 1211.67 603.875C1211.67 607.315 1213.23 609.535 1215.69 609.535ZM1225.15 611.295L1225.15 596.575L1227.53 596.575L1232.43 605.235L1233.97 608.335L1234.07 608.335C1233.93 606.835 1233.75 605.035 1233.75 603.455L1233.75 596.575L1235.97 596.575L1235.97 611.295L1233.57 611.295L1228.71 602.635L1227.17 599.535L1227.07 599.535C1227.17 601.075 1227.37 602.755 1227.37 604.375L1227.37 611.295L1225.15 611.295ZM1176.82 626.695L1176.82 630.815L1187.04 630.815L1187.04 626.695L1176.82 626.695ZM1175.02 625.135L1188.94 625.135L1188.94 632.375L1175.02 632.375L1175.02 625.135ZM1177.64 627.535L1178.84 627.115C1179.4 627.995 1179.92 629.155 1180.08 629.955L1178.78 630.435C1178.64 629.675 1178.16 628.455 1177.64 627.535ZM1174.68 633.715L1189.28 633.715L1189.28 635.235L1174.68 635.235L1174.68 633.715ZM1173.06 636.695L1190.94 636.695L1190.94 638.355L1173.06 638.355L1173.06 636.695ZM1181.02 625.775L1182.92 625.775L1182.92 637.555L1181.02 637.555L1181.02 625.775ZM1184.94 627.075L1186.38 627.595C1185.86 628.655 1185.26 629.835 1184.78 630.595L1183.58 630.115C1184.06 629.295 1184.64 627.975 1184.94 627.075ZM1178.66 639.535L1180.42 639.375C1180.66 640.435 1180.84 641.815 1180.84 642.635L1178.98 642.875C1178.98 642.015 1178.86 640.615 1178.66 639.535ZM1182.74 639.595L1184.52 639.235C1184.98 640.255 1185.46 641.595 1185.64 642.435L1183.74 642.875C1183.6 642.015 1183.16 640.655 1182.74 639.595ZM1186.76 639.495L1188.5 638.895C1189.44 639.935 1190.58 641.375 1191.1 642.355L1189.22 643.035C1188.76 642.095 1187.68 640.595 1186.76 639.495ZM1175.18 638.915L1177.02 639.375C1176.56 640.695 1175.74 642.135 1174.8 643.055L1173 642.275C1173.88 641.515 1174.72 640.175 1175.18 638.915ZM1199.54 628.055L1201.56 628.455C1200.14 630.495 1198.1 632.355 1195.1 633.775C1194.84 633.335 1194.26 632.695 1193.84 632.395C1196.64 631.235 1198.54 629.575 1199.54 628.055ZM1199.74 629.495L1206.28 629.495L1206.28 630.935L1198.42 630.935L1199.74 629.495ZM1205.72 629.495L1206.08 629.495L1206.42 629.395L1207.7 630.175C1205 634.455 1199.14 636.895 1193.54 637.975C1193.36 637.495 1192.96 636.715 1192.62 636.295C1197.9 635.435 1203.52 633.175 1205.72 629.775L1205.72 629.495ZM1198.92 630.595C1201.24 633.435 1206.02 635.215 1211.38 635.835C1210.96 636.275 1210.44 637.095 1210.18 637.635C1204.74 636.835 1200.02 634.775 1197.26 631.335L1198.92 630.595ZM1196.46 636.775L1207.68 636.775L1207.68 642.935L1205.74 642.935L1205.74 638.355L1198.32 638.355L1198.32 642.975L1196.46 642.975L1196.46 636.775ZM1197.52 640.755L1206.72 640.755L1206.72 642.335L1197.52 642.335L1197.52 640.755ZM1193.46 626.155L1210.52 626.155L1210.52 630.215L1208.6 630.215L1208.6 627.875L1195.32 627.875L1195.32 630.215L1193.46 630.215L1193.46 626.155ZM1200.44 624.675L1202.3 624.215C1202.82 625.015 1203.44 626.135 1203.74 626.855L1201.78 627.375C1201.52 626.675 1200.92 625.535 1200.44 624.675ZM1212.9 628.535L1219.9 628.535L1219.9 630.295L1212.9 630.295L1212.9 628.535ZM1215.72 624.415L1217.44 624.415L1217.44 642.975L1215.72 642.975L1215.72 624.415ZM1215.7 629.755L1216.76 630.175C1216.18 633.435 1214.88 637.375 1213.48 639.415C1213.28 638.875 1212.86 638.035 1212.52 637.535C1213.88 635.815 1215.14 632.475 1215.7 629.755ZM1217.36 631.035C1217.84 631.595 1219.56 634.135 1219.94 634.735L1218.82 636.055C1218.36 634.975 1217.06 632.615 1216.48 631.735L1217.36 631.035ZM1220.56 642.195C1220.48 641.815 1220.18 640.895 1219.96 640.395C1220.4 640.275 1220.76 639.655 1221.24 638.695C1221.76 637.775 1223.28 634.235 1224.12 630.935L1226.02 631.435C1224.96 634.975 1223.4 638.575 1221.9 641.115L1221.9 641.155C1221.9 641.155 1220.56 641.835 1220.56 642.195ZM1220.56 642.195L1220.5 640.675L1221.5 640.015L1229.26 639.115C1229.28 639.635 1229.42 640.375 1229.52 640.755C1222.14 641.755 1221.22 641.875 1220.56 642.195ZM1226.6 636.295L1228.22 635.655C1229.2 637.615 1230.44 640.275 1231.02 641.815L1229.28 642.655C1228.74 641.035 1227.56 638.335 1226.6 636.295ZM1222.42 625.115L1224.22 625.455C1223.62 628.775 1222.6 632.055 1221.12 634.175C1220.88 633.795 1220.22 633.035 1219.84 632.695C1221.16 630.875 1221.96 628.055 1222.42 625.115ZM1226.04 624.975L1227.98 624.975C1228.52 627.915 1229.66 630.955 1231.06 632.635C1230.64 632.955 1229.98 633.675 1229.64 634.135C1228.18 632.115 1227.04 628.915 1226.42 625.895L1226.04 625.895L1226.04 624.975ZM1224.78 624.975L1227.64 624.975L1227.64 626.575L1224.78 626.575L1224.78 624.975Z" fill="white"></path> <path d="M1165.04 674.705C1165.3 669.345 1166.24 665.905 1169.1 661.945L1162.18 661.945L1162.18 659.985L1171.64 659.985L1171.64 661.385C1168.2 665.705 1167.66 668.965 1167.4 674.705L1165.04 674.705ZM1172.85 678.305L1178.41 658.725L1179.99 658.725L1174.45 678.305L1172.85 678.305ZM1186.54 674.985C1183.74 674.985 1181.46 672.625 1181.46 667.625C1181.46 661.985 1184.1 659.725 1187.02 659.725C1188.66 659.725 1189.86 660.405 1190.7 661.305L1189.44 662.705C1188.9 662.065 1188 661.605 1187.14 661.605C1185.18 661.605 1183.6 663.125 1183.6 667.625C1183.6 671.425 1184.72 673.205 1186.52 673.205C1187.8 673.205 1188.8 672.045 1188.8 670.145C1188.8 668.245 1187.94 667.185 1186.38 667.185C1185.5 667.185 1184.44 667.705 1183.56 669.045L1183.46 667.365C1184.32 666.205 1185.68 665.525 1186.78 665.525C1189.26 665.525 1190.94 667.025 1190.94 670.145C1190.94 673.065 1188.92 674.985 1186.54 674.985ZM1203.94 669.045C1202.16 669.045 1201.26 667.205 1200 667.205C1199.36 667.205 1198.8 667.645 1198.3 668.565L1197.06 667.645C1197.96 666.125 1199.02 665.525 1200.04 665.525C1201.84 665.525 1202.74 667.365 1203.98 667.365C1204.62 667.365 1205.18 666.945 1205.68 666.025L1206.94 666.945C1206.02 668.445 1204.96 669.045 1203.94 669.045ZM1216.04 674.705C1216.3 669.345 1217.24 665.905 1220.1 661.945L1213.18 661.945L1213.18 659.985L1222.64 659.985L1222.64 661.385C1219.2 665.705 1218.66 668.965 1218.4 674.705L1216.04 674.705ZM1223.84 678.305L1229.4 658.725L1230.98 658.725L1225.44 678.305L1223.84 678.305ZM1235.23 674.705C1235.49 669.345 1236.43 665.905 1239.29 661.945L1232.37 661.945L1232.37 659.985L1241.83 659.985L1241.83 661.385C1238.39 665.705 1237.85 668.965 1237.59 674.705L1235.23 674.705Z" fill="white"></path> </g> <defs> <filter id="filter0_f_73_598" x="240.554" y="572.189" width="1073.18" height="245.963" filterUnits="userSpaceOnUse" color-interpolation-filters="sRGB"> <feFlood flood-opacity="0" result="BackgroundImageFix"></feFlood> <feBlend mode="normal" in="SourceGraphic" in2="BackgroundImageFix" result="shape"></feBlend> <feGaussianBlur stdDeviation="5" result="effect1_foregroundBlur_73_598"></feGaussianBlur> </filter> <filter id="filter1_b_73_598" x="169.07" y="347.29" width="254.393" height="228.393" filterUnits="userSpaceOnUse" color-interpolation-filters="sRGB"> <feFlood flood-opacity="0" result="BackgroundImageFix"></feFlood> <feGaussianBlur in="BackgroundImageFix" stdDeviation="34.0984"></feGaussianBlur> <feComposite in2="SourceAlpha" operator="in" result="effect1_backgroundBlur_73_598"></feComposite> <feBlend mode="normal" in="SourceGraphic" in2="effect1_backgroundBlur_73_598" result="shape"></feBlend> </filter> <filter id="filter2_b_73_598" x="374.169" y="386.803" width="254.393" height="228.393" filterUnits="userSpaceOnUse" color-interpolation-filters="sRGB"> <feFlood flood-opacity="0" result="BackgroundImageFix"></feFlood> <feGaussianBlur in="BackgroundImageFix" stdDeviation="34.0984"></feGaussianBlur> <feComposite in2="SourceAlpha" operator="in" result="effect1_backgroundBlur_73_598"></feComposite> <feBlend mode="normal" in="SourceGraphic" in2="effect1_backgroundBlur_73_598" result="shape"></feBlend> </filter> <filter id="filter3_b_73_598" x="498.669" y="415.29" width="257.393" height="228.393" filterUnits="userSpaceOnUse" color-interpolation-filters="sRGB"> <feFlood flood-opacity="0" result="BackgroundImageFix"></feFlood> <feGaussianBlur in="BackgroundImageFix" stdDeviation="34.0984"></feGaussianBlur> <feComposite in2="SourceAlpha" operator="in" result="effect1_backgroundBlur_73_598"></feComposite> <feBlend mode="normal" in="SourceGraphic" in2="effect1_backgroundBlur_73_598" result="shape"></feBlend> </filter> <filter id="filter4_b_73_598" x="647.669" y="446.803" width="257.393" height="228.393" filterUnits="userSpaceOnUse" color-interpolation-filters="sRGB"> <feFlood flood-opacity="0" result="BackgroundImageFix"></feFlood> <feGaussianBlur in="BackgroundImageFix" stdDeviation="34.0984"></feGaussianBlur> <feComposite in2="SourceAlpha" operator="in" result="effect1_backgroundBlur_73_598"></feComposite> <feBlend mode="normal" in="SourceGraphic" in2="effect1_backgroundBlur_73_598" result="shape"></feBlend> </filter> <filter id="filter5_b_73_598" x="775.169" y="442.803" width="254.393" height="258.393" filterUnits="userSpaceOnUse" color-interpolation-filters="sRGB"> <feFlood flood-opacity="0" result="BackgroundImageFix"></feFlood> <feGaussianBlur in="BackgroundImageFix" stdDeviation="34.0984"></feGaussianBlur> <feComposite in2="SourceAlpha" operator="in" result="effect1_backgroundBlur_73_598"></feComposite> <feBlend mode="normal" in="SourceGraphic" in2="effect1_backgroundBlur_73_598" result="shape"></feBlend> </filter> <filter id="filter6_b_73_598" x="929.169" y="474.803" width="254.393" height="258.393" filterUnits="userSpaceOnUse" color-interpolation-filters="sRGB"> <feFlood flood-opacity="0" result="BackgroundImageFix"></feFlood> <feGaussianBlur in="BackgroundImageFix" stdDeviation="34.0984"></feGaussianBlur> <feComposite in2="SourceAlpha" operator="in" result="effect1_backgroundBlur_73_598"></feComposite> <feBlend mode="normal" in="SourceGraphic" in2="effect1_backgroundBlur_73_598" result="shape"></feBlend> </filter> <filter id="filter7_b_73_598" x="1073.55" y="503.553" width="256.893" height="260.893" filterUnits="userSpaceOnUse" color-interpolation-filters="sRGB"> <feFlood flood-opacity="0" result="BackgroundImageFix"></feFlood> <feGaussianBlur in="BackgroundImageFix" stdDeviation="34.0984"></feGaussianBlur> <feComposite in2="SourceAlpha" operator="in" result="effect1_backgroundBlur_73_598"></feComposite> <feBlend mode="normal" in="SourceGraphic" in2="effect1_backgroundBlur_73_598" result="shape"></feBlend> </filter> <linearGradient id="paint0_linear_73_598" x1="1299.51" y1="803.545" x2="624.39" y2="184.021" gradientUnits="userSpaceOnUse"> <stop stop-color="#73BB3A"></stop> <stop offset="0.264" stop-color="#35EB93"></stop> <stop offset="0.534" stop-color="#3D3393"></stop> <stop offset="0.753141" stop-color="#2CACD1"></stop> <stop offset="0.994" stop-color="#2B76B9"></stop> </linearGradient> <linearGradient id="paint1_linear_73_598" x1="1299.92" y1="792.994" x2="624.805" y2="173.47" gradientUnits="userSpaceOnUse"> <stop stop-color="#73BB3A"></stop> <stop offset="0.264" stop-color="#35EB93"></stop> <stop offset="0.534" stop-color="#3D3393"></stop> <stop offset="0.753141" stop-color="#2CACD1"></stop> <stop offset="0.994" stop-color="#2B76B9"></stop> </linearGradient> <linearGradient id="paint2_linear_73_598" x1="296.35" y1="585.104" x2="318.397" y2="585.104" gradientUnits="userSpaceOnUse"> <stop stop-opacity="0.2"></stop> <stop offset="1" stop-opacity="0"></stop> </linearGradient> <linearGradient id="paint3_linear_73_598" x1="501.45" y1="624.617" x2="523.497" y2="624.617" gradientUnits="userSpaceOnUse"> <stop stop-opacity="0.2"></stop> <stop offset="1" stop-opacity="0"></stop> </linearGradient> <linearGradient id="paint4_linear_73_598" x1="626.746" y1="653.104" x2="648.793" y2="653.104" gradientUnits="userSpaceOnUse"> <stop stop-opacity="0.2"></stop> <stop offset="1" stop-opacity="0"></stop> </linearGradient> <linearGradient id="paint5_linear_73_598" x1="777.746" y1="684.617" x2="799.793" y2="684.617" gradientUnits="userSpaceOnUse"> <stop stop-opacity="0.2"></stop> <stop offset="1" stop-opacity="0"></stop> </linearGradient> <linearGradient id="paint6_linear_73_598" x1="901.646" y1="710.617" x2="923.693" y2="710.617" gradientUnits="userSpaceOnUse"> <stop stop-opacity="0.2"></stop> <stop offset="1" stop-opacity="0"></stop> </linearGradient> <linearGradient id="paint7_linear_73_598" x1="1055.75" y1="743.13" x2="1077.79" y2="743.13" gradientUnits="userSpaceOnUse"> <stop stop-opacity="0.2"></stop> <stop offset="1" stop-opacity="0"></stop> </linearGradient> <linearGradient id="paint8_linear_73_598" x1="1201.65" y1="773.104" x2="1223.69" y2="773.104" gradientUnits="userSpaceOnUse"> <stop stop-opacity="0.2"></stop> <stop offset="1" stop-opacity="0"></stop> </linearGradient> </defs> </svg>