<svg width="1273" height="1134" viewBox="0 0 1273 1134" fill="none" xmlns="http://www.w3.org/2000/svg">
<g filter="url(#filter0_f_73_598)">
<path d="M1148.24 477.348L959.654 516.475C954.747 517.493 952.293 518.002 950.719 518.875C947.22 520.816 946.146 524.149 947.852 527.768C948.62 529.396 950.314 531.243 953.703 534.935L964.659 546.875C971.443 554.267 968.978 561.912 959.154 563.95V563.95C949.331 565.988 935.868 561.648 929.085 554.256L880.613 501.434C873.83 494.042 860.368 489.702 850.544 491.74V491.74C840.72 493.778 838.256 501.423 845.039 508.815L855.995 520.754C859.384 524.447 861.078 526.293 861.845 527.921C863.552 531.54 862.477 534.873 858.978 536.814C857.404 537.688 854.951 538.197 850.044 539.215L680.686 574.352C675.778 575.37 673.325 575.879 671.751 576.752C668.252 578.693 667.177 582.026 668.883 585.645C669.651 587.273 671.345 589.12 674.734 592.812L685.69 604.752C692.474 612.144 690.009 619.789 680.186 621.827V621.827C670.362 623.865 656.899 619.525 650.116 612.133L601.645 559.312C594.861 551.919 581.399 547.579 571.575 549.617V549.617C561.752 551.655 559.287 559.3 566.07 566.692L577.027 578.632C580.415 582.324 582.11 584.171 582.877 585.799C584.584 589.418 583.509 592.751 580.01 594.692C578.436 595.565 575.982 596.074 571.075 597.093L401.717 632.229C396.81 633.248 394.356 633.757 392.782 634.63C389.283 636.571 388.209 639.904 389.915 643.523C390.683 645.151 392.377 646.998 395.766 650.69L406.722 662.63C413.506 670.022 411.041 677.667 401.217 679.705V679.705C391.394 681.743 377.931 677.403 371.148 670.01L322.676 617.189C315.893 609.797 302.431 605.457 292.607 607.495V607.495C282.783 609.533 280.319 617.178 287.102 624.57L298.058 636.509C301.447 640.201 303.141 642.048 303.908 643.676C305.615 647.295 304.54 650.628 301.041 652.569C299.467 653.442 297.014 653.951 292.107 654.97L103.518 694.096" stroke="url(#paint0_linear_73_598)" stroke-opacity="0.3" stroke-width="12.5066"/>
</g>
<path d="M1148.66 466.66L960.069 505.787C955.162 506.805 952.708 507.314 951.134 508.188C947.635 510.129 946.561 513.462 948.267 517.081C949.034 518.709 950.729 520.555 954.117 524.248L965.074 536.188C971.857 543.58 969.393 551.224 959.569 553.262V553.262C949.745 555.301 936.283 550.96 929.5 543.568L881.028 490.747C874.245 483.355 860.782 479.015 850.959 481.053V481.053C841.135 483.091 838.67 490.736 845.454 498.128L856.41 510.067C859.798 513.759 861.492 515.605 862.26 517.233C863.966 520.853 862.892 524.186 859.393 526.127C857.819 527 855.365 527.509 850.458 528.527L681.1 563.664C676.193 564.682 673.739 565.191 672.165 566.065C668.666 568.006 667.592 571.339 669.298 574.958C670.066 576.586 671.76 578.432 675.148 582.125L686.105 594.065C692.888 601.457 690.424 609.101 680.6 611.139V611.139C670.777 613.178 657.314 608.837 650.531 601.445L602.059 548.624C595.276 541.232 581.813 536.892 571.99 538.93V538.93C562.166 540.968 559.702 548.613 566.485 556.005L577.441 567.944C580.83 571.637 582.524 573.483 583.292 575.111C584.998 578.731 583.924 582.064 580.425 584.005C578.851 584.878 576.397 585.387 571.49 586.405L402.132 621.542C397.225 622.56 394.771 623.069 393.197 623.942C389.698 625.884 388.624 629.216 390.33 632.836C391.097 634.464 392.792 636.31 396.18 640.003L407.137 651.942C413.92 659.335 411.456 666.979 401.632 669.017V669.017C391.808 671.055 378.346 666.715 371.562 659.323L323.091 606.502C316.308 599.11 302.845 594.77 293.022 596.808V596.808C283.198 598.846 280.733 606.491 287.517 613.883L298.473 625.822C301.861 629.514 303.555 631.36 304.323 632.988C306.029 636.608 304.955 639.941 301.456 641.882C299.882 642.755 297.428 643.264 292.521 644.282L103.932 683.409" stroke="url(#paint1_linear_73_598)" stroke-width="12.5066"/>
<path d="M145.39 674.995L174.001 674.995" stroke="url(#paint2_linear_73_598)" stroke-width="1.83178" stroke-linecap="round"/>
<path d="M145.39 674.69L145.39 636.986" stroke="white" stroke-width="1.83178" stroke-linecap="round"/>
<circle cx="10.6854" cy="10.6854" r="10.6854" transform="matrix(-1 -2.15506e-08 -2.15506e-08 1 156.075 616.379)" fill="white"/>
<path d="M305.389 638.996L334 638.996" stroke="url(#paint3_linear_73_598)" stroke-width="1.83178" stroke-linecap="round"/>
<path d="M305.389 638.69L305.389 600.986" stroke="white" stroke-width="1.83178" stroke-linecap="round"/>
<circle cx="10.6854" cy="10.6854" r="10.6854" transform="matrix(-1 -2.15506e-08 -2.15506e-08 1 316.074 580.379)" fill="white"/>
<path d="M425.685 615.996L454.296 615.996" stroke="url(#paint4_linear_73_598)" stroke-width="1.83178" stroke-linecap="round"/>
<path d="M425.685 615.69L425.685 577.986" stroke="white" stroke-width="1.83178" stroke-linecap="round"/>
<circle cx="10.6854" cy="10.6854" r="10.6854" transform="matrix(-1 -2.15506e-08 -2.15506e-08 1 436.371 557.379)" fill="white"/>
<path d="M557.685 587.996L586.296 587.996" stroke="url(#paint5_linear_73_598)" stroke-width="1.83178" stroke-linecap="round"/>
<path d="M557.685 587.691L557.685 549.986" stroke="white" stroke-width="1.83178" stroke-linecap="round"/>
<circle cx="10.6854" cy="10.6854" r="10.6854" transform="matrix(-1 -2.15506e-08 -2.15506e-08 1 568.371 529.379)" fill="white"/>
<path d="M680.686 562.996L709.297 562.996" stroke="url(#paint6_linear_73_598)" stroke-width="1.83178" stroke-linecap="round"/>
<path d="M680.686 562.69L680.686 524.986" stroke="white" stroke-width="1.83178" stroke-linecap="round"/>
<circle cx="10.6854" cy="10.6854" r="10.6854" transform="matrix(-1 -2.15506e-08 -2.15506e-08 1 691.371 504.379)" fill="white"/>
<path d="M906.685 519.996L935.296 519.996" stroke="url(#paint7_linear_73_598)" stroke-width="1.83178" stroke-linecap="round"/>
<path d="M906.685 519.69L906.685 481.986" stroke="white" stroke-width="1.83178" stroke-linecap="round"/>
<circle cx="10.6854" cy="10.6854" r="10.6854" transform="matrix(-1 -2.15506e-08 -2.15506e-08 1 917.371 461.379)" fill="white"/>
<path d="M1070.69 481.996L1099.3 481.996" stroke="url(#paint8_linear_73_598)" stroke-width="1.83178" stroke-linecap="round"/>
<path d="M1070.69 481.69L1070.69 443.986" stroke="white" stroke-width="1.83178" stroke-linecap="round"/>
<circle cx="10.6854" cy="10.6854" r="10.6854" transform="matrix(-1 -2.15506e-08 -2.15506e-08 1 1081.37 423.379)" fill="white"/>
<g filter="url(#filter1_b_73_598)">
<rect x="86.0002" y="506.379" width="118" height="92" rx="10" fill="white" fill-opacity="0.1"/>
<rect x="87.0002" y="507.379" width="116" height="90" rx="9" stroke="#6D6D6D" stroke-width="2"/>
<path d="M110.06 536.674L119.9 536.674L119.9 538.194L110.06 538.194L110.06 536.674ZM109.74 540.094L120.28 540.094L120.28 541.674L109.74 541.674L109.74 540.094ZM116.1 537.154L117.78 537.154L117.78 545.994L116.1 545.994L116.1 537.154ZM112.08 537.234L113.72 537.234L113.72 540.954C113.72 542.214 113.2 544.834 111.02 546.314C110.76 545.974 110.18 545.454 109.78 545.194C111.66 544.054 112.08 542.014 112.08 540.954L112.08 537.234ZM107.64 531.374L113 531.374L113 532.654L107.64 532.654L107.64 531.374ZM116.88 531.374L122.28 531.374L122.28 532.654L116.88 532.654L116.88 531.374ZM121.54 528.614L123.4 528.614L123.4 544.054C123.4 545.094 123.2 545.654 122.54 545.974C121.88 546.294 120.88 546.334 119.34 546.314C119.28 545.814 119.02 544.934 118.76 544.434C119.78 544.474 120.8 544.474 121.12 544.454C121.44 544.454 121.54 544.334 121.54 544.034L121.54 528.614ZM107.8 528.614L114.18 528.614L114.18 535.514L107.8 535.514L107.8 534.114L112.4 534.114L112.4 530.014L107.8 530.014L107.8 528.614ZM122.48 528.614L122.48 530.014L117.54 530.014L117.54 534.154L122.48 534.154L122.48 535.554L115.74 535.554L115.74 528.614L122.48 528.614ZM106.68 528.614L108.54 528.614L108.54 546.374L106.68 546.374L106.68 528.614ZM135.3 543.834L142.26 543.834L142.26 545.514L135.3 545.514L135.3 543.834ZM134.12 538.114L143.2 538.114L143.2 546.334L141.4 546.334L141.4 539.794L135.86 539.794L135.86 546.354L134.12 546.354L134.12 538.114ZM139.64 531.414L141.14 530.674C142.54 532.414 143.92 534.734 144.52 536.314L142.88 537.174C142.34 535.574 140.96 533.154 139.64 531.414ZM133.74 536.714C133.64 536.334 133.34 535.414 133.12 534.934C133.54 534.834 133.92 534.374 134.4 533.654C134.92 532.954 136.48 530.314 137.4 527.794L139.38 528.334C138.16 531.054 136.56 533.794 135.06 535.674L135.06 535.714C135.06 535.714 133.74 536.334 133.74 536.714ZM133.74 536.714L133.7 535.214L134.78 534.574L143.1 534.034C143.18 534.554 143.34 535.294 143.48 535.694C135.42 536.354 134.42 536.454 133.74 536.714ZM126.14 538.734L127.2 537.474C129.32 539.114 132.26 541.494 133.6 543.054L132.42 544.534C131.12 542.934 128.28 540.454 126.14 538.734ZM126.14 538.734C127 536.014 128 531.374 128.36 527.894L130.1 528.014C129.66 531.654 128.62 536.354 127.76 539.254L126.14 538.734ZM130.96 530.634L132.66 530.634L132.66 533.074C132.66 536.934 132.16 542.434 126.82 546.334C126.56 545.954 125.94 545.354 125.54 545.074C130.54 541.514 130.96 536.514 130.96 533.074L130.96 530.634ZM125.62 532.294C127.66 532.214 130.66 532.054 133.6 531.914L133.58 533.514C130.82 533.714 127.92 533.874 125.82 534.014L125.62 532.294ZM156.2 535.534L162.56 535.534L162.56 537.054L156.2 537.054L156.2 535.534ZM155.3 528.694L162.52 528.694L162.52 530.374L157.04 530.374L157.04 546.334L155.3 546.334L155.3 528.694ZM161.56 528.694L163.32 528.694L163.32 532.514C163.32 533.374 163.14 533.874 162.46 534.134C161.76 534.394 160.74 534.414 159.22 534.414C159.14 533.914 158.9 533.234 158.66 532.774C159.8 532.814 160.86 532.814 161.16 532.794C161.48 532.774 161.56 532.714 161.56 532.494L161.56 528.694ZM158.4 536.454C159.44 540.034 161.58 543.274 164.52 544.714C164.1 545.074 163.54 545.754 163.24 546.234C160.2 544.474 158.1 540.914 156.94 536.834L158.4 536.454ZM162 535.534L162.32 535.534L162.64 535.454L163.8 535.874C163.02 540.294 161.04 544.214 157.82 546.394C157.54 545.974 156.98 545.434 156.56 545.114C159.54 543.194 161.4 539.574 162 535.914L162 535.534ZM146.44 529.734L154.16 529.734L154.16 531.334L146.44 531.334L146.44 529.734ZM145.84 540.854L154.66 540.854L154.66 542.454L145.84 542.454L145.84 540.854ZM145.86 533.054L154.64 533.054L154.64 534.674L145.86 534.674L145.86 533.054ZM146.3 537.294L154.26 537.294L154.26 538.914L146.3 538.914L146.3 537.294ZM149.48 527.834L151.24 527.834L151.24 533.654L149.48 533.654L149.48 527.834ZM149.48 537.954L151.24 537.954L151.24 546.294L149.48 546.294L149.48 537.954ZM152.12 534.594L153.74 535.014C153.16 536.134 152.54 537.354 152 538.174L150.62 537.774C151.16 536.914 151.8 535.554 152.12 534.594ZM147.12 535.054L148.52 534.634C148.94 535.374 149.34 536.354 149.48 536.974L148 537.454C147.9 536.814 147.52 535.814 147.12 535.054ZM172.44 543.834L181.78 543.834L181.78 545.574L172.44 545.574L172.44 543.834ZM171.6 529.794L178.84 529.794L178.84 531.474L171.6 531.474L171.6 529.794ZM172.34 527.714L174.48 528.134C172.88 530.874 170.48 533.574 166.96 535.674C166.68 535.214 166.04 534.534 165.62 534.194C168.92 532.414 171.18 529.894 172.34 527.714ZM178.22 529.794L178.58 529.794L178.92 529.694L180.2 530.374C177.82 536.494 172.32 540.534 166.64 542.414C166.42 541.894 165.94 541.114 165.54 540.714C170.88 539.174 176.24 535.274 178.22 530.114L178.22 529.794ZM169.06 533.714L170.46 532.494C171.96 533.534 173.84 535.054 174.74 536.154L173.2 537.514C172.4 536.414 170.56 534.794 169.06 533.714ZM180.88 537.614L182.84 537.614L182.84 546.394L180.88 546.394L180.88 537.614ZM173.26 537.614L181.84 537.614L181.84 539.334L173.26 539.334L173.26 546.354L171.36 546.354L171.36 539.054L172.84 537.614L173.26 537.614Z" fill="white"/>
<path d="M136.458 578.084L136.458 568.484C136.458 567.704 136.518 566.444 136.578 565.644L136.478 565.644C136.118 566.384 135.718 567.164 135.298 567.924L132.418 572.344L140.498 572.344L140.498 574.144L130.098 574.144L130.098 572.584L135.938 563.364L138.618 563.364L138.618 578.084L136.458 578.084ZM141.344 581.684L146.904 562.104L148.484 562.104L142.944 581.684L141.344 581.684ZM154.617 578.364C151.837 578.364 149.817 576.724 149.817 574.444C149.817 572.504 151.077 571.184 152.437 570.464L152.437 570.384C151.337 569.604 150.457 568.484 150.457 566.944C150.457 564.644 152.257 563.144 154.677 563.144C157.237 563.144 158.817 564.724 158.817 567.024C158.817 568.544 157.797 569.804 156.897 570.504L156.897 570.604C158.217 571.344 159.377 572.484 159.377 574.504C159.377 576.684 157.457 578.364 154.617 578.364ZM155.577 569.924C156.457 569.104 156.897 568.164 156.897 567.164C156.897 565.824 156.057 564.804 154.637 564.804C153.437 564.804 152.537 565.624 152.537 566.944C152.537 568.524 153.937 569.264 155.577 569.924ZM154.657 576.684C156.157 576.684 157.197 575.804 157.197 574.424C157.197 572.644 155.577 571.964 153.577 571.124C152.557 571.844 151.837 572.924 151.837 574.204C151.837 575.664 153.057 576.684 154.657 576.684Z" fill="white"/>
</g>
<g filter="url(#filter2_b_73_598)">
<rect x="246" y="470.379" width="118" height="92" rx="10" fill="white" fill-opacity="0.1"/>
<rect x="247" y="471.379" width="116" height="90" rx="9" stroke="#6D6D6D" stroke-width="2"/>
<path d="M276.2 499.534L282.56 499.534L282.56 501.054L276.2 501.054L276.2 499.534ZM275.3 492.694L282.52 492.694L282.52 494.374L277.04 494.374L277.04 510.334L275.3 510.334L275.3 492.694ZM281.56 492.694L283.32 492.694L283.32 496.514C283.32 497.374 283.14 497.874 282.46 498.134C281.76 498.394 280.74 498.414 279.22 498.414C279.14 497.914 278.9 497.234 278.66 496.774C279.8 496.814 280.86 496.814 281.16 496.794C281.48 496.774 281.56 496.714 281.56 496.494L281.56 492.694ZM278.4 500.454C279.44 504.034 281.58 507.274 284.52 508.714C284.1 509.074 283.54 509.754 283.24 510.234C280.2 508.474 278.1 504.914 276.94 500.834L278.4 500.454ZM282 499.534L282.32 499.534L282.64 499.454L283.8 499.874C283.02 504.294 281.04 508.214 277.82 510.394C277.54 509.974 276.98 509.434 276.56 509.114C279.54 507.194 281.4 503.574 282 499.914L282 499.534ZM266.44 493.734L274.16 493.734L274.16 495.334L266.44 495.334L266.44 493.734ZM265.84 504.854L274.66 504.854L274.66 506.454L265.84 506.454L265.84 504.854ZM265.86 497.054L274.64 497.054L274.64 498.674L265.86 498.674L265.86 497.054ZM266.3 501.294L274.26 501.294L274.26 502.914L266.3 502.914L266.3 501.294ZM269.48 491.834L271.24 491.834L271.24 497.654L269.48 497.654L269.48 491.834ZM269.48 501.954L271.24 501.954L271.24 510.294L269.48 510.294L269.48 501.954ZM272.12 498.594L273.74 499.014C273.16 500.134 272.54 501.354 272 502.174L270.62 501.774C271.16 500.914 271.8 499.554 272.12 498.594ZM267.12 499.054L268.52 498.634C268.94 499.374 269.34 500.354 269.48 500.974L268 501.454C267.9 500.814 267.52 499.814 267.12 499.054ZM292.44 507.834L301.78 507.834L301.78 509.574L292.44 509.574L292.44 507.834ZM291.6 493.794L298.84 493.794L298.84 495.474L291.6 495.474L291.6 493.794ZM292.34 491.714L294.48 492.134C292.88 494.874 290.48 497.574 286.96 499.674C286.68 499.214 286.04 498.534 285.62 498.194C288.92 496.414 291.18 493.894 292.34 491.714ZM298.22 493.794L298.58 493.794L298.92 493.694L300.2 494.374C297.82 500.494 292.32 504.534 286.64 506.414C286.42 505.894 285.94 505.114 285.54 504.714C290.88 503.174 296.24 499.274 298.22 494.114L298.22 493.794ZM289.06 497.714L290.46 496.494C291.96 497.534 293.84 499.054 294.74 500.154L293.2 501.514C292.4 500.414 290.56 498.794 289.06 497.714ZM300.88 501.614L302.84 501.614L302.84 510.394L300.88 510.394L300.88 501.614ZM293.26 501.614L301.84 501.614L301.84 503.334L293.26 503.334L293.26 510.354L291.36 510.354L291.36 503.054L292.84 501.614L293.26 501.614ZM319.42 493.094L320.74 492.174C321.8 492.974 323.02 494.154 323.58 494.974L322.18 496.034C321.64 495.194 320.46 493.934 319.42 493.094ZM305.98 496.574L324.04 496.574L324.04 498.174L305.98 498.174L305.98 496.574ZM306.84 493.494L315.62 493.494L315.62 495.054L306.84 495.054L306.84 493.494ZM308.58 502.794L315.68 502.794L315.68 503.994L308.58 503.994L308.58 502.794ZM308.58 505.134L315.68 505.134L315.68 506.334L308.58 506.334L308.58 505.134ZM308.48 507.514L315.96 507.514L315.96 509.014L308.48 509.014L308.48 507.514ZM310.38 491.814L312.2 491.814L312.2 497.674L310.38 497.674L310.38 491.814ZM311.72 501.074L313.26 501.074L313.26 508.014L311.72 508.014L311.72 501.074ZM308.74 498.294L310.32 498.714C309.5 500.674 308.18 502.634 306.86 503.894C306.58 503.614 305.94 503.054 305.58 502.814C306.86 501.714 308.04 500.014 308.74 498.294ZM309.22 500.254L316.04 500.254L316.04 501.694L309.22 501.694L309.22 509.974L307.58 509.974L307.58 501.714L308.94 500.254L309.22 500.254ZM316.74 491.814L318.6 491.814C318.48 500.854 319.84 508.334 321.98 508.334C322.46 508.334 322.66 507.474 322.76 505.234C323.16 505.634 323.78 506.034 324.24 506.214C323.94 509.294 323.36 510.154 321.82 510.154C317.88 510.154 316.76 501.514 316.74 491.814ZM321.46 499.214L323.2 499.714C321.84 504.154 319.56 507.954 316.2 510.334C315.9 509.914 315.36 509.354 314.88 509.014C318.04 506.974 320.28 503.314 321.46 499.214ZM311.16 498.894L312.56 498.334C313.04 498.954 313.52 499.794 313.72 500.394L312.24 501.034C312.06 500.454 311.6 499.554 311.16 498.894ZM335.74 498.314L343.08 498.314L343.08 500.214L335.74 500.214L335.74 498.314ZM325.9 507.474L344.06 507.474L344.06 509.354L325.9 509.354L325.9 507.474ZM334.78 491.834L336.78 491.834L336.78 508.454L334.78 508.454L334.78 491.834ZM328.58 496.094L330.54 496.094L330.54 508.374L328.58 508.374L328.58 496.094Z" fill="white"/>
<path d="M295.057 542.364C292.737 542.364 291.277 541.424 290.217 540.384L291.337 538.884C292.157 539.724 293.237 540.464 294.777 540.464C296.437 540.464 297.677 539.284 297.677 537.324C297.677 535.384 296.557 534.264 294.877 534.264C293.957 534.264 293.397 534.524 292.537 535.084L291.397 534.364L291.837 527.364L299.317 527.364L299.317 529.324L293.857 529.324L293.517 533.084C294.137 532.764 294.737 532.584 295.537 532.584C297.997 532.584 300.017 534.024 300.017 537.264C300.017 540.504 297.617 542.364 295.057 542.364ZM301.343 545.684L306.903 526.104L308.483 526.104L302.943 545.684L301.343 545.684ZM313.756 542.364C312.056 542.364 310.836 541.664 309.996 540.784L311.236 539.364C311.836 540.024 312.736 540.464 313.656 540.464C315.516 540.464 317.096 538.904 317.096 534.224C317.096 530.544 315.956 528.864 314.156 528.864C312.876 528.864 311.876 530.004 311.876 531.944C311.876 533.804 312.736 534.884 314.276 534.884C315.196 534.884 316.236 534.364 317.096 533.024L317.216 534.704C316.356 535.844 315.036 536.564 313.856 536.564C311.396 536.564 309.736 535.024 309.736 531.944C309.736 529.004 311.736 527.104 314.136 527.104C316.956 527.104 319.236 529.364 319.236 534.224C319.236 540.024 316.596 542.364 313.756 542.364Z" fill="white"/>
</g>
<g filter="url(#filter3_b_73_598)">
<rect x="367" y="445.379" width="118" height="92" rx="10" fill="white" fill-opacity="0.1"/>
<rect x="368" y="446.379" width="116" height="90" rx="9" stroke="#6D6D6D" stroke-width="2"/>
<path d="M387.68 468.194L404.44 468.194L404.44 470.034L387.68 470.034L387.68 468.194ZM396.46 474.974L403.56 474.974L403.56 476.834L396.46 476.834L396.46 474.974ZM386.96 482.694L405.06 482.694L405.06 484.534L386.96 484.534L386.96 482.694ZM395.56 468.914L397.54 468.914L397.54 483.594L395.56 483.594L395.56 468.914ZM389.58 473.474L391.54 473.474L391.54 483.674L389.58 483.674L389.58 473.474ZM416.28 469.474L423.42 469.474L423.42 471.314L416.28 471.314L416.28 469.474ZM406.9 467.994L416.82 467.994L416.82 469.754L406.9 469.754L406.9 467.994ZM409.38 472.094L414.4 472.094L414.4 473.794L409.38 473.794L409.38 472.094ZM409.38 476.254L414.4 476.254L414.4 477.954L409.38 477.954L409.38 476.254ZM422.88 469.474L423.22 469.474L423.56 469.414L424.78 469.734C423.9 477.754 421.04 482.554 416.64 485.154C416.36 484.674 415.82 483.954 415.4 483.594C419.36 481.534 422.12 476.734 422.88 469.894L422.88 469.474ZM418.34 471.394C419.36 476.914 421.6 481.514 425.6 483.614C425.18 483.974 424.58 484.694 424.28 485.194C420 482.694 417.78 477.914 416.52 471.734L418.34 471.394ZM408.38 468.694L410.18 468.694L410.18 481.714L408.38 481.714L408.38 468.694ZM413.64 468.694L415.46 468.694L415.46 485.334L413.64 485.334L413.64 468.694ZM406.46 481.094C408.44 480.854 411.44 480.454 414.32 480.014L414.42 481.754C411.74 482.214 408.9 482.654 406.82 482.974L406.46 481.094ZM438.04 478.254L439.88 477.414C441.5 479.594 443.4 482.434 444.36 484.254L442.44 485.294C441.54 483.434 439.62 480.434 438.04 478.254ZM432.14 467.334L434.22 467.994C432.76 471.294 430.48 474.594 428.28 476.674C427.92 476.254 427.08 475.454 426.6 475.094C428.8 473.254 430.9 470.314 432.14 467.334ZM429.16 484.514C429.04 484.094 428.68 483.034 428.4 482.474C429 482.314 429.54 481.714 430.32 480.794C431.16 479.894 433.72 476.374 435.36 472.994L437.54 473.914C435.56 477.434 433.06 480.934 430.64 483.374L430.64 483.414C430.64 483.414 429.16 484.094 429.16 484.514ZM429.16 484.514L429.1 482.894L430.42 482.174L442.08 481.454C442.18 482.034 442.38 482.834 442.5 483.274C431.34 484.094 430.06 484.154 429.16 484.514ZM438.06 467.294L440.28 467.294C441.2 470.314 443.14 473.254 445.56 474.794C445.12 475.194 444.42 476.054 444.1 476.634C441.58 474.734 439.56 471.514 438.5 468.374L438.06 468.374L438.06 467.294ZM435.32 467.294L439.62 467.294L439.62 469.234L435.32 469.234L435.32 467.294ZM447.18 474.074L464.84 474.074L464.84 475.834L447.18 475.834L447.18 474.074ZM450.46 469.554L463.48 469.554L463.48 471.294L450.46 471.294L450.46 469.554ZM450.6 482.674L461.64 482.674L461.64 484.434L450.6 484.434L450.6 482.674ZM455.46 466.794L457.46 466.794L457.46 475.134L455.46 475.134L455.46 466.794ZM449.58 477.594L462.68 477.594L462.68 485.454L460.68 485.454L460.68 479.334L451.5 479.334L451.5 485.494L449.58 485.494L449.58 477.594ZM450.72 466.914L452.6 467.374C451.76 469.834 450.36 472.254 448.98 473.814C448.6 473.514 447.72 473.014 447.26 472.794C448.72 471.394 449.98 469.134 450.72 466.914Z" fill="white"/>
<path d="M410.354 517.364C408.034 517.364 406.574 516.424 405.514 515.384L406.634 513.884C407.454 514.724 408.534 515.464 410.074 515.464C411.734 515.464 412.974 514.284 412.974 512.324C412.974 510.384 411.854 509.264 410.174 509.264C409.254 509.264 408.694 509.524 407.834 510.084L406.694 509.364L407.134 502.364L414.614 502.364L414.614 504.324L409.154 504.324L408.814 508.084C409.434 507.764 410.034 507.584 410.834 507.584C413.294 507.584 415.314 509.024 415.314 512.264C415.314 515.504 412.914 517.364 410.354 517.364ZM416.64 520.684L422.2 501.104L423.78 501.104L418.24 520.684L416.64 520.684ZM425.893 517.084L425.893 515.184L429.133 515.184L429.133 504.944L426.473 504.944L426.473 503.484C427.873 503.244 428.833 502.884 429.693 502.364L431.433 502.364L431.433 515.184L434.313 515.184L434.313 517.084L425.893 517.084ZM440.939 517.364C438.639 517.364 437.139 516.444 436.139 515.324L437.279 513.844C438.139 514.724 439.219 515.464 440.759 515.464C442.399 515.464 443.539 514.544 443.539 513.024C443.539 511.384 442.499 510.344 439.199 510.344L439.199 508.624C442.079 508.624 443.039 507.544 443.039 506.064C443.039 504.764 442.199 503.944 440.779 503.944C439.659 503.944 438.699 504.484 437.859 505.324L436.639 503.864C437.819 502.824 439.179 502.104 440.879 502.104C443.519 502.104 445.379 503.464 445.379 505.884C445.379 507.584 444.399 508.764 442.839 509.344L442.839 509.444C444.539 509.884 445.879 511.144 445.879 513.144C445.879 515.804 443.659 517.364 440.939 517.364Z" fill="white"/>
</g>
<g filter="url(#filter4_b_73_598)">
<rect x="499" y="421.379" width="118" height="92" rx="10" fill="white" fill-opacity="0.1"/>
<rect x="500" y="422.379" width="116" height="90" rx="9" stroke="#6D6D6D" stroke-width="2"/>
<path d="M527.3 442.774L529.12 442.914C528.84 443.854 528.56 444.774 528.32 445.394L526.88 445.214C527.06 444.494 527.24 443.474 527.3 442.774ZM526.7 448.394L526.7 449.754L529.42 449.754L529.42 448.394L526.7 448.394ZM526.7 445.794L526.7 447.134L529.42 447.134L529.42 445.794L526.7 445.794ZM525.2 444.454L530.98 444.454L530.98 451.094L525.2 451.094L525.2 444.454ZM524.98 452.714L531.44 452.714L531.44 454.214L524.98 454.214L524.98 452.714ZM526.9 455.434L530.28 455.434L530.28 456.814L526.6 456.814L526.9 455.434ZM529.54 455.434L531.12 455.434C531.12 455.434 531.1 455.834 531.08 456.054C530.88 459.014 530.68 460.234 530.26 460.714C529.96 461.034 529.66 461.154 529.22 461.214C528.88 461.234 528.24 461.254 527.58 461.234C527.56 460.794 527.42 460.214 527.2 459.814C527.78 459.874 528.24 459.894 528.46 459.894C528.68 459.894 528.82 459.854 528.96 459.714C529.2 459.434 529.38 458.394 529.54 455.654L529.54 455.434ZM526.52 453.774L528.1 453.774C527.96 457.274 527.46 459.854 525.06 461.374C524.88 461.014 524.42 460.474 524.06 460.214C526.08 458.934 526.4 456.754 526.52 453.774ZM532.84 442.794L534.44 443.034C533.98 446.734 533.16 450.274 531.58 452.594C531.42 452.234 530.94 451.434 530.62 451.074C531.92 449.074 532.52 446.014 532.84 442.794ZM533.08 446.814L537.28 446.814L537.28 448.514L532.6 448.514L533.08 446.814ZM533.1 448.474C533.7 453.314 534.94 457.794 537.38 459.974C537 460.274 536.42 460.914 536.16 461.354C533.66 458.794 532.52 453.994 531.9 448.654L533.1 448.474ZM535.18 447.294L536.54 447.934C536.06 453.794 534.7 458.954 531.58 461.354C531.32 460.974 530.78 460.414 530.36 460.094C533.48 457.914 534.74 453.094 535.18 447.294ZM527.08 451.514L528.62 451.174C528.96 451.774 529.3 452.554 529.46 453.054L527.84 453.454C527.7 452.954 527.36 452.114 527.08 451.514ZM522.72 450.874L523.88 450.594C524.34 451.994 524.82 453.814 524.94 454.874L523.7 455.234C523.56 454.134 523.16 452.274 522.72 450.874ZM521.4 455.994L522.68 455.794C522.9 457.234 523.1 459.094 523.12 460.354L521.78 460.574C521.78 459.334 521.6 457.454 521.4 455.994ZM519.54 455.814L520.94 456.054C520.76 457.914 520.4 459.934 519.98 461.214C519.66 461.054 518.98 460.834 518.6 460.754C519.1 459.454 519.36 457.554 519.54 455.814ZM519.18 450.494C519.08 450.174 518.84 449.434 518.68 449.034C518.98 448.954 519.28 448.534 519.6 447.914C519.94 447.334 521.02 444.974 521.54 442.814L523.04 443.394C522.3 445.594 521.2 447.974 520.16 449.614L520.16 449.654C520.16 449.654 519.18 450.174 519.18 450.494ZM519.18 450.494L519.14 449.194L519.92 448.694L523 448.474C522.9 448.914 522.84 449.554 522.84 449.914C520.06 450.194 519.5 450.314 519.18 450.494ZM519.32 455.054C519.22 454.734 518.98 453.974 518.8 453.574C519.22 453.474 519.6 452.954 520.14 452.194C520.68 451.454 522.44 448.514 523.46 445.754L524.88 446.534C523.64 449.294 521.98 452.154 520.3 454.194L520.3 454.234C520.3 454.234 519.32 454.734 519.32 455.054ZM519.32 455.054L519.24 453.734L520.04 453.214L524.22 452.694C524.16 453.134 524.12 453.794 524.14 454.134C520.34 454.694 519.7 454.854 519.32 455.054ZM523.14 455.654L524.3 455.334C524.64 456.314 525.02 457.634 525.16 458.474L523.92 458.854C523.8 457.994 523.46 456.654 523.14 455.654ZM541.52 445.974L553.8 445.974L553.8 444.994L540.12 444.994L540.12 443.814L555.52 443.814L555.52 447.154L541.52 447.154L541.52 445.974ZM540.96 445.974L542.62 445.974C542.48 447.154 542.28 448.474 542.08 449.394L540.4 449.394C540.62 448.434 540.84 447.094 540.96 445.974ZM541.2 448.194L555.6 448.194L555.6 449.394L540.84 449.394L541.2 448.194ZM555.02 448.194L556.78 448.194C556.78 448.194 556.76 448.554 556.76 448.754C556.64 449.914 556.52 450.534 556.22 450.874C555.94 451.134 555.58 451.254 555.16 451.274C554.8 451.294 554.08 451.294 553.34 451.254C553.32 450.914 553.18 450.414 553 450.094C553.58 450.134 554.06 450.154 554.28 450.154C554.48 450.154 554.6 450.134 554.72 450.014C554.86 449.854 554.94 449.434 555.02 448.394L555.02 448.194ZM544.9 442.794L546.62 442.794L546.62 446.634C546.62 449.374 545.74 451.494 539.88 452.514C539.72 452.094 539.3 451.394 538.98 451.054C544.2 450.194 544.9 448.614 544.9 446.594L544.9 442.794ZM549.34 442.794L551.14 442.794L551.14 450.734L549.34 450.734L549.34 442.794ZM543.38 453.994L543.38 455.054L552.82 455.054L552.82 453.994L543.38 453.994ZM543.38 456.134L543.38 457.214L552.82 457.214L552.82 456.134L543.38 456.134ZM543.38 451.874L543.38 452.914L552.82 452.914L552.82 451.874L543.38 451.874ZM541.54 450.734L554.74 450.734L554.74 458.354L541.54 458.354L541.54 450.734ZM549.68 459.094L550.76 458.014C553 458.674 555.44 459.534 556.92 460.174L555.52 461.334C554.18 460.674 551.92 459.794 549.68 459.094ZM544.88 458.234L546.56 459.014C544.92 459.954 542.36 460.854 540.34 461.374C540.04 461.014 539.38 460.314 538.96 459.994C541.06 459.614 543.46 458.974 544.88 458.234ZM572.42 444.094L573.74 443.174C574.8 443.974 576.02 445.154 576.58 445.974L575.18 447.034C574.64 446.194 573.46 444.934 572.42 444.094ZM558.98 447.574L577.04 447.574L577.04 449.174L558.98 449.174L558.98 447.574ZM559.84 444.494L568.62 444.494L568.62 446.054L559.84 446.054L559.84 444.494ZM561.58 453.794L568.68 453.794L568.68 454.994L561.58 454.994L561.58 453.794ZM561.58 456.134L568.68 456.134L568.68 457.334L561.58 457.334L561.58 456.134ZM561.48 458.514L568.96 458.514L568.96 460.014L561.48 460.014L561.48 458.514ZM563.38 442.814L565.2 442.814L565.2 448.674L563.38 448.674L563.38 442.814ZM564.72 452.074L566.26 452.074L566.26 459.014L564.72 459.014L564.72 452.074ZM561.74 449.294L563.32 449.714C562.5 451.674 561.18 453.634 559.86 454.894C559.58 454.614 558.94 454.054 558.58 453.814C559.86 452.714 561.04 451.014 561.74 449.294ZM562.22 451.254L569.04 451.254L569.04 452.694L562.22 452.694L562.22 460.974L560.58 460.974L560.58 452.714L561.94 451.254L562.22 451.254ZM569.74 442.814L571.6 442.814C571.48 451.854 572.84 459.334 574.98 459.334C575.46 459.334 575.66 458.474 575.76 456.234C576.16 456.634 576.78 457.034 577.24 457.214C576.94 460.294 576.36 461.154 574.82 461.154C570.88 461.154 569.76 452.514 569.74 442.814ZM574.46 450.214L576.2 450.714C574.84 455.154 572.56 458.954 569.2 461.334C568.9 460.914 568.36 460.354 567.88 460.014C571.04 457.974 573.28 454.314 574.46 450.214ZM564.16 449.894L565.56 449.334C566.04 449.954 566.52 450.794 566.72 451.394L565.24 452.034C565.06 451.454 564.6 450.554 564.16 449.894ZM588.74 449.314L596.08 449.314L596.08 451.214L588.74 451.214L588.74 449.314ZM578.9 458.474L597.06 458.474L597.06 460.354L578.9 460.354L578.9 458.474ZM587.78 442.834L589.78 442.834L589.78 459.454L587.78 459.454L587.78 442.834ZM581.58 447.094L583.54 447.094L583.54 459.374L581.58 459.374L581.58 447.094Z" fill="white"/>
<path d="M542.354 493.364C540.034 493.364 538.574 492.424 537.514 491.384L538.634 489.884C539.454 490.724 540.534 491.464 542.074 491.464C543.734 491.464 544.974 490.284 544.974 488.324C544.974 486.384 543.854 485.264 542.174 485.264C541.254 485.264 540.694 485.524 539.834 486.084L538.694 485.364L539.134 478.364L546.614 478.364L546.614 480.324L541.154 480.324L540.814 484.084C541.434 483.764 542.034 483.584 542.834 483.584C545.294 483.584 547.314 485.024 547.314 488.264C547.314 491.504 544.914 493.364 542.354 493.364ZM548.64 496.684L554.2 477.104L555.78 477.104L550.24 496.684L548.64 496.684ZM557.053 493.084L557.053 491.744C561.413 487.904 563.633 485.044 563.633 482.624C563.633 481.044 562.793 479.944 561.153 479.944C559.993 479.944 559.033 480.664 558.253 481.564L556.933 480.304C558.213 478.924 559.513 478.104 561.433 478.104C564.133 478.104 565.873 479.844 565.873 482.524C565.873 485.344 563.593 488.284 560.473 491.284C561.233 491.204 562.173 491.124 562.893 491.124L566.573 491.124L566.573 493.084L557.053 493.084ZM573.299 493.364C570.399 493.364 568.539 490.784 568.539 485.664C568.539 480.584 570.399 478.104 573.299 478.104C576.179 478.104 578.059 480.584 578.059 485.664C578.059 490.784 576.179 493.364 573.299 493.364ZM573.299 491.524C574.799 491.524 575.839 489.924 575.839 485.664C575.839 481.464 574.799 479.904 573.299 479.904C571.799 479.904 570.739 481.464 570.739 485.664C570.739 489.924 571.799 491.524 573.299 491.524Z" fill="white"/>
</g>
<g filter="url(#filter5_b_73_598)">
<rect x="622" y="364.379" width="118" height="122" rx="10" fill="white" fill-opacity="0.1"/>
<rect x="623" y="365.379" width="116" height="120" rx="9" stroke="#6D6D6D" stroke-width="2"/>
<path d="M632.36 386.994L649.7 386.994L649.7 390.194L647.9 390.194L647.9 388.474L634.08 388.474L634.08 390.194L632.36 390.194L632.36 386.994ZM637.16 388.794L638.92 388.794L638.92 394.034L637.16 394.034L637.16 388.794ZM643.08 388.794L644.86 388.794L644.86 394.034L643.08 394.034L643.08 388.794ZM634.26 389.574L647.74 389.574L647.74 390.674L634.26 390.674L634.26 389.574ZM634.54 391.434L647.56 391.434L647.56 392.474L634.54 392.474L634.54 391.434ZM632.18 393.214L649.88 393.214L649.88 394.574L632.18 394.574L632.18 393.214ZM637.46 393.574L638.86 394.154C637.48 395.894 635.02 397.494 632.72 398.254C632.46 397.854 631.96 397.214 631.58 396.894C633.82 396.274 636.24 395.014 637.46 393.574ZM644.76 393.494C645.92 394.854 648.22 396.034 650.42 396.574C650.02 396.914 649.5 397.574 649.24 398.014C647 397.294 644.68 395.734 643.38 394.034L644.76 393.494ZM637.06 398.154L637.06 398.934L644.88 398.934L644.88 398.154L637.06 398.154ZM637.06 399.914L637.06 400.734L644.88 400.734L644.88 399.914L637.06 399.914ZM637.06 396.414L637.06 397.194L644.88 397.194L644.88 396.414L637.06 396.414ZM635.32 395.414L646.7 395.414L646.7 401.714L635.32 401.714L635.32 395.414ZM642.12 402.414L643.32 401.394C645.52 401.974 647.98 402.714 649.48 403.234L647.92 404.294C646.58 403.774 644.36 403.034 642.12 402.414ZM638.3 401.374L639.78 402.334C638.16 403.214 635.46 403.974 633.28 404.334C633.02 404.014 632.52 403.434 632.18 403.114C634.36 402.774 637.04 402.034 638.3 401.374ZM639.76 386.094L641.64 385.594C642 386.154 642.38 386.954 642.52 387.454L640.56 388.034C640.44 387.514 640.1 386.694 639.76 386.094ZM651.98 388.874L670 388.874L670 390.614L651.98 390.614L651.98 388.874ZM654.18 395.474L659.6 395.474L659.6 396.914L654.18 396.914L654.18 395.474ZM654.18 398.614L659.6 398.614L659.6 400.054L654.18 400.054L654.18 398.614ZM662.88 392.414L664.64 392.414L664.64 400.614L662.88 400.614L662.88 392.414ZM658.94 392.214L660.76 392.214L660.76 402.374C660.76 403.234 660.58 403.714 659.98 403.994C659.38 404.274 658.48 404.294 657.18 404.294C657.08 403.814 656.8 403.114 656.56 402.654C657.44 402.694 658.32 402.694 658.58 402.674C658.86 402.674 658.94 402.594 658.94 402.334L658.94 392.214ZM666.92 391.834L668.78 391.834L668.78 402.174C668.78 403.174 668.58 403.674 667.88 403.974C667.2 404.254 666.16 404.314 664.64 404.294C664.54 403.794 664.24 402.994 663.96 402.494C665.1 402.534 666.16 402.534 666.5 402.514C666.82 402.514 666.92 402.434 666.92 402.154L666.92 391.834ZM654.94 386.414L656.72 385.774C657.46 386.594 658.3 387.734 658.66 388.494L656.76 389.174C656.46 388.434 655.68 387.254 654.94 386.414ZM665.22 385.714L667.26 386.354C666.48 387.614 665.58 388.954 664.86 389.854L663.16 389.254C663.88 388.314 664.74 386.814 665.22 385.714ZM653.3 392.214L655 392.214L655 396.934C655 399.214 654.76 402.374 653.28 404.394C653 404.094 652.26 403.534 651.86 403.314C653.16 401.474 653.3 398.894 653.3 396.914L653.3 392.214ZM654.4 392.214L659.82 392.214L659.82 393.734L654.4 393.734L654.4 392.214ZM673.04 387.974L689.02 387.974L689.02 389.934L673.04 389.934L673.04 387.974ZM671.96 400.994L690.08 400.994L690.08 402.894L671.96 402.894L671.96 400.994ZM679.86 389.014L682 389.014L682 401.774L679.86 401.774L679.86 389.014ZM700.78 389.114L710.32 389.114L710.32 390.914L699.9 390.914L700.78 389.114ZM703.34 393.474L709.84 393.474L709.84 395.194L703.34 395.194L703.34 393.474ZM703.32 397.894L710.1 397.894L710.1 399.674L703.32 399.674L703.32 397.894ZM702.38 389.714L704.32 389.714L704.32 404.354L702.38 404.354L702.38 389.714ZM701.42 386.014L703.24 386.494C702.12 389.694 700.36 392.914 698.52 394.994C698.22 394.654 697.48 393.974 697.06 393.674C698.86 391.834 700.46 388.934 701.42 386.014ZM696.4 385.874L698.22 386.454C696.92 389.854 694.84 393.374 692.66 395.614C692.48 395.174 691.92 394.114 691.58 393.654C693.5 391.774 695.32 388.834 696.4 385.874ZM694.32 391.194L696.2 389.294L696.22 389.314L696.22 404.334L694.32 404.334L694.32 391.194ZM723 386.074L724.78 385.654C725.14 386.614 725.6 387.874 725.78 388.634L723.92 389.154C723.76 388.374 723.36 387.054 723 386.074ZM718.34 389.234L730.24 389.234L730.24 391.054L718.34 391.054L718.34 389.234ZM722.44 393.894L727.9 393.894L727.9 395.654L722.44 395.654L722.44 393.894ZM727.34 393.894L729.24 393.894C729.24 393.894 729.22 394.474 729.2 394.734C728.96 400.474 728.72 402.654 728.08 403.394C727.66 403.934 727.22 404.094 726.52 404.154C725.92 404.214 724.84 404.234 723.72 404.174C723.7 403.614 723.46 402.834 723.12 402.314C724.22 402.394 725.24 402.414 725.68 402.414C726.04 402.414 726.24 402.374 726.46 402.154C726.9 401.694 727.14 399.614 727.34 394.214L727.34 393.894ZM711.98 390.734L718.42 390.734L718.42 392.534L711.98 392.534L711.98 390.734ZM714.38 386.114L716.22 386.114L716.22 399.454L714.38 399.454L714.38 386.114ZM711.62 399.494C713.38 398.934 716.04 397.994 718.58 397.054L718.94 398.814C716.56 399.754 714.02 400.714 712.06 401.454L711.62 399.494ZM721.52 390.274L723.42 390.274L723.42 393.734C723.42 397.114 722.76 401.354 718.14 404.374C717.82 403.974 717.18 403.414 716.7 403.074C720.98 400.254 721.52 396.514 721.52 393.694L721.52 390.274ZM666.06 424.674L675.9 424.674L675.9 426.194L666.06 426.194L666.06 424.674ZM665.74 428.094L676.28 428.094L676.28 429.674L665.74 429.674L665.74 428.094ZM672.1 425.154L673.78 425.154L673.78 433.994L672.1 433.994L672.1 425.154ZM668.08 425.234L669.72 425.234L669.72 428.954C669.72 430.214 669.2 432.834 667.02 434.314C666.76 433.974 666.18 433.454 665.78 433.194C667.66 432.054 668.08 430.014 668.08 428.954L668.08 425.234ZM663.64 419.374L669 419.374L669 420.654L663.64 420.654L663.64 419.374ZM672.88 419.374L678.28 419.374L678.28 420.654L672.88 420.654L672.88 419.374ZM677.54 416.614L679.4 416.614L679.4 432.054C679.4 433.094 679.2 433.654 678.54 433.974C677.88 434.294 676.88 434.334 675.34 434.314C675.28 433.814 675.02 432.934 674.76 432.434C675.78 432.474 676.8 432.474 677.12 432.454C677.44 432.454 677.54 432.334 677.54 432.034L677.54 416.614ZM663.8 416.614L670.18 416.614L670.18 423.514L663.8 423.514L663.8 422.114L668.4 422.114L668.4 418.014L663.8 418.014L663.8 416.614ZM678.48 416.614L678.48 418.014L673.54 418.014L673.54 422.154L678.48 422.154L678.48 423.554L671.74 423.554L671.74 416.614L678.48 416.614ZM662.68 416.614L664.54 416.614L664.54 434.374L662.68 434.374L662.68 416.614ZM691.3 431.834L698.26 431.834L698.26 433.514L691.3 433.514L691.3 431.834ZM690.12 426.114L699.2 426.114L699.2 434.334L697.4 434.334L697.4 427.794L691.86 427.794L691.86 434.354L690.12 434.354L690.12 426.114ZM695.64 419.414L697.14 418.674C698.54 420.414 699.92 422.734 700.52 424.314L698.88 425.174C698.34 423.574 696.96 421.154 695.64 419.414ZM689.74 424.714C689.64 424.334 689.34 423.414 689.12 422.934C689.54 422.834 689.92 422.374 690.4 421.654C690.92 420.954 692.48 418.314 693.4 415.794L695.38 416.334C694.16 419.054 692.56 421.794 691.06 423.674L691.06 423.714C691.06 423.714 689.74 424.334 689.74 424.714ZM689.74 424.714L689.7 423.214L690.78 422.574L699.1 422.034C699.18 422.554 699.34 423.294 699.48 423.694C691.42 424.354 690.42 424.454 689.74 424.714ZM682.14 426.734L683.2 425.474C685.32 427.114 688.26 429.494 689.6 431.054L688.42 432.534C687.12 430.934 684.28 428.454 682.14 426.734ZM682.14 426.734C683 424.014 684 419.374 684.36 415.894L686.1 416.014C685.66 419.654 684.62 424.354 683.76 427.254L682.14 426.734ZM686.96 418.634L688.66 418.634L688.66 421.074C688.66 424.934 688.16 430.434 682.82 434.334C682.56 433.954 681.94 433.354 681.54 433.074C686.54 429.514 686.96 424.514 686.96 421.074L686.96 418.634ZM681.62 420.294C683.66 420.214 686.66 420.054 689.6 419.914L689.58 421.514C686.82 421.714 683.92 421.874 681.82 422.014L681.62 420.294Z" fill="white"/>
<path d="M665.354 466.364C663.034 466.364 661.574 465.424 660.514 464.384L661.634 462.884C662.454 463.724 663.534 464.464 665.074 464.464C666.734 464.464 667.974 463.284 667.974 461.324C667.974 459.384 666.854 458.264 665.174 458.264C664.254 458.264 663.694 458.524 662.834 459.084L661.694 458.364L662.134 451.364L669.614 451.364L669.614 453.324L664.154 453.324L663.814 457.084C664.434 456.764 665.034 456.584 665.834 456.584C668.294 456.584 670.314 458.024 670.314 461.264C670.314 464.504 667.914 466.364 665.354 466.364ZM671.64 469.684L677.2 450.104L678.78 450.104L673.24 469.684L671.64 469.684ZM680.053 466.084L680.053 464.744C684.413 460.904 686.633 458.044 686.633 455.624C686.633 454.044 685.793 452.944 684.153 452.944C682.993 452.944 682.033 453.664 681.253 454.564L679.933 453.304C681.213 451.924 682.513 451.104 684.433 451.104C687.133 451.104 688.873 452.844 688.873 455.524C688.873 458.344 686.593 461.284 683.473 464.284C684.233 464.204 685.173 464.124 685.893 464.124L689.573 464.124L689.573 466.084L680.053 466.084ZM695.959 466.364C693.639 466.364 692.179 465.424 691.119 464.384L692.239 462.884C693.059 463.724 694.139 464.464 695.679 464.464C697.339 464.464 698.579 463.284 698.579 461.324C698.579 459.384 697.459 458.264 695.779 458.264C694.859 458.264 694.299 458.524 693.439 459.084L692.299 458.364L692.739 451.364L700.219 451.364L700.219 453.324L694.759 453.324L694.419 457.084C695.039 456.764 695.639 456.584 696.439 456.584C698.899 456.584 700.919 458.024 700.919 461.264C700.919 464.504 698.519 466.364 695.959 466.364Z" fill="white"/>
</g>
<g filter="url(#filter6_b_73_598)">
<rect x="848" y="321.379" width="118" height="122" rx="10" fill="white" fill-opacity="0.1"/>
<rect x="849" y="322.379" width="116" height="120" rx="9" stroke="#6D6D6D" stroke-width="2"/>
<path d="M858.36 343.994L875.7 343.994L875.7 347.194L873.9 347.194L873.9 345.474L860.08 345.474L860.08 347.194L858.36 347.194L858.36 343.994ZM863.16 345.794L864.92 345.794L864.92 351.034L863.16 351.034L863.16 345.794ZM869.08 345.794L870.86 345.794L870.86 351.034L869.08 351.034L869.08 345.794ZM860.26 346.574L873.74 346.574L873.74 347.674L860.26 347.674L860.26 346.574ZM860.54 348.434L873.56 348.434L873.56 349.474L860.54 349.474L860.54 348.434ZM858.18 350.214L875.88 350.214L875.88 351.574L858.18 351.574L858.18 350.214ZM863.46 350.574L864.86 351.154C863.48 352.894 861.02 354.494 858.72 355.254C858.46 354.854 857.96 354.214 857.58 353.894C859.82 353.274 862.24 352.014 863.46 350.574ZM870.76 350.494C871.92 351.854 874.22 353.034 876.42 353.574C876.02 353.914 875.5 354.574 875.24 355.014C873 354.294 870.68 352.734 869.38 351.034L870.76 350.494ZM863.06 355.154L863.06 355.934L870.88 355.934L870.88 355.154L863.06 355.154ZM863.06 356.914L863.06 357.734L870.88 357.734L870.88 356.914L863.06 356.914ZM863.06 353.414L863.06 354.194L870.88 354.194L870.88 353.414L863.06 353.414ZM861.32 352.414L872.7 352.414L872.7 358.714L861.32 358.714L861.32 352.414ZM868.12 359.414L869.32 358.394C871.52 358.974 873.98 359.714 875.48 360.234L873.92 361.294C872.58 360.774 870.36 360.034 868.12 359.414ZM864.3 358.374L865.78 359.334C864.16 360.214 861.46 360.974 859.28 361.334C859.02 361.014 858.52 360.434 858.18 360.114C860.36 359.774 863.04 359.034 864.3 358.374ZM865.76 343.094L867.64 342.594C868 343.154 868.38 343.954 868.52 344.454L866.56 345.034C866.44 344.514 866.1 343.694 865.76 343.094ZM877.98 345.874L896 345.874L896 347.614L877.98 347.614L877.98 345.874ZM880.18 352.474L885.6 352.474L885.6 353.914L880.18 353.914L880.18 352.474ZM880.18 355.614L885.6 355.614L885.6 357.054L880.18 357.054L880.18 355.614ZM888.88 349.414L890.64 349.414L890.64 357.614L888.88 357.614L888.88 349.414ZM884.94 349.214L886.76 349.214L886.76 359.374C886.76 360.234 886.58 360.714 885.98 360.994C885.38 361.274 884.48 361.294 883.18 361.294C883.08 360.814 882.8 360.114 882.56 359.654C883.44 359.694 884.32 359.694 884.58 359.674C884.86 359.674 884.94 359.594 884.94 359.334L884.94 349.214ZM892.92 348.834L894.78 348.834L894.78 359.174C894.78 360.174 894.58 360.674 893.88 360.974C893.2 361.254 892.16 361.314 890.64 361.294C890.54 360.794 890.24 359.994 889.96 359.494C891.1 359.534 892.16 359.534 892.5 359.514C892.82 359.514 892.92 359.434 892.92 359.154L892.92 348.834ZM880.94 343.414L882.72 342.774C883.46 343.594 884.3 344.734 884.66 345.494L882.76 346.174C882.46 345.434 881.68 344.254 880.94 343.414ZM891.22 342.714L893.26 343.354C892.48 344.614 891.58 345.954 890.86 346.854L889.16 346.254C889.88 345.314 890.74 343.814 891.22 342.714ZM879.3 349.214L881 349.214L881 353.934C881 356.214 880.76 359.374 879.28 361.394C879 361.094 878.26 360.534 877.86 360.314C879.16 358.474 879.3 355.894 879.3 353.914L879.3 349.214ZM880.4 349.214L885.82 349.214L885.82 350.734L880.4 350.734L880.4 349.214ZM899.04 344.974L915.02 344.974L915.02 346.934L899.04 346.934L899.04 344.974ZM897.96 357.994L916.08 357.994L916.08 359.894L897.96 359.894L897.96 357.994ZM905.86 346.014L908 346.014L908 358.774L905.86 358.774L905.86 346.014ZM926.78 346.114L936.32 346.114L936.32 347.914L925.9 347.914L926.78 346.114ZM929.34 350.474L935.84 350.474L935.84 352.194L929.34 352.194L929.34 350.474ZM929.32 354.894L936.1 354.894L936.1 356.674L929.32 356.674L929.32 354.894ZM928.38 346.714L930.32 346.714L930.32 361.354L928.38 361.354L928.38 346.714ZM927.42 343.014L929.24 343.494C928.12 346.694 926.36 349.914 924.52 351.994C924.22 351.654 923.48 350.974 923.06 350.674C924.86 348.834 926.46 345.934 927.42 343.014ZM922.4 342.874L924.22 343.454C922.92 346.854 920.84 350.374 918.66 352.614C918.48 352.174 917.92 351.114 917.58 350.654C919.5 348.774 921.32 345.834 922.4 342.874ZM920.32 348.194L922.2 346.294L922.22 346.314L922.22 361.334L920.32 361.334L920.32 348.194ZM949 343.074L950.78 342.654C951.14 343.614 951.6 344.874 951.78 345.634L949.92 346.154C949.76 345.374 949.36 344.054 949 343.074ZM944.34 346.234L956.24 346.234L956.24 348.054L944.34 348.054L944.34 346.234ZM948.44 350.894L953.9 350.894L953.9 352.654L948.44 352.654L948.44 350.894ZM953.34 350.894L955.24 350.894C955.24 350.894 955.22 351.474 955.2 351.734C954.96 357.474 954.72 359.654 954.08 360.394C953.66 360.934 953.22 361.094 952.52 361.154C951.92 361.214 950.84 361.234 949.72 361.174C949.7 360.614 949.46 359.834 949.12 359.314C950.22 359.394 951.24 359.414 951.68 359.414C952.04 359.414 952.24 359.374 952.46 359.154C952.9 358.694 953.14 356.614 953.34 351.214L953.34 350.894ZM937.98 347.734L944.42 347.734L944.42 349.534L937.98 349.534L937.98 347.734ZM940.38 343.114L942.22 343.114L942.22 356.454L940.38 356.454L940.38 343.114ZM937.62 356.494C939.38 355.934 942.04 354.994 944.58 354.054L944.94 355.814C942.56 356.754 940.02 357.714 938.06 358.454L937.62 356.494ZM947.52 347.274L949.42 347.274L949.42 350.734C949.42 354.114 948.76 358.354 944.14 361.374C943.82 360.974 943.18 360.414 942.7 360.074C946.98 357.254 947.52 353.514 947.52 350.694L947.52 347.274ZM895.36 375.374L906.06 375.374L906.06 377.134L895.36 377.134L895.36 375.374ZM895.94 379.914L905.54 379.914L905.54 381.654L895.94 381.654L895.94 379.914ZM897.36 388.774L904.08 388.774L904.08 390.494L897.36 390.494L897.36 388.774ZM899.62 372.774L901.54 372.774L901.54 380.834L899.62 380.834L899.62 372.774ZM896.34 383.514L905 383.514L905 391.274L903.18 391.274L903.18 385.214L898.1 385.214L898.1 391.354L896.34 391.354L896.34 383.514ZM892.74 380.834L894.14 380.434C894.68 381.774 895.24 383.534 895.46 384.594L893.98 385.114C893.78 384.014 893.26 382.214 892.74 380.834ZM890.82 386.034L892.2 385.774C892.48 387.214 892.72 389.054 892.8 390.294L891.32 390.594C891.28 389.354 891.06 387.474 890.82 386.034ZM888.54 385.814L890.08 386.074C889.88 387.874 889.52 389.814 889.1 391.054C888.76 390.874 888.02 390.654 887.62 390.534C888.1 389.314 888.36 387.474 888.54 385.814ZM888.18 380.494C888.08 380.114 887.8 379.294 887.6 378.834C887.98 378.734 888.32 378.334 888.74 377.734C889.2 377.154 890.58 374.874 891.4 372.714L893.1 373.434C892.04 375.654 890.62 377.954 889.26 379.554L889.26 379.574C889.26 379.574 888.18 380.134 888.18 380.494ZM888.18 380.494L888.12 379.154L888.94 378.654L892.46 378.374C892.38 378.814 892.32 379.474 892.3 379.854C889.12 380.194 888.54 380.314 888.18 380.494ZM888.32 385.054C888.22 384.694 887.94 383.834 887.72 383.354C888.2 383.254 888.64 382.774 889.28 382.054C889.94 381.334 892.06 378.534 893.36 375.854L894.94 376.814C893.4 379.474 891.38 382.194 889.42 384.114L889.42 384.154C889.42 384.154 888.32 384.714 888.32 385.054ZM888.32 385.054L888.24 383.674L889.1 383.114L894.46 382.434C894.38 382.894 894.34 383.574 894.36 383.954C889.48 384.654 888.76 384.834 888.32 385.054ZM892.9 385.634L894.2 385.214C894.68 386.454 895.16 388.074 895.38 389.134L894 389.594C893.82 388.534 893.34 386.874 892.9 385.634ZM908.46 374.814L925.56 374.814L925.56 376.574L908.46 376.574L908.46 374.814ZM915.98 372.814L917.94 372.814L917.94 391.354L915.98 391.354L915.98 372.814ZM915.82 383.534L917.42 384.234C915.5 387.014 912.16 389.494 909.02 390.774C908.72 390.314 908.14 389.574 907.7 389.194C910.8 388.134 914.12 385.874 915.82 383.534ZM918.24 383.614C919.94 385.934 923.26 388.114 926.38 389.154C925.92 389.554 925.32 390.314 925.02 390.814C921.88 389.534 918.6 387.054 916.68 384.294L918.24 383.614ZM911.64 380.174L911.64 382.874L922.34 382.874L922.34 380.174L911.64 380.174ZM909.82 378.494L924.28 378.494L924.28 384.554L909.82 384.554L909.82 378.494Z" fill="white"/>
<path d="M895.538 423.084C895.798 417.724 896.738 414.284 899.598 410.324L892.678 410.324L892.678 408.364L902.138 408.364L902.138 409.764C898.698 414.084 898.158 417.344 897.898 423.084L895.538 423.084ZM903.344 426.684L908.904 407.104L910.484 407.104L904.944 426.684L903.344 426.684ZM912.597 423.084L912.597 421.184L915.837 421.184L915.837 410.944L913.177 410.944L913.177 409.484C914.577 409.244 915.537 408.884 916.397 408.364L918.137 408.364L918.137 421.184L921.017 421.184L921.017 423.084L912.597 423.084Z" fill="white"/>
</g>
<g filter="url(#filter7_b_73_598)">
<rect x="1012" y="283.379" width="118" height="122" rx="10" fill="white" fill-opacity="0.1"/>
<rect x="1013" y="284.379" width="116" height="120" rx="9" stroke="#35EB93" stroke-width="2"/>
<path d="M1041.22 321.954C1039.18 321.954 1037.32 321.154 1035.98 319.794L1037.34 318.174C1038.38 319.234 1039.84 319.914 1041.26 319.914C1043.02 319.914 1044.02 319.094 1044.02 317.834C1044.02 316.494 1043.02 316.074 1041.66 315.494L1039.62 314.594C1038.2 314.014 1036.64 312.894 1036.64 310.754C1036.64 308.434 1038.66 306.694 1041.46 306.694C1043.2 306.694 1044.82 307.414 1045.92 308.554L1044.72 310.014C1043.8 309.214 1042.76 308.714 1041.46 308.714C1039.96 308.714 1039 309.434 1039 310.594C1039 311.854 1040.18 312.334 1041.38 312.834L1043.4 313.674C1045.14 314.414 1046.4 315.494 1046.4 317.654C1046.4 320.014 1044.44 321.954 1041.22 321.954ZM1049.17 321.674L1049.17 306.954L1051.51 306.954L1051.51 321.674L1049.17 321.674ZM1058.34 321.674L1058.34 308.914L1054.02 308.914L1054.02 306.954L1065 306.954L1065 308.914L1060.68 308.914L1060.68 321.674L1058.34 321.674ZM1072.66 321.954C1068.98 321.954 1066.12 319.194 1066.12 314.354C1066.12 309.554 1069.06 306.694 1072.78 306.694C1074.62 306.694 1076.04 307.574 1076.94 308.534L1075.7 310.034C1074.94 309.254 1074.02 308.714 1072.82 308.714C1070.28 308.714 1068.52 310.834 1068.52 314.274C1068.52 317.774 1070.16 319.914 1072.76 319.914C1074.1 319.914 1075.14 319.314 1076 318.354L1077.26 319.814C1076.08 321.194 1074.58 321.954 1072.66 321.954ZM1084.69 321.954C1080.89 321.954 1078.27 319.014 1078.27 314.254C1078.27 309.514 1080.89 306.694 1084.69 306.694C1088.47 306.694 1091.09 309.514 1091.09 314.254C1091.09 319.014 1088.47 321.954 1084.69 321.954ZM1084.69 319.914C1087.13 319.914 1088.71 317.694 1088.71 314.254C1088.71 310.814 1087.13 308.714 1084.69 308.714C1082.23 308.714 1080.67 310.814 1080.67 314.254C1080.67 317.694 1082.23 319.914 1084.69 319.914ZM1094.15 321.674L1094.15 306.954L1096.53 306.954L1101.43 315.614L1102.97 318.714L1103.07 318.714C1102.93 317.214 1102.75 315.414 1102.75 313.834L1102.75 306.954L1104.97 306.954L1104.97 321.674L1102.57 321.674L1097.71 313.014L1096.17 309.914L1096.07 309.914C1096.17 311.454 1096.37 313.134 1096.37 314.754L1096.37 321.674L1094.15 321.674ZM1045.82 337.074L1045.82 341.194L1056.04 341.194L1056.04 337.074L1045.82 337.074ZM1044.02 335.514L1057.94 335.514L1057.94 342.754L1044.02 342.754L1044.02 335.514ZM1046.64 337.914L1047.84 337.494C1048.4 338.374 1048.92 339.534 1049.08 340.334L1047.78 340.814C1047.64 340.054 1047.16 338.834 1046.64 337.914ZM1043.68 344.094L1058.28 344.094L1058.28 345.614L1043.68 345.614L1043.68 344.094ZM1042.06 347.074L1059.94 347.074L1059.94 348.734L1042.06 348.734L1042.06 347.074ZM1050.02 336.154L1051.92 336.154L1051.92 347.934L1050.02 347.934L1050.02 336.154ZM1053.94 337.454L1055.38 337.974C1054.86 339.034 1054.26 340.214 1053.78 340.974L1052.58 340.494C1053.06 339.674 1053.64 338.354 1053.94 337.454ZM1047.66 349.914L1049.42 349.754C1049.66 350.814 1049.84 352.194 1049.84 353.014L1047.98 353.254C1047.98 352.394 1047.86 350.994 1047.66 349.914ZM1051.74 349.974L1053.52 349.614C1053.98 350.634 1054.46 351.974 1054.64 352.814L1052.74 353.254C1052.6 352.394 1052.16 351.034 1051.74 349.974ZM1055.76 349.874L1057.5 349.274C1058.44 350.314 1059.58 351.754 1060.1 352.734L1058.22 353.414C1057.76 352.474 1056.68 350.974 1055.76 349.874ZM1044.18 349.294L1046.02 349.754C1045.56 351.074 1044.74 352.514 1043.8 353.434L1042 352.654C1042.88 351.894 1043.72 350.554 1044.18 349.294ZM1068.54 338.434L1070.56 338.834C1069.14 340.874 1067.1 342.734 1064.1 344.154C1063.84 343.714 1063.26 343.074 1062.84 342.774C1065.64 341.614 1067.54 339.954 1068.54 338.434ZM1068.74 339.874L1075.28 339.874L1075.28 341.314L1067.42 341.314L1068.74 339.874ZM1074.72 339.874L1075.08 339.874L1075.42 339.774L1076.7 340.554C1074 344.834 1068.14 347.274 1062.54 348.354C1062.36 347.874 1061.96 347.094 1061.62 346.674C1066.9 345.814 1072.52 343.554 1074.72 340.154L1074.72 339.874ZM1067.92 340.974C1070.24 343.814 1075.02 345.594 1080.38 346.214C1079.96 346.654 1079.44 347.474 1079.18 348.014C1073.74 347.214 1069.02 345.154 1066.26 341.714L1067.92 340.974ZM1065.46 347.154L1076.68 347.154L1076.68 353.314L1074.74 353.314L1074.74 348.734L1067.32 348.734L1067.32 353.354L1065.46 353.354L1065.46 347.154ZM1066.52 351.134L1075.72 351.134L1075.72 352.714L1066.52 352.714L1066.52 351.134ZM1062.46 336.534L1079.52 336.534L1079.52 340.594L1077.6 340.594L1077.6 338.254L1064.32 338.254L1064.32 340.594L1062.46 340.594L1062.46 336.534ZM1069.44 335.054L1071.3 334.594C1071.82 335.394 1072.44 336.514 1072.74 337.234L1070.78 337.754C1070.52 337.054 1069.92 335.914 1069.44 335.054ZM1081.9 338.914L1088.9 338.914L1088.9 340.674L1081.9 340.674L1081.9 338.914ZM1084.72 334.794L1086.44 334.794L1086.44 353.354L1084.72 353.354L1084.72 334.794ZM1084.7 340.134L1085.76 340.554C1085.18 343.814 1083.88 347.754 1082.48 349.794C1082.28 349.254 1081.86 348.414 1081.52 347.914C1082.88 346.194 1084.14 342.854 1084.7 340.134ZM1086.36 341.414C1086.84 341.974 1088.56 344.514 1088.94 345.114L1087.82 346.434C1087.36 345.354 1086.06 342.994 1085.48 342.114L1086.36 341.414ZM1089.56 352.574C1089.48 352.194 1089.18 351.274 1088.96 350.774C1089.4 350.654 1089.76 350.034 1090.24 349.074C1090.76 348.154 1092.28 344.614 1093.12 341.314L1095.02 341.814C1093.96 345.354 1092.4 348.954 1090.9 351.494L1090.9 351.534C1090.9 351.534 1089.56 352.214 1089.56 352.574ZM1089.56 352.574L1089.5 351.054L1090.5 350.394L1098.26 349.494C1098.28 350.014 1098.42 350.754 1098.52 351.134C1091.14 352.134 1090.22 352.254 1089.56 352.574ZM1095.6 346.674L1097.22 346.034C1098.2 347.994 1099.44 350.654 1100.02 352.194L1098.28 353.034C1097.74 351.414 1096.56 348.714 1095.6 346.674ZM1091.42 335.494L1093.22 335.834C1092.62 339.154 1091.6 342.434 1090.12 344.554C1089.88 344.174 1089.22 343.414 1088.84 343.074C1090.16 341.254 1090.96 338.434 1091.42 335.494ZM1095.04 335.354L1096.98 335.354C1097.52 338.294 1098.66 341.334 1100.06 343.014C1099.64 343.334 1098.98 344.054 1098.64 344.514C1097.18 342.494 1096.04 339.294 1095.42 336.274L1095.04 336.274L1095.04 335.354ZM1093.78 335.354L1096.64 335.354L1096.64 336.954L1093.78 336.954L1093.78 335.354Z" fill="white"/>
<path d="M1034.04 385.084C1034.3 379.724 1035.24 376.284 1038.1 372.324L1031.18 372.324L1031.18 370.364L1040.64 370.364L1040.64 371.764C1037.2 376.084 1036.66 379.344 1036.4 385.084L1034.04 385.084ZM1041.84 388.684L1047.4 369.104L1048.98 369.104L1043.44 388.684L1041.84 388.684ZM1055.54 385.364C1052.74 385.364 1050.46 383.004 1050.46 378.004C1050.46 372.364 1053.1 370.104 1056.02 370.104C1057.66 370.104 1058.86 370.784 1059.7 371.684L1058.44 373.084C1057.9 372.444 1057 371.984 1056.14 371.984C1054.18 371.984 1052.6 373.504 1052.6 378.004C1052.6 381.804 1053.72 383.584 1055.52 383.584C1056.8 383.584 1057.8 382.424 1057.8 380.524C1057.8 378.624 1056.94 377.564 1055.38 377.564C1054.5 377.564 1053.44 378.084 1052.56 379.424L1052.46 377.744C1053.32 376.584 1054.68 375.904 1055.78 375.904C1058.26 375.904 1059.94 377.404 1059.94 380.524C1059.94 383.444 1057.92 385.364 1055.54 385.364ZM1072.94 379.424C1071.16 379.424 1070.26 377.584 1069 377.584C1068.36 377.584 1067.8 378.024 1067.3 378.944L1066.06 378.024C1066.96 376.504 1068.02 375.904 1069.04 375.904C1070.84 375.904 1071.74 377.744 1072.98 377.744C1073.62 377.744 1074.18 377.324 1074.68 376.404L1075.94 377.324C1075.02 378.824 1073.96 379.424 1072.94 379.424ZM1085.03 385.084C1085.29 379.724 1086.23 376.284 1089.09 372.324L1082.17 372.324L1082.17 370.364L1091.63 370.364L1091.63 371.764C1088.19 376.084 1087.65 379.344 1087.39 385.084L1085.03 385.084ZM1092.84 388.684L1098.4 369.104L1099.98 369.104L1094.44 388.684L1092.84 388.684ZM1104.23 385.084C1104.49 379.724 1105.43 376.284 1108.29 372.324L1101.37 372.324L1101.37 370.364L1110.83 370.364L1110.83 371.764C1107.39 376.084 1106.85 379.344 1106.59 385.084L1104.23 385.084Z" fill="white"/>
</g>
<defs>
<filter id="filter0_f_73_598" x="89.2896" y="462.74" width="1073.18" height="245.963" filterUnits="userSpaceOnUse" color-interpolation-filters="sRGB">
<feFlood flood-opacity="0" result="BackgroundImageFix"/>
<feBlend mode="normal" in="SourceGraphic" in2="BackgroundImageFix" result="shape"/>
<feGaussianBlur stdDeviation="5" result="effect1_foregroundBlur_73_598"/>
</filter>
<filter id="filter1_b_73_598" x="17.8035" y="438.182" width="254.393" height="228.393" filterUnits="userSpaceOnUse" color-interpolation-filters="sRGB">
<feFlood flood-opacity="0" result="BackgroundImageFix"/>
<feGaussianBlur in="BackgroundImageFix" stdDeviation="34.0984"/>
<feComposite in2="SourceAlpha" operator="in" result="effect1_backgroundBlur_73_598"/>
<feBlend mode="normal" in="SourceGraphic" in2="effect1_backgroundBlur_73_598" result="shape"/>
</filter>
<filter id="filter2_b_73_598" x="177.803" y="402.182" width="254.393" height="228.393" filterUnits="userSpaceOnUse" color-interpolation-filters="sRGB">
<feFlood flood-opacity="0" result="BackgroundImageFix"/>
<feGaussianBlur in="BackgroundImageFix" stdDeviation="34.0984"/>
<feComposite in2="SourceAlpha" operator="in" result="effect1_backgroundBlur_73_598"/>
<feBlend mode="normal" in="SourceGraphic" in2="effect1_backgroundBlur_73_598" result="shape"/>
</filter>
<filter id="filter3_b_73_598" x="297.303" y="377.182" width="257.393" height="228.393" filterUnits="userSpaceOnUse" color-interpolation-filters="sRGB">
<feFlood flood-opacity="0" result="BackgroundImageFix"/>
<feGaussianBlur in="BackgroundImageFix" stdDeviation="34.0984"/>
<feComposite in2="SourceAlpha" operator="in" result="effect1_backgroundBlur_73_598"/>
<feBlend mode="normal" in="SourceGraphic" in2="effect1_backgroundBlur_73_598" result="shape"/>
</filter>
<filter id="filter4_b_73_598" x="429.303" y="353.182" width="257.393" height="228.393" filterUnits="userSpaceOnUse" color-interpolation-filters="sRGB">
<feFlood flood-opacity="0" result="BackgroundImageFix"/>
<feGaussianBlur in="BackgroundImageFix" stdDeviation="34.0984"/>
<feComposite in2="SourceAlpha" operator="in" result="effect1_backgroundBlur_73_598"/>
<feBlend mode="normal" in="SourceGraphic" in2="effect1_backgroundBlur_73_598" result="shape"/>
</filter>
<filter id="filter5_b_73_598" x="553.803" y="296.182" width="254.393" height="258.393" filterUnits="userSpaceOnUse" color-interpolation-filters="sRGB">
<feFlood flood-opacity="0" result="BackgroundImageFix"/>
<feGaussianBlur in="BackgroundImageFix" stdDeviation="34.0984"/>
<feComposite in2="SourceAlpha" operator="in" result="effect1_backgroundBlur_73_598"/>
<feBlend mode="normal" in="SourceGraphic" in2="effect1_backgroundBlur_73_598" result="shape"/>
</filter>
<filter id="filter6_b_73_598" x="779.804" y="253.182" width="254.393" height="258.393" filterUnits="userSpaceOnUse" color-interpolation-filters="sRGB">
<feFlood flood-opacity="0" result="BackgroundImageFix"/>
<feGaussianBlur in="BackgroundImageFix" stdDeviation="34.0984"/>
<feComposite in2="SourceAlpha" operator="in" result="effect1_backgroundBlur_73_598"/>
<feBlend mode="normal" in="SourceGraphic" in2="effect1_backgroundBlur_73_598" result="shape"/>
</filter>
<filter id="filter7_b_73_598" x="943.803" y="215.182" width="254.393" height="258.393" filterUnits="userSpaceOnUse" color-interpolation-filters="sRGB">
<feFlood flood-opacity="0" result="BackgroundImageFix"/>
<feGaussianBlur in="BackgroundImageFix" stdDeviation="34.0984"/>
<feComposite in2="SourceAlpha" operator="in" result="effect1_backgroundBlur_73_598"/>
<feBlend mode="normal" in="SourceGraphic" in2="effect1_backgroundBlur_73_598" result="shape"/>
</filter>
<linearGradient id="paint0_linear_73_598" x1="1148.24" y1="477.348" x2="473.126" y2="1096.87" gradientUnits="userSpaceOnUse">
<stop stop-color="#73BB3A"/>
<stop offset="0.264" stop-color="#35EB93"/>
<stop offset="0.534" stop-color="#3D3393"/>
<stop offset="0.753141" stop-color="#2CACD1"/>
<stop offset="0.994" stop-color="#2B76B9"/>
</linearGradient>
<linearGradient id="paint1_linear_73_598" x1="1148.66" y1="466.66" x2="473.54" y2="1086.18" gradientUnits="userSpaceOnUse">
<stop stop-color="#73BB3A"/>
<stop offset="0.264" stop-color="#35EB93"/>
<stop offset="0.534" stop-color="#3D3393"/>
<stop offset="0.753141" stop-color="#2CACD1"/>
<stop offset="0.994" stop-color="#2B76B9"/>
</linearGradient>
<linearGradient id="paint2_linear_73_598" x1="145.084" y1="675.995" x2="167.132" y2="675.995" gradientUnits="userSpaceOnUse">
<stop stop-opacity="0.2"/>
<stop offset="1" stop-opacity="0"/>
</linearGradient>
<linearGradient id="paint3_linear_73_598" x1="305.084" y1="639.996" x2="327.131" y2="639.996" gradientUnits="userSpaceOnUse">
<stop stop-opacity="0.2"/>
<stop offset="1" stop-opacity="0"/>
</linearGradient>
<linearGradient id="paint4_linear_73_598" x1="425.38" y1="616.996" x2="447.427" y2="616.996" gradientUnits="userSpaceOnUse">
<stop stop-opacity="0.2"/>
<stop offset="1" stop-opacity="0"/>
</linearGradient>
<linearGradient id="paint5_linear_73_598" x1="557.38" y1="588.996" x2="579.427" y2="588.996" gradientUnits="userSpaceOnUse">
<stop stop-opacity="0.2"/>
<stop offset="1" stop-opacity="0"/>
</linearGradient>
<linearGradient id="paint6_linear_73_598" x1="680.38" y1="563.996" x2="702.427" y2="563.996" gradientUnits="userSpaceOnUse">
<stop stop-opacity="0.2"/>
<stop offset="1" stop-opacity="0"/>
</linearGradient>
<linearGradient id="paint7_linear_73_598" x1="906.38" y1="520.996" x2="928.427" y2="520.996" gradientUnits="userSpaceOnUse">
<stop stop-opacity="0.2"/>
<stop offset="1" stop-opacity="0"/>
</linearGradient>
<linearGradient id="paint8_linear_73_598" x1="1070.38" y1="482.996" x2="1092.43" y2="482.996" gradientUnits="userSpaceOnUse">
<stop stop-opacity="0.2"/>
<stop offset="1" stop-opacity="0"/>
</linearGradient>
</defs>
</svg>
