<svg xmlns="http://www.w3.org/2000/svg" viewBox="0 0 48.11 69.69"><defs><style>.cls-1{fill:#77b55a;}</style></defs><title>SITCON-LOGO-icon</title><g id="圖層_2" data-name="圖層 2"><g id="圖層_1-2" data-name="圖層 1"><path class="cls-1" d="M33.33,2.16A11.45,11.45,0,0,1,42.21.21S41.4,6,37.35,9.07s-9.83,2.37-9.83,2.37A50.43,50.43,0,0,0,30,7.06C30.77,5.62,31.84,3.31,33.33,2.16Z"/><path class="cls-1" d="M23.6,6.86a5.37,5.37,0,0,0-4.15-.92,7,7,0,0,0,2.27,4.14,7,7,0,0,0,4.59,1.11s-.58-.89-1.17-2A6.77,6.77,0,0,0,23.6,6.86Z"/><path class="cls-1" d="M24.06,20.59c.55,0,1.11,0,1.66.06A12.8,12.8,0,0,1,26.84,12c-2.65,2.13-3.95,5.4-4.61,8.67C22.84,20.62,23.45,20.59,24.06,20.59Z"/><path class="cls-1" d="M24.06,21.58A24.06,24.06,0,1,0,48.11,45.64,24.06,24.06,0,0,0,24.06,21.58Zm9.83,33.89L24.06,48.7l-9.83,6.77L21,45.64l-6.76-9.83,9.83,6.76,9.83-6.76-6.77,9.83Z"/></g></g></svg>