<svg width="328" height="328" viewBox="0 0 328 328" fill="none" xmlns="http://www.w3.org/2000/svg">
<g filter="url(#filter0_f_152_2156)">
<circle cx="164" cy="164" r="44" fill="#FFFDD1"/>
</g>
<g clip-path="url(#clip0_152_2156)">
<g filter="url(#filter1_d_152_2156)">
<path d="M179.028 137.675C189.095 136.21 196.392 146.988 191.379 155.915C190.399 157.658 189.854 159.613 189.79 161.613C189.727 163.612 190.148 165.597 191.017 167.399C195.454 176.576 187.488 186.953 177.535 184.961C175.581 184.573 173.561 184.667 171.652 185.236C169.743 185.805 168.001 186.831 166.578 188.225C164.943 189.833 162.888 190.947 160.649 191.441C158.41 191.934 156.077 191.787 153.918 191.015C151.759 190.244 149.861 188.879 148.442 187.079C147.022 185.278 146.139 183.114 145.893 180.834C145.675 178.855 144.978 176.958 143.861 175.309C142.745 173.66 141.243 172.308 139.487 171.37C130.536 166.603 130.937 153.526 140.184 149.23C141.997 148.388 143.581 147.12 144.799 145.535C146.018 143.95 146.836 142.094 147.184 140.125C148.964 130.044 161.438 126.327 168.297 133.84C169.636 135.308 171.315 136.425 173.185 137.093C175.056 137.762 177.062 137.962 179.028 137.675Z" fill="#FFDB00"/>
<path d="M168.528 186.671L169.244 197.6L162.263 199.102" stroke="#231815" stroke-width="0.995868" stroke-linecap="round" stroke-linejoin="round"/>
<path d="M176.932 183.934L183.093 193.638L189.618 190.736" stroke="#231815" stroke-width="0.995868" stroke-linecap="round" stroke-linejoin="round"/>
<path d="M158.767 177.094L157.797 182.973L162.979 181.286" stroke="#231815" stroke-width="0.995868" stroke-linecap="round" stroke-linejoin="round"/>
<path d="M180.064 170.15L184.313 174.334L179.136 176.02" stroke="#231815" stroke-width="0.995868" stroke-linecap="round" stroke-linejoin="round"/>
<path d="M155.314 163.918C157.294 163.918 158.899 162.313 158.899 160.333C158.899 158.354 157.294 156.749 155.314 156.749C153.334 156.749 151.729 158.354 151.729 160.333C151.729 162.313 153.334 163.918 155.314 163.918Z" fill="white"/>
<path d="M156.068 161.624C156.916 161.624 157.604 160.937 157.604 160.088C157.604 159.24 156.916 158.553 156.068 158.553C155.22 158.553 154.532 159.24 154.532 160.088C154.532 160.937 155.22 161.624 156.068 161.624Z" fill="#231815"/>
<path d="M172.282 158.581C174.262 158.581 175.867 156.976 175.867 154.996C175.867 153.016 174.262 151.411 172.282 151.411C170.302 151.411 168.697 153.016 168.697 154.996C168.697 156.976 170.302 158.581 172.282 158.581Z" fill="white"/>
<path d="M171.472 156.602C172.32 156.602 173.008 155.915 173.008 155.067C173.008 154.219 172.32 153.531 171.472 153.531C170.624 153.531 169.937 154.219 169.937 155.067C169.937 155.915 170.624 156.602 171.472 156.602Z" fill="#231815"/>
<path d="M161.693 168.327C162.051 169.425 164.599 169.58 167.388 168.671C170.177 167.762 172.141 166.137 171.783 165.039C171.425 163.942 169.324 165.157 166.535 166.066C163.746 166.975 161.335 167.225 161.693 168.327Z" fill="#231815"/>
<path d="M163.826 164.319C167.453 164.319 170.393 161.379 170.393 157.752C170.393 154.125 167.453 151.185 163.826 151.185C160.2 151.185 157.26 154.125 157.26 157.752C157.26 161.379 160.2 164.319 163.826 164.319Z" fill="#231815"/>
</g>
</g>
<defs>
<filter id="filter0_f_152_2156" x="0" y="0" width="328" height="328" filterUnits="userSpaceOnUse" color-interpolation-filters="sRGB">
<feFlood flood-opacity="0" result="BackgroundImageFix"/>
<feBlend mode="normal" in="SourceGraphic" in2="BackgroundImageFix" result="shape"/>
<feGaussianBlur stdDeviation="60" result="effect1_foregroundBlur_152_2156"/>
</filter>
<filter id="filter1_d_152_2156" x="131.612" y="129.865" width="62.7827" height="72.5211" filterUnits="userSpaceOnUse" color-interpolation-filters="sRGB">
<feFlood flood-opacity="0" result="BackgroundImageFix"/>
<feColorMatrix in="SourceAlpha" type="matrix" values="0 0 0 0 0 0 0 0 0 0 0 0 0 0 0 0 0 0 127 0" result="hardAlpha"/>
<feOffset dy="1.39282"/>
<feGaussianBlur stdDeviation="0.696411"/>
<feComposite in2="hardAlpha" operator="out"/>
<feColorMatrix type="matrix" values="0 0 0 0 0 0 0 0 0 0 0 0 0 0 0 0 0 0 0.25 0"/>
<feBlend mode="normal" in2="BackgroundImageFix" result="effect1_dropShadow_152_2156"/>
<feBlend mode="normal" in="SourceGraphic" in2="effect1_dropShadow_152_2156" result="shape"/>
</filter>
<clipPath id="clip0_152_2156">
<rect width="60" height="69.9113" fill="white" transform="translate(133 129.865)"/>
</clipPath>
</defs>
</svg>
