<svg width="328" height="328" viewBox="0 0 328 328" fill="none" xmlns="http://www.w3.org/2000/svg">
<g filter="url(#filter0_f_152_2159)">
<circle cx="164" cy="164" r="44" fill="#2CACD1" fill-opacity="0.8"/>
</g>
<g clip-path="url(#clip0_152_2159)">
<g filter="url(#filter1_d_152_2159)">
<path d="M140.473 147.045C144.588 143.462 150.247 139.917 158.031 137.041C180.697 128.661 188.284 135.535 190.131 137.958C190.402 138.311 190.623 138.699 190.788 139.111L195.033 149.431C195.55 150.684 195.551 152.091 195.036 153.345C194.521 154.598 193.53 155.598 192.281 156.125L166.38 167.052L168.24 171.539C169.279 174.059 169.276 176.889 168.23 179.406C167.184 181.924 165.181 183.923 162.661 184.964L150.941 189.774C148.422 190.813 145.593 190.809 143.076 189.763C140.56 188.717 138.562 186.714 137.522 184.195L133.903 175.394C131.9 170.575 131.457 165.249 132.635 160.164C133.814 155.08 136.554 150.492 140.473 147.045Z" fill="#67C7F2"/>
<path d="M162.729 182.677L172.274 213.4L179.687 211.299" stroke="#231815" stroke-width="1.14078" stroke-linecap="round" stroke-linejoin="round"/>
<path d="M151.734 186.321L149.311 202.343L155.633 206.737" stroke="#231815" stroke-width="1.14078" stroke-linecap="round" stroke-linejoin="round"/>
<path d="M181.87 166.429L171.419 175.023C169.83 176.329 169.601 178.677 170.908 180.266L189.351 202.694C190.657 204.284 193.005 204.512 194.594 203.206L205.044 194.612C206.633 193.306 206.862 190.958 205.556 189.369L187.113 166.941C185.806 165.352 183.459 165.123 181.87 166.429Z" fill="white" stroke="#231815" stroke-width="1.14078" stroke-linecap="round" stroke-linejoin="round"/>
<path d="M179.608 184.942L178.546 185.816C178.242 186.066 178.198 186.515 178.448 186.819L184.99 194.775C185.24 195.08 185.69 195.123 185.994 194.873L187.056 193.999C187.36 193.749 187.404 193.3 187.154 192.996L180.612 185.04C180.362 184.736 179.913 184.692 179.608 184.942Z" fill="white" stroke="#231815" stroke-width="0.778844" stroke-miterlimit="10"/>
<path d="M179.971 171.215L179.195 171.853C178.812 172.168 178.757 172.735 179.072 173.118L179.71 173.894C180.025 174.277 180.591 174.332 180.974 174.017L181.75 173.379C182.133 173.064 182.189 172.498 181.873 172.114L181.236 171.339C180.92 170.955 180.354 170.9 179.971 171.215Z" fill="white" stroke="#231815" stroke-width="0.380259" stroke-miterlimit="10"/>
<path d="M182.252 173.983L181.477 174.621C181.094 174.936 181.038 175.502 181.354 175.886L181.991 176.661C182.306 177.045 182.873 177.1 183.256 176.785L184.032 176.147C184.415 175.832 184.47 175.265 184.155 174.882L183.517 174.106C183.202 173.723 182.636 173.668 182.252 173.983Z" fill="white" stroke="#231815" stroke-width="0.380259" stroke-miterlimit="10"/>
<path d="M184.529 176.755L183.754 177.392C183.37 177.708 183.315 178.274 183.63 178.657L184.268 179.433C184.583 179.816 185.15 179.871 185.533 179.556L186.309 178.918C186.692 178.603 186.747 178.037 186.432 177.653L185.794 176.878C185.479 176.495 184.913 176.439 184.529 176.755Z" fill="white" stroke="#231815" stroke-width="0.380259" stroke-miterlimit="10"/>
<path d="M186.805 179.528L186.03 180.166C185.646 180.481 185.591 181.048 185.906 181.431L186.544 182.207C186.859 182.59 187.426 182.645 187.809 182.33L188.584 181.692C188.968 181.377 189.023 180.811 188.708 180.427L188.07 179.652C187.755 179.268 187.189 179.213 186.805 179.528Z" fill="white" stroke="#231815" stroke-width="0.380259" stroke-miterlimit="10"/>
<path d="M189.087 182.296L188.311 182.934C187.928 183.249 187.873 183.815 188.188 184.199L188.826 184.974C189.141 185.358 189.707 185.413 190.091 185.098L190.866 184.46C191.25 184.145 191.305 183.578 190.99 183.195L190.352 182.419C190.037 182.036 189.47 181.981 189.087 182.296Z" fill="white" stroke="#231815" stroke-width="0.380259" stroke-miterlimit="10"/>
<path d="M191.368 185.072L190.592 185.71C190.209 186.025 190.154 186.592 190.469 186.975L191.106 187.751C191.422 188.134 191.988 188.189 192.371 187.874L193.147 187.236C193.53 186.921 193.586 186.355 193.27 185.971L192.633 185.196C192.317 184.812 191.751 184.757 191.368 185.072Z" fill="white" stroke="#231815" stroke-width="0.380259" stroke-miterlimit="10"/>
<path d="M193.649 187.84L192.874 188.478C192.49 188.793 192.435 189.359 192.75 189.743L193.388 190.518C193.703 190.902 194.27 190.957 194.653 190.642L195.429 190.004C195.812 189.689 195.867 189.122 195.552 188.739L194.914 187.963C194.599 187.58 194.033 187.525 193.649 187.84Z" fill="white" stroke="#231815" stroke-width="0.380259" stroke-miterlimit="10"/>
<path d="M195.925 190.614L195.15 191.251C194.766 191.567 194.711 192.133 195.026 192.516L195.664 193.292C195.979 193.675 196.546 193.731 196.929 193.415L197.705 192.778C198.088 192.462 198.143 191.896 197.828 191.513L197.19 190.737C196.875 190.354 196.309 190.298 195.925 190.614Z" fill="white" stroke="#231815" stroke-width="0.380259" stroke-miterlimit="10"/>
<path d="M198.172 193.348L197.396 193.985C197.013 194.3 196.958 194.867 197.273 195.25L197.911 196.026C198.226 196.409 198.792 196.464 199.176 196.149L199.951 195.511C200.335 195.196 200.39 194.63 200.075 194.246L199.437 193.471C199.122 193.087 198.555 193.032 198.172 193.348Z" fill="white" stroke="#231815" stroke-width="0.380259" stroke-miterlimit="10"/>
<path d="M184.815 169.559L184.04 170.197C183.656 170.512 183.601 171.078 183.917 171.462L184.554 172.237C184.869 172.62 185.436 172.676 185.819 172.36L186.595 171.723C186.978 171.407 187.033 170.841 186.718 170.458L186.08 169.682C185.765 169.299 185.199 169.244 184.815 169.559Z" fill="white" stroke="#231815" stroke-width="0.380259" stroke-miterlimit="10"/>
<path d="M187.097 172.327L186.322 172.964C185.938 173.279 185.883 173.846 186.198 174.229L186.836 175.005C187.151 175.388 187.718 175.443 188.101 175.128L188.876 174.49C189.26 174.175 189.315 173.609 189 173.225L188.362 172.45C188.047 172.067 187.481 172.011 187.097 172.327Z" fill="white" stroke="#231815" stroke-width="0.380259" stroke-miterlimit="10"/>
<path d="M189.368 175.104L188.593 175.742C188.209 176.057 188.154 176.624 188.469 177.007L189.107 177.782C189.422 178.166 189.989 178.221 190.372 177.906L191.147 177.268C191.531 176.953 191.586 176.387 191.271 176.003L190.633 175.228C190.318 174.844 189.752 174.789 189.368 175.104Z" fill="white" stroke="#231815" stroke-width="0.380259" stroke-miterlimit="10"/>
<path d="M191.65 177.872L190.874 178.51C190.491 178.825 190.436 179.391 190.751 179.775L191.389 180.55C191.704 180.933 192.27 180.989 192.654 180.673L193.429 180.036C193.813 179.72 193.868 179.154 193.553 178.771L192.915 177.995C192.6 177.612 192.033 177.557 191.65 177.872Z" fill="white" stroke="#231815" stroke-width="0.380259" stroke-miterlimit="10"/>
<path d="M193.932 180.639L193.156 181.277C192.773 181.592 192.717 182.159 193.033 182.542L193.67 183.318C193.986 183.701 194.552 183.756 194.935 183.441L195.711 182.803C196.094 182.488 196.15 181.922 195.834 181.538L195.197 180.763C194.881 180.379 194.315 180.324 193.932 180.639Z" fill="white" stroke="#231815" stroke-width="0.380259" stroke-miterlimit="10"/>
<path d="M196.202 183.411L195.427 184.049C195.043 184.364 194.988 184.93 195.303 185.314L195.941 186.089C196.256 186.473 196.823 186.528 197.206 186.213L197.981 185.575C198.365 185.26 198.42 184.693 198.105 184.31L197.467 183.534C197.152 183.151 196.586 183.096 196.202 183.411Z" fill="white" stroke="#231815" stroke-width="0.380259" stroke-miterlimit="10"/>
<path d="M198.484 186.185L197.708 186.823C197.325 187.138 197.27 187.704 197.585 188.087L198.223 188.863C198.538 189.246 199.104 189.302 199.488 188.986L200.263 188.349C200.647 188.033 200.702 187.467 200.387 187.084L199.749 186.308C199.434 185.925 198.867 185.87 198.484 186.185Z" fill="white" stroke="#231815" stroke-width="0.380259" stroke-miterlimit="10"/>
<path d="M200.766 188.952L199.99 189.59C199.607 189.905 199.551 190.472 199.867 190.855L200.504 191.631C200.82 192.014 201.386 192.069 201.769 191.754L202.545 191.116C202.928 190.801 202.984 190.235 202.668 189.851L202.031 189.076C201.715 188.692 201.149 188.637 200.766 188.952Z" fill="white" stroke="#231815" stroke-width="0.380259" stroke-miterlimit="10"/>
<path d="M177.794 175.334L177.019 175.971C176.635 176.287 176.58 176.853 176.896 177.236L177.533 178.012C177.848 178.395 178.415 178.45 178.798 178.135L179.574 177.497C179.957 177.182 180.012 176.616 179.697 176.233L179.059 175.457C178.744 175.074 178.178 175.018 177.794 175.334Z" fill="white" stroke="#231815" stroke-width="0.380259" stroke-miterlimit="10"/>
<path d="M180.07 178.101L179.294 178.739C178.911 179.054 178.856 179.621 179.171 180.004L179.809 180.779C180.124 181.163 180.69 181.218 181.074 180.903L181.849 180.265C182.233 179.95 182.288 179.384 181.972 179L181.335 178.225C181.02 177.841 180.453 177.786 180.07 178.101Z" fill="white" stroke="#231815" stroke-width="0.380259" stroke-miterlimit="10"/>
<path d="M182.352 180.869L181.576 181.507C181.193 181.822 181.137 182.388 181.453 182.772L182.09 183.547C182.406 183.93 182.972 183.986 183.355 183.67L184.131 183.033C184.514 182.717 184.569 182.151 184.254 181.768L183.617 180.992C183.301 180.609 182.735 180.554 182.352 180.869Z" fill="white" stroke="#231815" stroke-width="0.380259" stroke-miterlimit="10"/>
<path d="M184.628 183.64L183.853 184.278C183.469 184.593 183.414 185.16 183.729 185.543L184.367 186.319C184.682 186.702 185.249 186.757 185.632 186.442L186.408 185.804C186.791 185.489 186.846 184.923 186.531 184.539L185.893 183.764C185.578 183.38 185.012 183.325 184.628 183.64Z" fill="white" stroke="#231815" stroke-width="0.380259" stroke-miterlimit="10"/>
<path d="M186.908 186.419L186.133 187.057C185.749 187.372 185.694 187.938 186.009 188.322L186.647 189.097C186.962 189.481 187.529 189.536 187.912 189.221L188.688 188.583C189.071 188.268 189.126 187.701 188.811 187.318L188.173 186.542C187.858 186.159 187.292 186.104 186.908 186.419Z" fill="white" stroke="#231815" stroke-width="0.380259" stroke-miterlimit="10"/>
<path d="M189.185 189.191L188.409 189.828C188.026 190.143 187.971 190.71 188.286 191.093L188.924 191.869C189.239 192.252 189.805 192.307 190.189 191.992L190.964 191.354C191.348 191.039 191.403 190.473 191.088 190.089L190.45 189.314C190.135 188.931 189.568 188.875 189.185 189.191Z" fill="white" stroke="#231815" stroke-width="0.380259" stroke-miterlimit="10"/>
<path d="M191.467 191.958L190.691 192.596C190.308 192.911 190.253 193.477 190.568 193.861L191.206 194.636C191.521 195.02 192.087 195.075 192.471 194.76L193.246 194.122C193.629 193.807 193.685 193.24 193.369 192.857L192.732 192.081C192.417 191.698 191.85 191.643 191.467 191.958Z" fill="white" stroke="#231815" stroke-width="0.380259" stroke-miterlimit="10"/>
<path d="M193.743 194.726L192.967 195.363C192.584 195.679 192.529 196.245 192.844 196.628L193.481 197.404C193.797 197.787 194.363 197.843 194.746 197.527L195.522 196.89C195.905 196.574 195.961 196.008 195.645 195.625L195.008 194.849C194.692 194.466 194.126 194.41 193.743 194.726Z" fill="white" stroke="#231815" stroke-width="0.380259" stroke-miterlimit="10"/>
<path d="M163.715 170.585L176.594 170.87" stroke="#231815" stroke-width="1.14078" stroke-linecap="round" stroke-linejoin="round"/>
<path d="M151.003 169.866L147.191 178.437L158.087 178.933" stroke="#231815" stroke-width="1.14078" stroke-linecap="round" stroke-linejoin="round"/>
<path d="M182.092 151.346C186.056 151.346 189.269 148.133 189.269 144.169C189.269 140.205 186.056 136.992 182.092 136.992C178.128 136.992 174.915 140.205 174.915 144.169C174.915 148.133 178.128 151.346 182.092 151.346Z" fill="white"/>
<path d="M183.418 149.859C184.989 149.859 186.263 148.585 186.263 147.014C186.263 145.442 184.989 144.169 183.418 144.169C181.847 144.169 180.573 145.442 180.573 147.014C180.573 148.585 181.847 149.859 183.418 149.859Z" fill="#172A88"/>
<path d="M192.257 150.726C192.402 151.034 192.484 151.368 192.497 151.708C192.51 152.048 192.455 152.387 192.335 152.705C192.214 153.023 192.031 153.314 191.796 153.56C191.56 153.806 191.278 154.002 190.965 154.136C190.653 154.271 190.316 154.341 189.976 154.342C189.636 154.344 189.299 154.277 188.985 154.146C188.671 154.014 188.387 153.821 188.149 153.578C187.912 153.334 187.726 153.045 187.602 152.728L192.257 150.726Z" fill="#C30D23"/>
<path d="M178.472 157.03L192.083 150.894" stroke="white" stroke-width="0.448981" stroke-linecap="round" stroke-linejoin="round"/>
</g>
</g>
<defs>
<filter id="filter0_f_152_2159" x="0" y="0" width="328" height="328" filterUnits="userSpaceOnUse" color-interpolation-filters="sRGB">
<feFlood flood-opacity="0" result="BackgroundImageFix"/>
<feBlend mode="normal" in="SourceGraphic" in2="BackgroundImageFix" result="shape"/>
<feGaussianBlur stdDeviation="60" result="effect1_foregroundBlur_152_2159"/>
</filter>
<filter id="filter1_d_152_2159" x="130.158" y="133.002" width="78.649" height="84.6339" filterUnits="userSpaceOnUse" color-interpolation-filters="sRGB">
<feFlood flood-opacity="0" result="BackgroundImageFix"/>
<feColorMatrix in="SourceAlpha" type="matrix" values="0 0 0 0 0 0 0 0 0 0 0 0 0 0 0 0 0 0 127 0" result="hardAlpha"/>
<feOffset dy="1.83257"/>
<feGaussianBlur stdDeviation="0.916287"/>
<feComposite in2="hardAlpha" operator="out"/>
<feColorMatrix type="matrix" values="0 0 0 0 0 0 0 0 0 0 0 0 0 0 0 0 0 0 0.25 0"/>
<feBlend mode="normal" in2="BackgroundImageFix" result="effect1_dropShadow_152_2159"/>
<feBlend mode="normal" in="SourceGraphic" in2="effect1_dropShadow_152_2159" result="shape"/>
</filter>
<clipPath id="clip0_152_2159">
<rect width="75.1691" height="81.1688" fill="white" transform="translate(132 133)"/>
</clipPath>
</defs>
</svg>
