<svg width="328" height="328" viewBox="0 0 328 328" fill="none" xmlns="http://www.w3.org/2000/svg">
<g filter="url(#filter0_f_152_2160)">
<circle cx="164" cy="164" r="44" fill="#F2953F" fill-opacity="0.8"/>
</g>
<g clip-path="url(#clip0_152_2160)">
<g filter="url(#filter1_d_152_2160)">
<path d="M191.064 151.824C186.907 148.205 181.194 144.625 173.323 141.717C150.439 133.257 142.779 140.199 140.916 142.627C140.653 142.984 140.438 143.373 140.275 143.786L135.965 154.212C135.441 155.477 135.44 156.898 135.961 158.164C136.482 159.43 137.482 160.439 138.744 160.969L164.901 172.024L163.031 176.558C161.984 179.105 161.992 181.962 163.051 184.503C164.11 187.044 166.134 189.061 168.68 190.11L180.49 194.971C183.037 196.02 185.896 196.014 188.438 194.954C190.981 193.895 192.999 191.869 194.048 189.323L197.699 180.446C199.722 175.58 200.169 170.202 198.979 165.069C197.789 159.935 195.021 155.303 191.064 151.824Z" fill="#F39A18"/>
<path d="M168.538 187.805L158.9 218.829L151.419 216.709" stroke="#231815" stroke-width="1.1504" stroke-linecap="round" stroke-linejoin="round"/>
<path d="M179.644 191.487L182.09 207.665L175.705 212.097" stroke="#231815" stroke-width="1.1504" stroke-linecap="round" stroke-linejoin="round"/>
<path d="M151.419 155.34C154.723 155.34 157.401 152.661 157.401 149.358C157.401 146.054 154.723 143.376 151.419 143.376C148.115 143.376 145.437 146.054 145.437 149.358C145.437 152.661 148.115 155.34 151.419 155.34Z" fill="white"/>
<path d="M163.811 177.884L138.353 186.991L125.781 174.675" stroke="#231815" stroke-width="1.1504" stroke-linecap="round" stroke-linejoin="round"/>
<path d="M154.416 148.295C154.416 148.577 154.359 148.856 154.249 149.115C154.139 149.375 153.978 149.61 153.776 149.806L151.367 152.15L150.996 152.515L150.765 152.323L148.056 150.005C147.728 149.726 147.493 149.353 147.384 148.936C147.275 148.519 147.296 148.078 147.446 147.674C147.596 147.27 147.866 146.922 148.22 146.676C148.575 146.431 148.996 146.301 149.427 146.303C149.928 146.3 150.413 146.48 150.791 146.809H150.823C151.119 146.518 151.494 146.321 151.901 146.243C152.308 146.165 152.729 146.21 153.111 146.37C153.494 146.531 153.82 146.802 154.048 147.148C154.277 147.494 154.398 147.899 154.397 148.314L154.416 148.295Z" fill="#C30D23"/>
<path d="M148.697 160.431C148.442 160.397 148.195 160.314 147.973 160.184C147.75 160.055 147.554 159.884 147.398 159.679C147.242 159.474 147.127 159.241 147.061 158.992C146.995 158.743 146.978 158.483 147.012 158.228L150.894 158.747C150.865 159.004 150.784 159.252 150.657 159.477C150.53 159.702 150.359 159.899 150.154 160.056C149.948 160.214 149.714 160.328 149.463 160.392C149.213 160.457 148.952 160.47 148.697 160.431Z" fill="#C30D23"/>
</g>
</g>
<defs>
<filter id="filter0_f_152_2160" x="0" y="0" width="328" height="328" filterUnits="userSpaceOnUse" color-interpolation-filters="sRGB">
<feFlood flood-opacity="0" result="BackgroundImageFix"/>
<feBlend mode="normal" in="SourceGraphic" in2="BackgroundImageFix" result="shape"/>
<feGaussianBlur stdDeviation="60" result="effect1_foregroundBlur_152_2160"/>
</filter>
<filter id="filter1_d_152_2160" x="123.312" y="137.639" width="78.2126" height="85.5524" filterUnits="userSpaceOnUse" color-interpolation-filters="sRGB">
<feFlood flood-opacity="0" result="BackgroundImageFix"/>
<feColorMatrix in="SourceAlpha" type="matrix" values="0 0 0 0 0 0 0 0 0 0 0 0 0 0 0 0 0 0 127 0" result="hardAlpha"/>
<feOffset dy="1.89367"/>
<feGaussianBlur stdDeviation="0.946835"/>
<feComposite in2="hardAlpha" operator="out"/>
<feColorMatrix type="matrix" values="0 0 0 0 0 0 0 0 0 0 0 0 0 0 0 0 0 0 0.25 0"/>
<feBlend mode="normal" in2="BackgroundImageFix" result="effect1_dropShadow_152_2160"/>
<feBlend mode="normal" in="SourceGraphic" in2="effect1_dropShadow_152_2160" result="shape"/>
</filter>
<clipPath id="clip0_152_2160">
<rect width="74.6201" height="81.9662" fill="white" transform="translate(125 137.637)"/>
</clipPath>
</defs>
</svg>
