<svg fill="none" xmlns="http://www.w3.org/2000/svg" viewBox="-17.96 314.57 464.88 539.14"> <g filter="url(#filter0_f_164_9178)"> <path d="M416.692 831.399L341.457 751.124C339.499 749.035 338.521 747.991 338.072 747.065C337.076 745.008 337.67 743.098 339.657 741.968C340.55 741.46 341.949 741.155 344.746 740.544L353.789 738.568C359.388 737.345 360.75 732.964 356.831 728.782V728.782C352.912 724.601 345.196 722.202 339.597 723.425L299.589 732.166C293.991 733.389 286.275 730.991 282.356 726.809V726.809C278.437 722.628 279.799 718.247 285.397 717.023L294.44 715.048C297.237 714.437 298.635 714.131 299.529 713.623C301.516 712.493 302.11 710.583 301.113 708.526C300.665 707.601 299.686 706.556 297.729 704.468L230.165 632.378C228.208 630.29 227.229 629.245 226.781 628.32C225.784 626.263 226.378 624.353 228.365 623.223C229.259 622.715 230.657 622.409 233.454 621.798L242.497 619.822C248.096 618.599 249.458 614.218 245.539 610.036V610.036C241.62 605.855 233.904 603.457 228.305 604.68L188.298 613.42C182.699 614.643 174.983 612.245 171.064 608.064V608.064C167.145 603.882 168.507 599.501 174.106 598.278L183.149 596.302C185.946 595.691 187.344 595.386 188.238 594.877C190.225 593.747 190.819 591.837 189.822 589.78C189.374 588.855 188.395 587.811 186.438 585.722L118.874 513.633C116.916 511.544 115.938 510.499 115.489 509.574C114.493 507.517 115.087 505.607 117.074 504.477C117.967 503.969 119.366 503.663 122.163 503.052L131.206 501.077C136.805 499.853 138.167 495.472 134.248 491.291V491.291C130.329 487.109 122.613 484.711 117.014 485.934L77.0064 494.675C71.4076 495.898 63.6918 493.5 59.7728 489.318V489.318C55.8538 485.137 57.2156 480.755 62.8145 479.532L71.8574 477.556C74.6541 476.945 76.0525 476.64 76.9462 476.132C78.9332 475.002 79.527 473.092 78.5305 471.035C78.0823 470.109 77.1035 469.065 75.1459 466.976L-0.0895635 386.701" stroke="url(#paint0_linear_164_9178)" stroke-opacity="0.3" stroke-width="7.14403"></path> </g> <path d="M429.038 835.842C403.853 808.97 367.847 770.552 352.4 754.07C350.59 752.14 349.686 751.174 349.242 750.312C348.141 748.167 348.762 746.167 350.885 745.026C351.74 744.566 353.044 744.281 355.654 743.711L364.194 741.845C369.877 740.604 371.259 736.157 367.281 731.913V731.913C363.304 727.669 355.473 725.235 349.791 726.477L311.19 734.91C305.507 736.151 297.677 733.717 293.699 729.474V729.474C289.722 725.23 291.104 720.783 296.786 719.542L305.327 717.676C307.936 717.106 309.24 716.821 310.095 716.361C312.218 715.219 312.84 713.219 311.738 711.075C311.294 710.212 310.381 709.238 308.555 707.289L239.474 633.581C237.647 631.632 236.734 630.658 236.291 629.795C235.189 627.651 235.811 625.651 237.934 624.509C238.788 624.05 240.093 623.765 242.702 623.195L251.243 621.329C256.925 620.087 258.307 615.641 254.33 611.397V611.397C250.353 607.153 242.522 604.719 236.839 605.96L198.238 614.393C192.556 615.635 184.725 613.201 180.748 608.957V608.957C176.77 604.713 178.152 600.266 183.835 599.025L192.376 597.159C194.985 596.589 196.29 596.304 197.144 595.845C199.267 594.703 199.889 592.703 198.787 590.559C198.344 589.696 197.43 588.721 195.604 586.773L126.523 513.065C124.697 511.116 123.783 510.141 123.34 509.279C122.238 507.134 122.86 505.134 124.983 503.993C125.837 503.533 127.142 503.248 129.751 502.678L138.292 500.812C143.974 499.571 145.357 495.124 141.379 490.88V490.88C137.402 486.636 129.571 484.202 123.888 485.444L85.2875 493.877C79.6051 495.118 71.7743 492.684 67.7968 488.44V488.44C63.8194 484.197 65.2015 479.75 70.8839 478.508L79.4243 476.643C82.0334 476.073 83.338 475.788 84.1922 475.328C86.3156 474.186 86.9372 472.186 85.8353 470.042C85.392 469.179 84.4789 468.205 82.6525 466.256L6.04014 384.512" stroke="url(#paint1_linear_164_9178)" stroke-width="7.14403"></path> <path d="M27.3523 405.474L39.2266 405.474" stroke="url(#paint2_linear_164_9178)" stroke-width="0.760232" stroke-linecap="round"></path> <path d="M27.3535 405.347L27.3535 389.699" stroke="white" stroke-width="0.760232" stroke-linecap="round"></path> <circle cx="4.43469" cy="4.43469" r="4.43469" transform="matrix(-1 -6.99748e-09 -6.99748e-09 1 31.7871 381.146)" fill="white"></circle> <g filter="url(#filter1_b_164_9178)"> <rect x="20" y="315" width="80" height="60" rx="4.15024" fill="white" fill-opacity="0.1"></rect> <rect x="20.415" y="315.415" width="79.17" height="59.17" rx="3.73522" stroke="#6D6D6D" stroke-width="0.830048"></rect> <path d="M32.016 332.94L39.952 332.94L39.952 333.932L32.016 333.932L32.016 332.94ZM31.712 335.676L40.288 335.676L40.288 336.7L31.712 336.7L31.712 335.676ZM37.04 333.26L38.128 333.26L38.128 340.284L37.04 340.284L37.04 333.26ZM33.76 333.308L34.8 333.308L34.8 336.22C34.8 337.196 34.416 339.292 32.608 340.508C32.448 340.284 32.08 339.948 31.808 339.788C33.424 338.796 33.76 337.1 33.76 336.22L33.76 333.308ZM30.032 328.764L34.528 328.764L34.528 329.628L30.032 329.628L30.032 328.764ZM37.408 328.764L41.936 328.764L41.936 329.628L37.408 329.628L37.408 328.764ZM41.472 326.54L42.656 326.54L42.656 339.02C42.656 339.74 42.496 340.124 42.016 340.332C41.536 340.54 40.736 340.556 39.52 340.556C39.472 340.236 39.312 339.676 39.136 339.34C40.016 339.372 40.88 339.372 41.136 339.356C41.392 339.356 41.472 339.26 41.472 339.02L41.472 326.54ZM30.128 326.54L35.264 326.54L35.264 331.932L30.128 331.932L30.128 331.02L34.128 331.02L34.128 327.468L30.128 327.468L30.128 326.54ZM42.048 326.54L42.048 327.468L37.824 327.468L37.824 331.036L42.048 331.036L42.048 331.948L36.672 331.948L36.672 326.54L42.048 326.54ZM29.408 326.54L30.592 326.54L30.592 340.588L29.408 340.588L29.408 326.54ZM52.128 338.796L57.888 338.796L57.888 339.868L52.128 339.868L52.128 338.796ZM51.392 334.076L58.48 334.076L58.48 340.54L57.328 340.54L57.328 335.148L52.496 335.148L52.496 340.572L51.392 340.572L51.392 334.076ZM55.84 328.652L56.784 328.188C57.888 329.58 59.008 331.436 59.504 332.668L58.464 333.212C58.016 331.948 56.88 330.044 55.84 328.652ZM50.944 332.78C50.88 332.524 50.672 331.948 50.544 331.628C50.848 331.564 51.168 331.18 51.568 330.588C51.984 330.028 53.312 327.884 54.112 325.836L55.36 326.204C54.336 328.38 53.056 330.572 51.808 332.108L51.808 332.124C51.808 332.124 50.944 332.524 50.944 332.78ZM50.944 332.78L50.912 331.82L51.648 331.388L58.448 330.956C58.496 331.292 58.608 331.772 58.688 332.012C52.144 332.524 51.408 332.588 50.944 332.78ZM45.024 334.62L45.712 333.82C47.44 335.084 49.712 336.924 50.752 338.14L50 339.084C48.976 337.836 46.768 335.932 45.024 334.62ZM45.024 334.62C45.744 332.46 46.592 328.684 46.912 325.916L48.032 325.996C47.648 328.876 46.768 332.668 46.064 334.94L45.024 334.62ZM48.912 328.124L50.016 328.124L50.016 330.092C50.016 333.18 49.632 337.436 45.312 340.556C45.136 340.316 44.752 339.948 44.48 339.772C48.608 336.86 48.912 332.908 48.912 330.092L48.912 328.124ZM44.56 329.548C46.128 329.484 48.48 329.372 50.784 329.244L50.768 330.284C48.592 330.428 46.336 330.556 44.688 330.652L44.56 329.548ZM68.896 332.044L74.128 332.044L74.128 333.036L68.896 333.036L68.896 332.044ZM68.32 326.604L74.016 326.604L74.016 327.676L69.424 327.676L69.424 340.556L68.32 340.556L68.32 326.604ZM73.44 326.604L74.56 326.604L74.56 329.692C74.56 330.284 74.432 330.604 73.936 330.78C73.44 330.956 72.64 330.972 71.408 330.972C71.36 330.652 71.2 330.22 71.04 329.916C72.032 329.948 72.864 329.948 73.12 329.932C73.376 329.916 73.44 329.852 73.44 329.676L73.44 326.604ZM70.448 332.588C71.312 335.596 73.12 338.316 75.536 339.5C75.264 339.724 74.896 340.172 74.704 340.476C72.224 339.084 70.448 336.156 69.504 332.844L70.448 332.588ZM73.76 332.044L73.984 332.044L74.192 331.98L74.928 332.252C74.288 335.724 72.624 338.876 69.952 340.604C69.776 340.332 69.424 339.996 69.152 339.788C71.648 338.236 73.248 335.244 73.76 332.3L73.76 332.044ZM61.232 327.5L67.312 327.5L67.312 328.54L61.232 328.54L61.232 327.5ZM60.736 336.268L67.728 336.268L67.728 337.308L60.736 337.308L60.736 336.268ZM60.752 330.14L67.696 330.14L67.696 331.196L60.752 331.196L60.752 330.14ZM61.088 333.468L67.424 333.468L67.424 334.508L61.088 334.508L61.088 333.468ZM63.744 325.884L64.864 325.884L64.864 330.508L63.744 330.508L63.744 325.884ZM63.744 333.884L64.864 333.884L64.864 340.524L63.744 340.524L63.744 333.884ZM65.84 331.196L66.896 331.468C66.432 332.364 65.904 333.372 65.44 334.028L64.544 333.756C65.008 333.068 65.568 331.964 65.84 331.196ZM61.824 331.516L62.72 331.244C63.072 331.852 63.424 332.668 63.536 333.18L62.592 333.5C62.496 332.972 62.16 332.14 61.824 331.516ZM81.824 338.828L89.552 338.828L89.552 339.932L81.824 339.932L81.824 338.828ZM81.28 327.468L87.152 327.468L87.152 328.54L81.28 328.54L81.28 327.468ZM82 325.804L83.344 326.076C82.144 328.156 80.224 330.332 77.44 331.98C77.264 331.676 76.864 331.26 76.592 331.052C79.232 329.612 81.072 327.548 82 325.804ZM86.752 327.468L86.976 327.468L87.2 327.404L88 327.836C86.08 332.668 81.568 335.884 77.216 337.292C77.072 336.972 76.768 336.476 76.512 336.22C80.656 335.02 85.088 331.884 86.752 327.676L86.752 327.468ZM79.28 330.316L80.176 329.548C81.44 330.412 82.976 331.692 83.712 332.604L82.736 333.468C82.064 332.556 80.544 331.212 79.28 330.316ZM88.96 333.772L90.192 333.772L90.192 340.604L88.96 340.604L88.96 333.772ZM82.368 333.772L89.568 333.772L89.568 334.876L82.368 334.876L82.368 340.572L81.168 340.572L81.168 334.716L82.128 333.772L82.368 333.772Z" fill="white"></path> <path d="M52.1688 364.932C50.3448 364.932 49.2248 364.164 48.4248 363.364L49.1608 362.404C49.8168 363.092 50.6808 363.716 52.0248 363.716C53.4168 363.716 54.5208 362.644 54.5208 360.948C54.5208 359.268 53.5608 358.26 52.1048 358.26C51.3208 358.26 50.8248 358.516 50.1528 358.964L49.3688 358.468L49.7368 352.98L55.4488 352.98L55.4488 354.228L51.0168 354.228L50.7128 357.62C51.2408 357.332 51.7688 357.156 52.4728 357.156C54.4248 357.156 56.0088 358.308 56.0088 360.9C56.0088 363.46 54.1368 364.932 52.1688 364.932ZM57.0438 367.572L61.8438 352.004L62.8838 352.004L58.0998 367.572L57.0438 367.572ZM64.5415 364.708L64.5415 363.492L67.1495 363.492L67.1495 354.756L65.0535 354.756L65.0535 353.812C66.1095 353.636 66.8615 353.364 67.4855 352.98L68.6055 352.98L68.6055 363.492L70.9735 363.492L70.9735 364.708L64.5415 364.708Z" fill="white"></path> </g> <path d="M104.725 489.327L116.6 489.327" stroke="url(#paint3_linear_164_9178)" stroke-width="0.760232" stroke-linecap="round"></path> <path d="M104.725 489.201L104.725 473.553" stroke="white" stroke-width="0.760232" stroke-linecap="round"></path> <circle cx="4.43469" cy="4.43469" r="4.43469" transform="matrix(-1 -6.99748e-09 -6.99748e-09 1 109.16 465)" fill="white"></circle> <g filter="url(#filter2_b_164_9178)"> <rect x="65" y="399" width="80" height="60" rx="4.15024" fill="white" fill-opacity="0.1"></rect> <rect x="65.415" y="399.415" width="79.17" height="59.17" rx="3.73522" stroke="#6D6D6D" stroke-width="0.830048"></rect> <path d="M81.896 416.044L87.128 416.044L87.128 417.036L81.896 417.036L81.896 416.044ZM81.32 410.604L87.016 410.604L87.016 411.676L82.424 411.676L82.424 424.556L81.32 424.556L81.32 410.604ZM86.44 410.604L87.56 410.604L87.56 413.692C87.56 414.284 87.432 414.604 86.936 414.78C86.44 414.956 85.64 414.972 84.408 414.972C84.36 414.652 84.2 414.22 84.04 413.916C85.032 413.948 85.864 413.948 86.12 413.932C86.376 413.916 86.44 413.852 86.44 413.676L86.44 410.604ZM83.448 416.588C84.312 419.596 86.12 422.316 88.536 423.5C88.264 423.724 87.896 424.172 87.704 424.476C85.224 423.084 83.448 420.156 82.504 416.844L83.448 416.588ZM86.76 416.044L86.984 416.044L87.192 415.98L87.928 416.252C87.288 419.724 85.624 422.876 82.952 424.604C82.776 424.332 82.424 423.996 82.152 423.788C84.648 422.236 86.248 419.244 86.76 416.3L86.76 416.044ZM74.232 411.5L80.312 411.5L80.312 412.54L74.232 412.54L74.232 411.5ZM73.736 420.268L80.728 420.268L80.728 421.308L73.736 421.308L73.736 420.268ZM73.752 414.14L80.696 414.14L80.696 415.196L73.752 415.196L73.752 414.14ZM74.088 417.468L80.424 417.468L80.424 418.508L74.088 418.508L74.088 417.468ZM76.744 409.884L77.864 409.884L77.864 414.508L76.744 414.508L76.744 409.884ZM76.744 417.884L77.864 417.884L77.864 424.524L76.744 424.524L76.744 417.884ZM78.84 415.196L79.896 415.468C79.432 416.364 78.904 417.372 78.44 418.028L77.544 417.756C78.008 417.068 78.568 415.964 78.84 415.196ZM74.824 415.516L75.72 415.244C76.072 415.852 76.424 416.668 76.536 417.18L75.592 417.5C75.496 416.972 75.16 416.14 74.824 415.516ZM94.824 422.828L102.552 422.828L102.552 423.932L94.824 423.932L94.824 422.828ZM94.28 411.468L100.152 411.468L100.152 412.54L94.28 412.54L94.28 411.468ZM95 409.804L96.344 410.076C95.144 412.156 93.224 414.332 90.44 415.98C90.264 415.676 89.864 415.26 89.592 415.052C92.232 413.612 94.072 411.548 95 409.804ZM99.752 411.468L99.976 411.468L100.2 411.404L101 411.836C99.08 416.668 94.568 419.884 90.216 421.292C90.072 420.972 89.768 420.476 89.512 420.22C93.656 419.02 98.088 415.884 99.752 411.676L99.752 411.468ZM92.28 414.316L93.176 413.548C94.44 414.412 95.976 415.692 96.712 416.604L95.736 417.468C95.064 416.556 93.544 415.212 92.28 414.316ZM101.96 417.772L103.192 417.772L103.192 424.604L101.96 424.604L101.96 417.772ZM95.368 417.772L102.568 417.772L102.568 418.876L95.368 418.876L95.368 424.572L94.168 424.572L94.168 418.716L95.128 417.772L95.368 417.772ZM116.568 410.78L117.4 410.188C118.28 410.844 119.304 411.788 119.784 412.46L118.888 413.132C118.44 412.46 117.448 411.468 116.568 410.78ZM105.816 413.772L120.168 413.772L120.168 414.796L105.816 414.796L105.816 413.772ZM106.504 411.34L113.56 411.34L113.56 412.364L106.504 412.364L106.504 411.34ZM107.816 418.604L113.608 418.604L113.608 419.404L107.816 419.404L107.816 418.604ZM107.816 420.492L113.608 420.492L113.608 421.308L107.816 421.308L107.816 420.492ZM107.752 422.428L113.864 422.428L113.864 423.404L107.752 423.404L107.752 422.428ZM109.496 409.868L110.664 409.868L110.664 414.508L109.496 414.508L109.496 409.868ZM110.504 417.116L111.512 417.116L111.512 422.764L110.504 422.764L110.504 417.116ZM108.136 414.972L109.16 415.244C108.504 416.796 107.464 418.364 106.44 419.356C106.248 419.18 105.832 418.828 105.592 418.684C106.616 417.756 107.576 416.38 108.136 414.972ZM108.232 416.604L113.896 416.604L113.896 417.564L108.232 417.564L108.232 424.252L107.176 424.252L107.176 417.564L108.056 416.604L108.232 416.604ZM114.536 409.884L115.736 409.884C115.672 417.452 116.84 423.244 118.696 423.244C119.128 423.244 119.288 422.524 119.368 420.668C119.624 420.908 120.04 421.164 120.328 421.276C120.12 423.692 119.736 424.412 118.6 424.412C115.576 424.412 114.584 417.756 114.536 409.884ZM118.312 415.772L119.416 416.092C118.36 419.596 116.52 422.7 113.832 424.588C113.64 424.316 113.304 423.964 112.984 423.756C115.544 422.076 117.368 419.052 118.312 415.772ZM110.008 415.34L110.904 414.988C111.288 415.484 111.672 416.156 111.848 416.62L110.888 417.036C110.744 416.572 110.36 415.868 110.008 415.34ZM129.608 415.228L135.464 415.228L135.464 416.428L129.608 416.428L129.608 415.228ZM121.768 422.588L136.184 422.588L136.184 423.772L121.768 423.772L121.768 422.588ZM128.968 409.9L130.232 409.9L130.232 423.196L128.968 423.196L128.968 409.9ZM123.992 413.388L125.224 413.388L125.224 423.148L123.992 423.148L123.992 413.388Z" fill="white"></path> <path d="M92.7313 448.932C90.9073 448.932 89.7873 448.164 88.9873 447.364L89.7233 446.404C90.3793 447.092 91.2433 447.716 92.5873 447.716C93.9793 447.716 95.0833 446.644 95.0833 444.948C95.0833 443.268 94.1233 442.26 92.6673 442.26C91.8833 442.26 91.3873 442.516 90.7153 442.964L89.9313 442.468L90.2993 436.98L96.0113 436.98L96.0113 438.228L91.5793 438.228L91.2753 441.62C91.8033 441.332 92.3313 441.156 93.0353 441.156C94.9873 441.156 96.5713 442.308 96.5713 444.9C96.5713 447.46 94.6993 448.932 92.7313 448.932ZM97.6063 451.572L102.406 436.004L103.446 436.004L98.6623 451.572L97.6063 451.572ZM104.4 448.708L104.4 447.86C108.08 444.644 109.76 442.292 109.76 440.292C109.76 438.948 109.072 437.956 107.616 437.956C106.656 437.956 105.824 438.548 105.168 439.316L104.32 438.5C105.28 437.46 106.304 436.772 107.792 436.772C109.888 436.772 111.2 438.132 111.2 440.228C111.2 442.58 109.36 444.964 106.592 447.572C107.216 447.508 107.92 447.46 108.512 447.46L111.76 447.46L111.76 448.708L104.4 448.708ZM115.723 448.708C115.931 444.276 116.731 441.428 119.035 438.228L113.355 438.228L113.355 436.98L120.683 436.98L120.683 437.86C117.931 441.396 117.435 444.132 117.243 448.708L115.723 448.708Z" fill="white"></path> </g> <g filter="url(#filter3_b_164_9178)"> <rect x="134" y="443" width="80" height="60" rx="4.15024" fill="white" fill-opacity="0.1"></rect> <rect x="134.415" y="443.415" width="79.17" height="59.17" rx="3.73522" stroke="#6D6D6D" stroke-width="0.830048"></rect> <path d="M143.424 455.036L156.672 455.036L156.672 456.204L143.424 456.204L143.424 455.036ZM150.352 460.476L156.032 460.476L156.032 461.66L150.352 461.66L150.352 460.476ZM142.816 466.7L157.2 466.7L157.2 467.868L142.816 467.868L142.816 466.7ZM149.776 455.468L151.024 455.468L151.024 467.276L149.776 467.276L149.776 455.468ZM145.008 459.148L146.24 459.148L146.24 467.324L145.008 467.324L145.008 459.148ZM166.176 456.06L172.08 456.06L172.08 457.228L166.176 457.228L166.176 456.06ZM158.752 454.86L166.576 454.86L166.576 455.98L158.752 455.98L158.752 454.86ZM160.624 458.108L164.784 458.108L164.784 459.212L160.624 459.212L160.624 458.108ZM160.624 461.436L164.784 461.436L164.784 462.524L160.624 462.524L160.624 461.436ZM171.728 456.06L171.936 456.06L172.16 456.028L172.928 456.236C172.16 462.604 169.712 466.364 166.288 468.348C166.096 468.044 165.76 467.596 165.488 467.372C168.656 465.724 171.04 461.964 171.728 456.348L171.728 456.06ZM167.632 457.292C168.48 461.916 170.336 465.708 173.632 467.404C173.36 467.644 172.976 468.092 172.784 468.412C169.312 466.444 167.472 462.54 166.48 457.516L167.632 457.292ZM160 455.292L161.152 455.292L161.152 465.676L160 465.676L160 455.292ZM164.288 455.292L165.44 455.292L165.44 468.54L164.288 468.54L164.288 455.292ZM158.432 465.324C160 465.132 162.416 464.796 164.752 464.444L164.816 465.548C162.624 465.9 160.32 466.268 158.656 466.524L158.432 465.324ZM183.76 462.924L184.896 462.412C186.208 464.124 187.744 466.396 188.512 467.82L187.312 468.476C186.576 467.004 185.024 464.636 183.76 462.924ZM179.056 454.332L180.368 454.732C179.216 457.372 177.44 459.948 175.648 461.596C175.424 461.34 174.896 460.844 174.576 460.62C176.384 459.132 178.064 456.764 179.056 454.332ZM176.592 467.804C176.512 467.532 176.288 466.86 176.112 466.508C176.544 466.396 177.008 465.868 177.616 465.116C178.272 464.38 180.352 461.5 181.696 458.764L183.04 459.34C181.44 462.204 179.504 465.068 177.568 467.068L177.568 467.1C177.568 467.1 176.592 467.5 176.592 467.804ZM176.592 467.804L176.56 466.78L177.44 466.3L186.88 465.756C186.944 466.108 187.072 466.62 187.152 466.892C178.128 467.5 177.216 467.548 176.592 467.804ZM183.824 454.252L185.248 454.252C186.016 456.812 187.632 459.228 189.52 460.476C189.232 460.716 188.8 461.228 188.576 461.596C186.64 460.14 184.992 457.58 184.144 454.972L183.824 454.972L183.824 454.252ZM181.344 454.252L184.848 454.252L184.848 455.484L181.344 455.484L181.344 454.252ZM190.96 459.788L205.072 459.788L205.072 460.924L190.96 460.924L190.96 459.788ZM193.552 456.172L203.888 456.172L203.888 457.276L193.552 457.276L193.552 456.172ZM193.6 466.7L202.56 466.7L202.56 467.82L193.6 467.82L193.6 466.7ZM197.712 453.852L198.976 453.852L198.976 460.444L197.712 460.444L197.712 453.852ZM192.944 462.508L203.2 462.508L203.2 468.7L201.952 468.7L201.952 463.628L194.16 463.628L194.16 468.716L192.944 468.716L192.944 462.508ZM193.968 453.996L195.152 454.284C194.464 456.252 193.36 458.172 192.24 459.436C192 459.26 191.456 458.94 191.152 458.78C192.336 457.628 193.344 455.804 193.968 453.996Z" fill="white"></path> <path d="M166.809 492.932C164.553 492.932 162.873 490.996 162.873 487.124C162.873 482.532 164.937 480.772 167.209 480.772C168.425 480.772 169.321 481.284 169.961 481.972L169.145 482.868C168.697 482.324 167.977 481.988 167.273 481.988C165.625 481.988 164.249 483.284 164.249 487.124C164.249 490.132 165.161 491.78 166.809 491.78C167.929 491.78 168.793 490.708 168.793 489.124C168.793 487.524 168.089 486.516 166.681 486.516C165.929 486.516 164.985 486.964 164.201 488.132L164.153 486.964C164.873 486.02 165.961 485.444 166.905 485.444C168.889 485.444 170.169 486.66 170.169 489.124C170.169 491.396 168.617 492.932 166.809 492.932ZM171.044 495.572L175.844 480.004L176.884 480.004L172.1 495.572L171.044 495.572ZM178.541 492.708L178.541 491.492L181.149 491.492L181.149 482.756L179.053 482.756L179.053 481.812C180.109 481.636 180.861 481.364 181.485 480.98L182.605 480.98L182.605 491.492L184.973 491.492L184.973 492.708L178.541 492.708Z" fill="white"></path> </g> <path d="M146.434 533.327L158.309 533.327" stroke="url(#paint4_linear_164_9178)" stroke-width="0.760232" stroke-linecap="round"></path> <path d="M146.434 533.201L146.434 517.553" stroke="white" stroke-width="0.760232" stroke-linecap="round"></path> <circle cx="4.43469" cy="4.43469" r="4.43469" transform="matrix(-1 -6.99748e-09 -6.99748e-09 1 150.867 509)" fill="white"></circle> <g filter="url(#filter4_b_164_9178)"> <rect x="178" y="519" width="80" height="60" rx="4.15024" fill="white" fill-opacity="0.1"></rect> <rect x="178.415" y="519.415" width="79.17" height="59.17" rx="3.73522" stroke="#6D6D6D" stroke-width="0.830048"></rect> <path d="M193.536 529.836L194.72 529.964C194.496 530.652 194.272 531.34 194.096 531.836L193.152 531.692C193.312 531.132 193.472 530.364 193.536 529.836ZM192.8 534.236L192.8 535.564L195.312 535.564L195.312 534.236L192.8 534.236ZM192.8 532.092L192.8 533.404L195.312 533.404L195.312 532.092L192.8 532.092ZM191.824 531.196L196.32 531.196L196.32 536.46L191.824 536.46L191.824 531.196ZM191.568 537.836L196.752 537.836L196.752 538.812L191.568 538.812L191.568 537.836ZM193.152 539.932L195.856 539.932L195.856 540.844L192.96 540.844L193.152 539.932ZM195.376 539.932L196.4 539.932C196.4 539.932 196.384 540.22 196.368 540.38C196.208 542.796 196.048 543.756 195.712 544.124C195.488 544.348 195.28 544.428 194.912 544.476C194.656 544.492 194.128 544.492 193.616 544.476C193.6 544.188 193.504 543.804 193.36 543.548C193.856 543.596 194.288 543.612 194.48 543.612C194.656 543.612 194.784 543.58 194.88 543.468C195.088 543.244 195.232 542.38 195.376 540.092L195.376 539.932ZM192.912 538.476L193.936 538.476C193.824 541.388 193.424 543.404 191.536 544.588C191.424 544.364 191.104 544.012 190.88 543.836C192.528 542.828 192.816 541.052 192.912 538.476ZM197.904 529.868L198.944 530.012C198.576 532.924 197.952 535.676 196.784 537.516C196.656 537.292 196.32 536.796 196.112 536.588C197.136 534.956 197.632 532.476 197.904 529.868ZM197.952 533.164L201.376 533.164L201.376 534.268L197.648 534.268L197.952 533.164ZM197.968 534.316C198.448 538.316 199.44 541.932 201.424 543.676C201.168 543.868 200.8 544.268 200.624 544.54C198.624 542.556 197.664 538.748 197.168 534.444L197.968 534.316ZM199.856 533.484L200.736 533.9C200.304 538.636 199.168 542.684 196.736 544.572C196.56 544.332 196.208 543.964 195.936 543.756C198.368 542.028 199.456 538.172 199.856 533.484ZM193.36 536.828L194.352 536.588C194.624 537.068 194.896 537.676 195.024 538.076L193.984 538.348C193.856 537.948 193.584 537.292 193.36 536.828ZM189.808 536.204L190.592 536.028C190.976 537.148 191.376 538.604 191.472 539.452L190.656 539.692C190.528 538.812 190.192 537.324 189.808 536.204ZM188.736 540.252L189.584 540.124C189.776 541.276 189.968 542.78 189.984 543.788L189.088 543.932C189.072 542.94 188.912 541.42 188.736 540.252ZM187.328 540.156L188.272 540.316C188.08 541.788 187.776 543.42 187.44 544.46C187.232 544.364 186.784 544.204 186.528 544.14C186.928 543.084 187.168 541.548 187.328 540.156ZM186.944 535.852C186.88 535.628 186.72 535.148 186.608 534.876C186.848 534.812 187.088 534.476 187.344 533.98C187.632 533.5 188.544 531.612 189.008 529.868L189.984 530.252C189.36 532.044 188.48 533.948 187.616 535.26L187.616 535.276C187.616 535.276 186.944 535.628 186.944 535.852ZM186.944 535.852L186.912 534.988L187.472 534.652L189.92 534.46C189.872 534.748 189.84 535.164 189.84 535.388C187.6 535.644 187.184 535.724 186.944 535.852ZM187.04 539.452C186.992 539.244 186.832 538.748 186.704 538.476C187.008 538.412 187.328 537.98 187.744 537.372C188.176 536.796 189.6 534.46 190.448 532.284L191.376 532.78C190.368 534.988 189.056 537.26 187.728 538.876L187.728 538.892C187.728 538.892 187.04 539.228 187.04 539.452ZM187.04 539.452L187.008 538.588L187.552 538.236L190.912 537.804C190.88 538.092 190.864 538.524 190.88 538.732C187.792 539.196 187.328 539.308 187.04 539.452ZM190.064 539.964L190.848 539.756C191.136 540.588 191.472 541.692 191.6 542.396L190.768 542.652C190.656 541.932 190.352 540.812 190.064 539.964ZM204.8 532.444L214.848 532.444L214.848 531.548L203.712 531.548L203.712 530.748L215.968 530.748L215.968 533.26L204.8 533.26L204.8 532.444ZM204.432 532.444L205.504 532.444C205.392 533.34 205.248 534.332 205.088 535.02L204.016 535.02C204.176 534.284 204.352 533.292 204.432 532.444ZM204.592 534.204L216.192 534.204L216.192 535.02L204.336 535.02L204.592 534.204ZM215.84 534.204L216.96 534.204C216.96 534.204 216.944 534.46 216.928 534.604C216.832 535.468 216.736 535.932 216.496 536.172C216.304 536.348 216.048 536.428 215.728 536.444C215.456 536.46 214.896 536.46 214.32 536.412C214.304 536.188 214.208 535.852 214.096 535.644C214.592 535.676 215.04 535.692 215.216 535.692C215.392 535.692 215.488 535.676 215.568 535.596C215.68 535.468 215.76 535.132 215.84 534.348L215.84 534.204ZM207.648 529.868L208.752 529.868L208.752 532.748C208.752 534.86 208.096 536.54 203.456 537.436C203.36 537.164 203.104 536.716 202.896 536.508C207.12 535.708 207.648 534.364 207.648 532.716L207.648 529.868ZM211.232 529.868L212.368 529.868L212.368 536.124L211.232 536.124L211.232 529.868ZM206.064 538.668L206.064 539.66L214.112 539.66L214.112 538.668L206.064 538.668ZM206.064 540.412L206.064 541.42L214.112 541.42L214.112 540.412L206.064 540.412ZM206.064 536.94L206.064 537.916L214.112 537.916L214.112 536.94L206.064 536.94ZM204.896 536.156L215.312 536.156L215.312 542.188L204.896 542.188L204.896 536.156ZM211.44 542.78L212.144 542.076C213.968 542.588 215.92 543.244 217.088 543.756L216.176 544.508C215.104 543.996 213.264 543.324 211.44 542.78ZM207.6 542.204L208.672 542.7C207.376 543.436 205.328 544.156 203.728 544.572C203.536 544.348 203.12 543.884 202.848 543.676C204.512 543.356 206.448 542.812 207.6 542.204ZM229.568 530.78L230.4 530.188C231.28 530.844 232.304 531.788 232.784 532.46L231.888 533.132C231.44 532.46 230.448 531.468 229.568 530.78ZM218.816 533.772L233.168 533.772L233.168 534.796L218.816 534.796L218.816 533.772ZM219.504 531.34L226.56 531.34L226.56 532.364L219.504 532.364L219.504 531.34ZM220.816 538.604L226.608 538.604L226.608 539.404L220.816 539.404L220.816 538.604ZM220.816 540.492L226.608 540.492L226.608 541.308L220.816 541.308L220.816 540.492ZM220.752 542.428L226.864 542.428L226.864 543.404L220.752 543.404L220.752 542.428ZM222.496 529.868L223.664 529.868L223.664 534.508L222.496 534.508L222.496 529.868ZM223.504 537.116L224.512 537.116L224.512 542.764L223.504 542.764L223.504 537.116ZM221.136 534.972L222.16 535.244C221.504 536.796 220.464 538.364 219.44 539.356C219.248 539.18 218.832 538.828 218.592 538.684C219.616 537.756 220.576 536.38 221.136 534.972ZM221.232 536.604L226.896 536.604L226.896 537.564L221.232 537.564L221.232 544.252L220.176 544.252L220.176 537.564L221.056 536.604L221.232 536.604ZM227.536 529.884L228.736 529.884C228.672 537.452 229.84 543.244 231.696 543.244C232.128 543.244 232.288 542.524 232.368 540.668C232.624 540.908 233.04 541.164 233.328 541.276C233.12 543.692 232.736 544.412 231.6 544.412C228.576 544.412 227.584 537.756 227.536 529.884ZM231.312 535.772L232.416 536.092C231.36 539.596 229.52 542.7 226.832 544.588C226.64 544.316 226.304 543.964 225.984 543.756C228.544 542.076 230.368 539.052 231.312 535.772ZM223.008 535.34L223.904 534.988C224.288 535.484 224.672 536.156 224.848 536.62L223.888 537.036C223.744 536.572 223.36 535.868 223.008 535.34ZM242.608 535.228L248.464 535.228L248.464 536.428L242.608 536.428L242.608 535.228ZM234.768 542.588L249.184 542.588L249.184 543.772L234.768 543.772L234.768 542.588ZM241.968 529.9L243.232 529.9L243.232 543.196L241.968 543.196L241.968 529.9ZM236.992 533.388L238.224 533.388L238.224 543.148L236.992 543.148L236.992 533.388Z" fill="white"></path> <path d="M206.371 568.932C204.115 568.932 202.435 566.996 202.435 563.124C202.435 558.532 204.499 556.772 206.771 556.772C207.987 556.772 208.883 557.284 209.523 557.972L208.707 558.868C208.259 558.324 207.539 557.988 206.835 557.988C205.187 557.988 203.811 559.284 203.811 563.124C203.811 566.132 204.723 567.78 206.371 567.78C207.491 567.78 208.355 566.708 208.355 565.124C208.355 563.524 207.651 562.516 206.243 562.516C205.491 562.516 204.547 562.964 203.763 564.132L203.715 562.964C204.435 562.02 205.523 561.444 206.467 561.444C208.451 561.444 209.731 562.66 209.731 565.124C209.731 567.396 208.179 568.932 206.371 568.932ZM210.606 571.572L215.406 556.004L216.446 556.004L211.662 571.572L210.606 571.572ZM218.103 568.708L218.103 567.492L220.711 567.492L220.711 558.756L218.615 558.756L218.615 557.812C219.671 557.636 220.423 557.364 221.047 556.98L222.167 556.98L222.167 567.492L224.535 567.492L224.535 568.708L218.103 568.708ZM226.274 568.708L226.274 567.86C229.954 564.644 231.634 562.292 231.634 560.292C231.634 558.948 230.946 557.956 229.49 557.956C228.53 557.956 227.698 558.548 227.042 559.316L226.194 558.5C227.154 557.46 228.178 556.772 229.666 556.772C231.762 556.772 233.074 558.132 233.074 560.228C233.074 562.58 231.234 564.964 228.466 567.572C229.09 567.508 229.794 567.46 230.386 567.46L233.634 567.46L233.634 568.708L226.274 568.708Z" fill="white"></path> </g> <g filter="url(#filter5_b_164_9178)"> <rect x="133" y="616" width="106.137" height="80.491" rx="4.15024" fill="white" fill-opacity="0.1"></rect> <rect x="133.415" y="616.415" width="105.307" height="79.6609" rx="3.73522" stroke="#6D6D6D" stroke-width="0.830048"></rect> <path d="M147.188 626.122L160.996 626.122L160.996 628.57L159.844 628.57L159.844 627.082L148.292 627.082L148.292 628.57L147.188 628.57L147.188 626.122ZM151.108 627.37L152.228 627.37L152.228 631.498L151.108 631.498L151.108 627.37ZM155.924 627.37L157.044 627.37L157.044 631.498L155.924 631.498L155.924 627.37ZM148.628 628.09L159.476 628.09L159.476 628.842L148.628 628.842L148.628 628.09ZM148.884 629.546L159.284 629.546L159.284 630.282L148.884 630.282L148.884 629.546ZM147.012 630.986L161.156 630.986L161.156 631.882L147.012 631.882L147.012 630.986ZM151.3 631.21L152.196 631.594C151.108 632.954 149.124 634.234 147.348 634.842C147.188 634.57 146.852 634.154 146.612 633.962C148.356 633.45 150.308 632.378 151.3 631.21ZM156.996 631.162C157.924 632.298 159.78 633.306 161.524 633.754C161.268 633.962 160.932 634.378 160.772 634.666C158.996 634.106 157.124 632.858 156.116 631.514L156.996 631.162ZM150.708 634.81L150.708 635.562L157.38 635.562L157.38 634.81L150.708 634.81ZM150.708 636.25L150.708 637.018L157.38 637.018L157.38 636.25L150.708 636.25ZM150.708 633.386L150.708 634.138L157.38 634.138L157.38 633.386L150.708 633.386ZM149.588 632.682L158.548 632.682L158.548 637.706L149.588 637.706L149.588 632.682ZM155.14 638.234L155.908 637.562C157.668 638.026 159.588 638.618 160.804 639.034L159.812 639.754C158.724 639.322 156.948 638.73 155.14 638.234ZM151.892 637.53L152.884 638.154C151.588 638.858 149.46 639.498 147.748 639.802C147.588 639.594 147.268 639.226 147.044 639.002C148.756 638.714 150.884 638.106 151.892 637.53ZM153.204 625.306L154.372 624.986C154.676 625.418 154.98 626.042 155.108 626.442L153.892 626.81C153.764 626.394 153.476 625.77 153.204 625.306ZM162.916 627.626L177.22 627.626L177.22 628.746L162.916 628.746L162.916 627.626ZM164.564 632.778L169.044 632.778L169.044 633.722L164.564 633.722L164.564 632.778ZM164.564 635.338L169.044 635.338L169.044 636.282L164.564 636.282L164.564 635.338ZM171.716 630.314L172.852 630.314L172.852 636.89L171.716 636.89L171.716 630.314ZM168.612 630.17L169.78 630.17L169.78 638.442C169.78 639.05 169.636 639.37 169.188 639.562C168.756 639.754 168.052 639.754 166.964 639.754C166.9 639.45 166.724 639.002 166.564 638.698C167.364 638.73 168.1 638.73 168.324 638.714C168.548 638.698 168.612 638.634 168.612 638.426L168.612 630.17ZM174.964 629.834L176.148 629.834L176.148 638.33C176.148 639.034 175.988 639.37 175.492 639.562C174.996 639.738 174.196 639.77 172.948 639.77C172.884 639.45 172.692 638.938 172.516 638.618C173.492 638.65 174.356 638.65 174.628 638.634C174.884 638.618 174.964 638.554 174.964 638.33L174.964 629.834ZM165.396 625.498L166.5 625.082C167.124 625.77 167.796 626.714 168.1 627.338L166.916 627.77C166.66 627.162 166.004 626.186 165.396 625.498ZM173.62 625.034L174.9 625.45C174.292 626.442 173.572 627.546 172.98 628.298L171.924 627.898C172.5 627.13 173.22 625.898 173.62 625.034ZM163.988 630.17L165.076 630.17L165.076 633.994C165.076 635.786 164.884 638.25 163.7 639.866C163.524 639.658 163.06 639.306 162.788 639.178C163.86 637.674 163.988 635.594 163.988 633.978L163.988 630.17ZM164.676 630.17L169.172 630.17L169.172 631.162L164.676 631.162L164.676 630.17ZM179.732 626.906L192.468 626.906L192.468 628.154L179.732 628.154L179.732 626.906ZM178.884 637.402L193.268 637.402L193.268 638.602L178.884 638.602L178.884 637.402ZM185.348 627.53L186.692 627.53L186.692 637.898L185.348 637.898L185.348 627.53ZM201.86 627.786L209.444 627.786L209.444 628.938L201.3 628.938L201.86 627.786ZM203.86 631.258L209.076 631.258L209.076 632.362L203.86 632.362L203.86 631.258ZM203.844 634.778L209.3 634.778L209.3 635.914L203.844 635.914L203.844 634.778ZM203.252 628.154L204.484 628.154L204.484 639.818L203.252 639.818L203.252 628.154ZM202.468 625.29L203.636 625.594C202.724 628.138 201.332 630.65 199.86 632.298C199.684 632.09 199.204 631.658 198.932 631.466C200.388 629.978 201.684 627.642 202.468 625.29ZM198.628 625.162L199.78 625.53C198.724 628.234 197.076 630.97 195.332 632.762C195.22 632.474 194.852 631.834 194.628 631.546C196.228 629.994 197.716 627.594 198.628 625.162ZM196.916 629.29L198.1 628.09L198.132 628.106L198.132 639.802L196.916 639.802L196.916 629.29ZM219.796 625.29L220.916 625.034C221.22 625.786 221.572 626.81 221.732 627.402L220.548 627.738C220.42 627.114 220.084 626.074 219.796 625.29ZM215.972 627.914L225.412 627.914L225.412 629.066L215.972 629.066L215.972 627.914ZM219.204 631.594L223.716 631.594L223.716 632.714L219.204 632.714L219.204 631.594ZM223.348 631.594L224.548 631.594C224.548 631.594 224.548 631.978 224.532 632.154C224.324 636.858 224.148 638.586 223.636 639.146C223.332 639.53 223.012 639.642 222.484 639.69C222.004 639.722 221.124 639.722 220.228 639.674C220.212 639.306 220.068 638.81 219.844 638.49C220.772 638.554 221.652 638.57 221.988 638.57C222.276 638.57 222.452 638.554 222.612 638.378C222.98 637.994 223.172 636.314 223.348 631.802L223.348 631.594ZM210.9 629.13L216.036 629.13L216.036 630.266L210.9 630.266L210.9 629.13ZM212.948 625.322L214.116 625.322L214.116 635.962L212.948 635.962L212.948 625.322ZM210.628 636.218C212.036 635.754 214.148 635.002 216.196 634.234L216.42 635.354C214.5 636.09 212.468 636.874 210.932 637.466L210.628 636.218ZM218.644 628.538L219.844 628.538L219.844 631.258C219.844 633.978 219.348 637.37 215.7 639.834C215.492 639.578 215.092 639.226 214.788 639.018C218.228 636.682 218.644 633.578 218.644 631.242L218.644 628.538ZM174.084 656.186L182.02 656.186L182.02 657.178L174.084 657.178L174.084 656.186ZM173.78 658.922L182.356 658.922L182.356 659.946L173.78 659.946L173.78 658.922ZM179.108 656.506L180.196 656.506L180.196 663.53L179.108 663.53L179.108 656.506ZM175.828 656.554L176.868 656.554L176.868 659.466C176.868 660.442 176.484 662.538 174.676 663.754C174.516 663.53 174.148 663.194 173.876 663.034C175.492 662.042 175.828 660.346 175.828 659.466L175.828 656.554ZM172.1 652.01L176.596 652.01L176.596 652.874L172.1 652.874L172.1 652.01ZM179.476 652.01L184.004 652.01L184.004 652.874L179.476 652.874L179.476 652.01ZM183.54 649.786L184.724 649.786L184.724 662.266C184.724 662.986 184.564 663.37 184.084 663.578C183.604 663.786 182.804 663.802 181.588 663.802C181.54 663.482 181.38 662.922 181.204 662.586C182.084 662.618 182.948 662.618 183.204 662.602C183.46 662.602 183.54 662.506 183.54 662.266L183.54 649.786ZM172.196 649.786L177.332 649.786L177.332 655.178L172.196 655.178L172.196 654.266L176.196 654.266L176.196 650.714L172.196 650.714L172.196 649.786ZM184.116 649.786L184.116 650.714L179.892 650.714L179.892 654.282L184.116 654.282L184.116 655.194L178.74 655.194L178.74 649.786L184.116 649.786ZM171.476 649.786L172.66 649.786L172.66 663.834L171.476 663.834L171.476 649.786ZM194.196 662.042L199.956 662.042L199.956 663.114L194.196 663.114L194.196 662.042ZM193.46 657.322L200.548 657.322L200.548 663.786L199.396 663.786L199.396 658.394L194.564 658.394L194.564 663.818L193.46 663.818L193.46 657.322ZM197.908 651.898L198.852 651.434C199.956 652.826 201.076 654.682 201.572 655.914L200.532 656.458C200.084 655.194 198.948 653.29 197.908 651.898ZM193.012 656.026C192.948 655.77 192.74 655.194 192.612 654.874C192.916 654.81 193.236 654.426 193.636 653.834C194.052 653.274 195.38 651.13 196.18 649.082L197.428 649.45C196.404 651.626 195.124 653.818 193.876 655.354L193.876 655.37C193.876 655.37 193.012 655.77 193.012 656.026ZM193.012 656.026L192.98 655.066L193.716 654.634L200.516 654.202C200.564 654.538 200.676 655.018 200.756 655.258C194.212 655.77 193.476 655.834 193.012 656.026ZM187.092 657.866L187.78 657.066C189.508 658.33 191.78 660.17 192.82 661.386L192.068 662.33C191.044 661.082 188.836 659.178 187.092 657.866ZM187.092 657.866C187.812 655.706 188.66 651.93 188.98 649.162L190.1 649.242C189.716 652.122 188.836 655.914 188.132 658.186L187.092 657.866ZM190.98 651.37L192.084 651.37L192.084 653.338C192.084 656.426 191.7 660.682 187.38 663.802C187.204 663.562 186.82 663.194 186.548 663.018C190.676 660.106 190.98 656.154 190.98 653.338L190.98 651.37ZM186.628 652.794C188.196 652.73 190.548 652.618 192.852 652.49L192.836 653.53C190.66 653.674 188.404 653.802 186.756 653.898L186.628 652.794Z" fill="white"></path> <path d="M174.439 688.177C172.183 688.177 170.503 686.241 170.503 682.369C170.503 677.777 172.567 676.017 174.839 676.017C176.055 676.017 176.951 676.529 177.591 677.217L176.775 678.113C176.327 677.569 175.607 677.233 174.903 677.233C173.255 677.233 171.879 678.529 171.879 682.369C171.879 685.377 172.791 687.025 174.439 687.025C175.559 687.025 176.423 685.953 176.423 684.369C176.423 682.769 175.719 681.761 174.311 681.761C173.559 681.761 172.615 682.209 171.831 683.377L171.783 682.209C172.503 681.265 173.591 680.689 174.535 680.689C176.519 680.689 177.799 681.905 177.799 684.369C177.799 686.641 176.247 688.177 174.439 688.177ZM178.674 690.817L183.474 675.249L184.514 675.249L179.73 690.817L178.674 690.817ZM186.172 687.953L186.172 686.737L188.78 686.737L188.78 678.001L186.684 678.001L186.684 677.057C187.74 676.881 188.492 676.609 189.116 676.225L190.236 676.225L190.236 686.737L192.604 686.737L192.604 687.953L186.172 687.953ZM196.791 687.953C196.999 683.521 197.799 680.673 200.103 677.473L194.423 677.473L194.423 676.225L201.751 676.225L201.751 677.105C198.999 680.641 198.503 683.377 198.311 687.953L196.791 687.953Z" fill="white"></path> </g> <g filter="url(#filter6_b_164_9178)"> <rect x="287" y="618" width="106.137" height="80.491" rx="4.15024" fill="white" fill-opacity="0.1"></rect> <rect x="287.415" y="618.415" width="105.307" height="79.6609" rx="3.73522" stroke="#6D6D6D" stroke-width="0.830048"></rect> <path d="M301.188 628.122L314.996 628.122L314.996 630.57L313.844 630.57L313.844 629.082L302.292 629.082L302.292 630.57L301.188 630.57L301.188 628.122ZM305.108 629.37L306.228 629.37L306.228 633.498L305.108 633.498L305.108 629.37ZM309.924 629.37L311.044 629.37L311.044 633.498L309.924 633.498L309.924 629.37ZM302.628 630.09L313.476 630.09L313.476 630.842L302.628 630.842L302.628 630.09ZM302.884 631.546L313.284 631.546L313.284 632.282L302.884 632.282L302.884 631.546ZM301.012 632.986L315.156 632.986L315.156 633.882L301.012 633.882L301.012 632.986ZM305.3 633.21L306.196 633.594C305.108 634.954 303.124 636.234 301.348 636.842C301.188 636.57 300.852 636.154 300.612 635.962C302.356 635.45 304.308 634.378 305.3 633.21ZM310.996 633.162C311.924 634.298 313.78 635.306 315.524 635.754C315.268 635.962 314.932 636.378 314.772 636.666C312.996 636.106 311.124 634.858 310.116 633.514L310.996 633.162ZM304.708 636.81L304.708 637.562L311.38 637.562L311.38 636.81L304.708 636.81ZM304.708 638.25L304.708 639.018L311.38 639.018L311.38 638.25L304.708 638.25ZM304.708 635.386L304.708 636.138L311.38 636.138L311.38 635.386L304.708 635.386ZM303.588 634.682L312.548 634.682L312.548 639.706L303.588 639.706L303.588 634.682ZM309.14 640.234L309.908 639.562C311.668 640.026 313.588 640.618 314.804 641.034L313.812 641.754C312.724 641.322 310.948 640.73 309.14 640.234ZM305.892 639.53L306.884 640.154C305.588 640.858 303.46 641.498 301.748 641.802C301.588 641.594 301.268 641.226 301.044 641.002C302.756 640.714 304.884 640.106 305.892 639.53ZM307.204 627.306L308.372 626.986C308.676 627.418 308.98 628.042 309.108 628.442L307.892 628.81C307.764 628.394 307.476 627.77 307.204 627.306ZM316.916 629.626L331.22 629.626L331.22 630.746L316.916 630.746L316.916 629.626ZM318.564 634.778L323.044 634.778L323.044 635.722L318.564 635.722L318.564 634.778ZM318.564 637.338L323.044 637.338L323.044 638.282L318.564 638.282L318.564 637.338ZM325.716 632.314L326.852 632.314L326.852 638.89L325.716 638.89L325.716 632.314ZM322.612 632.17L323.78 632.17L323.78 640.442C323.78 641.05 323.636 641.37 323.188 641.562C322.756 641.754 322.052 641.754 320.964 641.754C320.9 641.45 320.724 641.002 320.564 640.698C321.364 640.73 322.1 640.73 322.324 640.714C322.548 640.698 322.612 640.634 322.612 640.426L322.612 632.17ZM328.964 631.834L330.148 631.834L330.148 640.33C330.148 641.034 329.988 641.37 329.492 641.562C328.996 641.738 328.196 641.77 326.948 641.77C326.884 641.45 326.692 640.938 326.516 640.618C327.492 640.65 328.356 640.65 328.628 640.634C328.884 640.618 328.964 640.554 328.964 640.33L328.964 631.834ZM319.396 627.498L320.5 627.082C321.124 627.77 321.796 628.714 322.1 629.338L320.916 629.77C320.66 629.162 320.004 628.186 319.396 627.498ZM327.62 627.034L328.9 627.45C328.292 628.442 327.572 629.546 326.98 630.298L325.924 629.898C326.5 629.13 327.22 627.898 327.62 627.034ZM317.988 632.17L319.076 632.17L319.076 635.994C319.076 637.786 318.884 640.25 317.7 641.866C317.524 641.658 317.06 641.306 316.788 641.178C317.86 639.674 317.988 637.594 317.988 635.978L317.988 632.17ZM318.676 632.17L323.172 632.17L323.172 633.162L318.676 633.162L318.676 632.17ZM333.732 628.906L346.468 628.906L346.468 630.154L333.732 630.154L333.732 628.906ZM332.884 639.402L347.268 639.402L347.268 640.602L332.884 640.602L332.884 639.402ZM339.348 629.53L340.692 629.53L340.692 639.898L339.348 639.898L339.348 629.53ZM355.86 629.786L363.444 629.786L363.444 630.938L355.3 630.938L355.86 629.786ZM357.86 633.258L363.076 633.258L363.076 634.362L357.86 634.362L357.86 633.258ZM357.844 636.778L363.3 636.778L363.3 637.914L357.844 637.914L357.844 636.778ZM357.252 630.154L358.484 630.154L358.484 641.818L357.252 641.818L357.252 630.154ZM356.468 627.29L357.636 627.594C356.724 630.138 355.332 632.65 353.86 634.298C353.684 634.09 353.204 633.658 352.932 633.466C354.388 631.978 355.684 629.642 356.468 627.29ZM352.628 627.162L353.78 627.53C352.724 630.234 351.076 632.97 349.332 634.762C349.22 634.474 348.852 633.834 348.628 633.546C350.228 631.994 351.716 629.594 352.628 627.162ZM350.916 631.29L352.1 630.09L352.132 630.106L352.132 641.802L350.916 641.802L350.916 631.29ZM373.796 627.29L374.916 627.034C375.22 627.786 375.572 628.81 375.732 629.402L374.548 629.738C374.42 629.114 374.084 628.074 373.796 627.29ZM369.972 629.914L379.412 629.914L379.412 631.066L369.972 631.066L369.972 629.914ZM373.204 633.594L377.716 633.594L377.716 634.714L373.204 634.714L373.204 633.594ZM377.348 633.594L378.548 633.594C378.548 633.594 378.548 633.978 378.532 634.154C378.324 638.858 378.148 640.586 377.636 641.146C377.332 641.53 377.012 641.642 376.484 641.69C376.004 641.722 375.124 641.722 374.228 641.674C374.212 641.306 374.068 640.81 373.844 640.49C374.772 640.554 375.652 640.57 375.988 640.57C376.276 640.57 376.452 640.554 376.612 640.378C376.98 639.994 377.172 638.314 377.348 633.802L377.348 633.594ZM364.9 631.13L370.036 631.13L370.036 632.266L364.9 632.266L364.9 631.13ZM366.948 627.322L368.116 627.322L368.116 637.962L366.948 637.962L366.948 627.322ZM364.628 638.218C366.036 637.754 368.148 637.002 370.196 636.234L370.42 637.354C368.5 638.09 366.468 638.874 364.932 639.466L364.628 638.218ZM372.644 630.538L373.844 630.538L373.844 633.258C373.844 635.978 373.348 639.37 369.7 641.834C369.492 641.578 369.092 641.226 368.788 641.018C372.228 638.682 372.644 635.578 372.644 633.242L372.644 630.538ZM330.772 653.242L339.268 653.242L339.268 654.362L330.772 654.362L330.772 653.242ZM331.252 656.89L338.836 656.89L338.836 658.01L331.252 658.01L331.252 656.89ZM332.212 664.026L337.812 664.026L337.812 665.13L332.212 665.13L332.212 664.026ZM334.292 651.098L335.508 651.098L335.508 657.482L334.292 657.482L334.292 651.098ZM331.572 659.674L338.372 659.674L338.372 665.754L337.204 665.754L337.204 660.778L332.692 660.778L332.692 665.818L331.572 665.818L331.572 659.674ZM328.756 657.418L329.668 657.162C330.116 658.234 330.58 659.642 330.756 660.49L329.78 660.826C329.62 659.946 329.188 658.522 328.756 657.418ZM327.204 661.53L328.116 661.37C328.34 662.522 328.532 663.994 328.596 664.986L327.62 665.178C327.588 664.186 327.412 662.682 327.204 661.53ZM325.396 661.402L326.404 661.578C326.228 663.002 325.908 664.57 325.588 665.578C325.364 665.466 324.884 665.306 324.612 665.226C325.012 664.218 325.236 662.73 325.396 661.402ZM325.012 657.098C324.948 656.858 324.756 656.314 324.628 656.01C324.916 655.946 325.204 655.61 325.54 655.13C325.908 654.65 327.06 652.81 327.748 651.05L328.852 651.53C327.972 653.322 326.852 655.178 325.748 656.474L325.748 656.49C325.748 656.49 325.012 656.858 325.012 657.098ZM325.012 657.098L324.98 656.218L325.54 655.882L328.388 655.642C328.324 655.93 328.292 656.346 328.292 656.586C325.716 656.89 325.268 656.97 325.012 657.098ZM325.108 660.698C325.06 660.458 324.868 659.914 324.724 659.594C325.076 659.53 325.444 659.13 325.94 658.538C326.468 657.978 328.164 655.722 329.236 653.578L330.26 654.186C328.996 656.346 327.412 658.538 325.86 660.074L325.86 660.106C325.86 660.106 325.108 660.458 325.108 660.698ZM325.108 660.698L325.076 659.802L325.668 659.418L330.02 658.858C329.972 659.146 329.956 659.578 329.972 659.834C325.972 660.41 325.444 660.538 325.108 660.698ZM328.852 661.226L329.7 660.954C330.084 661.946 330.484 663.242 330.644 664.074L329.748 664.378C329.588 663.53 329.204 662.218 328.852 661.226ZM341.268 652.81L354.884 652.81L354.884 653.93L341.268 653.93L341.268 652.81ZM347.412 651.114L348.66 651.114L348.66 665.818L347.412 665.818L347.412 651.114ZM347.3 659.658L348.308 660.106C346.772 662.314 344.02 664.282 341.54 665.29C341.348 664.986 340.98 664.538 340.692 664.282C343.172 663.434 345.892 661.578 347.3 659.658ZM348.852 659.69C350.244 661.626 352.996 663.434 355.524 664.266C355.236 664.522 354.852 664.986 354.66 665.306C352.132 664.314 349.396 662.314 347.86 660.122L348.852 659.69ZM343.54 656.762L343.54 659.21L352.58 659.21L352.58 656.762L343.54 656.762ZM342.372 655.69L353.796 655.69L353.796 660.298L342.372 660.298L342.372 655.69Z" fill="white"></path> <path d="M328.439 690.177C326.183 690.177 324.503 688.241 324.503 684.369C324.503 679.777 326.567 678.017 328.839 678.017C330.055 678.017 330.951 678.529 331.591 679.217L330.775 680.113C330.327 679.569 329.607 679.233 328.903 679.233C327.255 679.233 325.879 680.529 325.879 684.369C325.879 687.377 326.791 689.025 328.439 689.025C329.559 689.025 330.423 687.953 330.423 686.369C330.423 684.769 329.719 683.761 328.311 683.761C327.559 683.761 326.615 684.209 325.831 685.377L325.783 684.209C326.503 683.265 327.591 682.689 328.535 682.689C330.519 682.689 331.799 683.905 331.799 686.369C331.799 688.641 330.247 690.177 328.439 690.177ZM332.674 692.817L337.474 677.249L338.514 677.249L333.73 692.817L332.674 692.817ZM339.468 689.953L339.468 689.105C343.148 685.889 344.828 683.537 344.828 681.537C344.828 680.193 344.14 679.201 342.684 679.201C341.724 679.201 340.892 679.793 340.236 680.561L339.388 679.745C340.348 678.705 341.372 678.017 342.86 678.017C344.956 678.017 346.268 679.377 346.268 681.473C346.268 683.825 344.428 686.209 341.66 688.817C342.284 688.753 342.988 688.705 343.58 688.705L346.828 688.705L346.828 689.953L339.468 689.953ZM352.103 690.177C349.943 690.177 348.359 688.865 348.359 687.057C348.359 685.473 349.447 684.385 350.519 683.809L350.519 683.745C349.655 683.153 348.919 682.257 348.919 681.025C348.919 679.249 350.311 678.065 352.151 678.065C354.151 678.065 355.367 679.345 355.367 681.137C355.367 682.385 354.503 683.425 353.799 683.969L353.799 684.049C354.823 684.641 355.783 685.537 355.783 687.137C355.783 688.849 354.295 690.177 352.103 690.177ZM352.903 683.601C353.703 682.897 354.119 682.097 354.119 681.217C354.119 680.065 353.383 679.137 352.119 679.137C351.047 679.137 350.263 679.905 350.263 681.025C350.263 682.433 351.527 683.057 352.903 683.601ZM352.135 689.073C353.479 689.073 354.375 688.257 354.375 687.089C354.375 685.521 352.935 684.929 351.287 684.257C350.327 684.865 349.671 685.793 349.671 686.913C349.671 688.161 350.727 689.073 352.135 689.073Z" fill="white"></path> </g> <g filter="url(#filter7_b_164_9178)"> <rect x="281" y="770" width="106.137" height="80.491" rx="4.15024" fill="white" fill-opacity="0.1"></rect> <rect x="281" y="770" width="106.137" height="80.491" rx="4.15024" stroke="#35EB93" stroke-width="1.5"></rect> <path d="M310.705 792.762C309.057 792.762 307.633 792.09 306.609 791.018L307.489 789.994C308.337 790.89 309.521 791.45 310.737 791.45C312.273 791.45 313.185 790.682 313.185 789.546C313.185 788.33 312.337 787.946 311.233 787.466L309.553 786.73C308.449 786.266 307.169 785.434 307.169 783.722C307.169 781.914 308.721 780.602 310.865 780.602C312.257 780.602 313.489 781.194 314.305 782.058L313.521 783.002C312.801 782.33 311.937 781.898 310.865 781.898C309.537 781.898 308.673 782.57 308.673 783.61C308.673 784.762 309.697 785.178 310.609 785.562L312.273 786.282C313.649 786.874 314.689 787.69 314.689 789.434C314.689 791.29 313.169 792.762 310.705 792.762ZM316.989 792.538L316.989 780.81L318.477 780.81L318.477 792.538L316.989 792.538ZM324.108 792.538L324.108 782.058L320.572 782.058L320.572 780.81L329.148 780.81L329.148 782.058L325.612 782.058L325.612 792.538L324.108 792.538ZM335.218 792.762C332.29 792.762 330.114 790.49 330.114 786.682C330.114 782.906 332.338 780.602 335.314 780.602C336.738 780.602 337.842 781.29 338.53 782.042L337.714 783.002C337.106 782.346 336.322 781.898 335.33 781.898C333.106 781.898 331.634 783.722 331.634 786.65C331.634 789.61 333.042 791.45 335.282 791.45C336.386 791.45 337.25 790.97 338.002 790.138L338.802 791.066C337.874 792.154 336.738 792.762 335.218 792.762ZM344.778 792.762C341.818 792.762 339.77 790.394 339.77 786.634C339.77 782.874 341.818 780.602 344.778 780.602C347.722 780.602 349.77 782.89 349.77 786.634C349.77 790.394 347.722 792.762 344.778 792.762ZM344.778 791.45C346.874 791.45 348.266 789.562 348.266 786.634C348.266 783.706 346.874 781.898 344.778 781.898C342.666 781.898 341.29 783.706 341.29 786.634C341.29 789.562 342.666 791.45 344.778 791.45ZM352.317 792.538L352.317 780.81L353.837 780.81L358.109 788.202L359.373 790.634L359.453 790.634C359.357 789.45 359.245 788.122 359.245 786.906L359.245 780.81L360.669 780.81L360.669 792.538L359.133 792.538L354.877 785.146L353.613 782.73L353.533 782.73C353.613 783.914 353.725 785.146 353.725 786.394L353.725 792.538L352.317 792.538ZM313.684 804.714L313.684 808.202L322.324 808.202L322.324 804.714L313.684 804.714ZM312.548 803.706L323.524 803.706L323.524 809.226L312.548 809.226L312.548 803.706ZM314.58 805.418L315.38 805.13C315.844 805.866 316.292 806.826 316.436 807.482L315.588 807.818C315.46 807.178 315.028 806.17 314.58 805.418ZM312.26 810.538L323.828 810.538L323.828 811.53L312.26 811.53L312.26 810.538ZM310.948 812.97L325.188 812.97L325.188 814.042L310.948 814.042L310.948 812.97ZM317.428 804.122L318.644 804.122L318.644 813.514L317.428 813.514L317.428 804.122ZM320.58 805.114L321.524 805.466C321.076 806.33 320.548 807.338 320.132 807.978L319.348 807.642C319.78 806.97 320.308 805.866 320.58 805.114ZM315.508 815.098L316.612 815.002C316.82 815.85 316.964 816.938 316.964 817.578L315.796 817.738C315.78 817.066 315.684 815.962 315.508 815.098ZM318.788 815.13L319.924 814.906C320.292 815.706 320.692 816.778 320.836 817.45L319.652 817.738C319.524 817.05 319.14 815.962 318.788 815.13ZM322.052 815.066L323.14 814.682C323.924 815.498 324.852 816.634 325.268 817.402L324.1 817.85C323.716 817.098 322.82 815.93 322.052 815.066ZM312.74 814.682L313.892 814.97C313.508 816.01 312.836 817.162 312.068 817.882L310.964 817.37C311.684 816.746 312.356 815.674 312.74 814.682ZM332.116 805.93L333.412 806.186C332.308 807.738 330.692 809.258 328.34 810.426C328.164 810.138 327.796 809.738 327.524 809.562C329.748 808.57 331.3 807.178 332.116 805.93ZM331.972 807.13L337.556 807.13L337.556 808.09L331.124 808.09L331.972 807.13ZM337.204 807.13L337.444 807.13L337.668 807.082L338.468 807.578C336.308 810.906 331.556 812.89 327.22 813.77C327.108 813.466 326.836 812.97 326.628 812.714C330.756 811.978 335.364 810.09 337.204 807.322L337.204 807.13ZM331.476 807.882C333.348 810.282 337.22 811.834 341.508 812.378C341.236 812.65 340.916 813.162 340.74 813.514C336.436 812.842 332.564 811.13 330.42 808.362L331.476 807.882ZM329.748 812.89L338.5 812.89L338.5 817.786L337.268 817.786L337.268 813.914L330.932 813.914L330.932 817.802L329.748 817.802L329.748 812.89ZM330.404 816.25L337.908 816.25L337.908 817.274L330.404 817.274L330.404 816.25ZM327.284 804.554L340.82 804.554L340.82 807.578L339.604 807.578L339.604 805.658L328.468 805.658L328.468 807.578L327.284 807.578L327.284 804.554ZM332.98 803.258L334.132 802.97C334.564 803.578 335.06 804.442 335.284 805.002L334.052 805.354C333.844 804.81 333.38 803.914 332.98 803.258ZM342.852 806.49L348.372 806.49L348.372 807.626L342.852 807.626L342.852 806.49ZM345.236 803.098L346.34 803.098L346.34 817.802L345.236 817.802L345.236 803.098ZM345.22 807.21L345.94 807.482C345.444 810.074 344.34 813.242 343.22 814.858C343.076 814.522 342.788 813.994 342.564 813.706C343.668 812.282 344.74 809.498 345.22 807.21ZM346.276 808.298C346.644 808.746 348.004 810.778 348.308 811.258L347.572 812.122C347.204 811.322 346.132 809.402 345.684 808.762L346.276 808.298ZM348.996 817.162C348.932 816.922 348.74 816.33 348.596 816.01C348.932 815.93 349.204 815.386 349.588 814.602C349.988 813.866 351.204 810.986 351.844 808.33L353.06 808.666C352.244 811.466 351.06 814.394 349.892 816.458L349.892 816.474C349.892 816.474 348.996 816.922 348.996 817.162ZM348.996 817.162L348.964 816.202L349.652 815.754L355.908 815.002C355.924 815.338 356.036 815.802 356.1 816.058C350.132 816.858 349.46 816.938 348.996 817.162ZM353.892 812.618L354.916 812.218C355.716 813.738 356.692 815.786 357.14 816.954L356.036 817.482C355.604 816.25 354.676 814.17 353.892 812.618ZM350.644 803.69L351.78 803.898C351.332 806.506 350.548 809.018 349.364 810.666C349.22 810.426 348.772 809.946 348.532 809.738C349.62 808.282 350.276 806.042 350.644 803.69ZM353.444 803.562L354.708 803.562C355.156 805.946 356.084 808.394 357.156 809.706C356.884 809.898 356.468 810.346 356.244 810.634C355.124 809.114 354.212 806.602 353.732 804.17L353.444 804.17L353.444 803.562ZM352.308 803.562L354.452 803.562L354.452 804.602L352.308 804.602L352.308 803.562Z" fill="white"></path> <path d="M305.189 841.953C305.397 837.521 306.197 834.673 308.501 831.473L302.821 831.473L302.821 830.225L310.149 830.225L310.149 831.105C307.397 834.641 306.901 837.377 306.709 841.953L305.189 841.953ZM311.088 844.817L315.888 829.249L316.928 829.249L312.144 844.817L311.088 844.817ZM321.994 842.177C319.738 842.177 318.058 840.241 318.058 836.369C318.058 831.777 320.122 830.017 322.394 830.017C323.61 830.017 324.506 830.529 325.146 831.217L324.33 832.113C323.882 831.569 323.162 831.233 322.458 831.233C320.81 831.233 319.434 832.529 319.434 836.369C319.434 839.377 320.346 841.025 321.994 841.025C323.114 841.025 323.978 839.953 323.978 838.369C323.978 836.769 323.274 835.761 321.866 835.761C321.114 835.761 320.17 836.209 319.386 837.377L319.338 836.209C320.058 835.265 321.146 834.689 322.09 834.689C324.074 834.689 325.354 835.905 325.354 838.369C325.354 840.641 323.802 842.177 321.994 842.177ZM335.631 837.361C334.239 837.361 333.471 835.857 332.463 835.857C331.951 835.857 331.503 836.177 331.087 836.945L330.271 836.369C330.911 835.233 331.727 834.753 332.495 834.753C333.903 834.753 334.655 836.273 335.663 836.273C336.191 836.273 336.639 835.953 337.039 835.185L337.855 835.777C337.199 836.881 336.399 837.361 335.631 837.361ZM345.236 841.953C345.444 837.521 346.244 834.673 348.548 831.473L342.868 831.473L342.868 830.225L350.196 830.225L350.196 831.105C347.444 834.641 346.948 837.377 346.756 841.953L345.236 841.953ZM351.135 844.817L355.935 829.249L356.975 829.249L352.191 844.817L351.135 844.817ZM360.377 841.953C360.585 837.521 361.385 834.673 363.689 831.473L358.009 831.473L358.009 830.225L365.337 830.225L365.337 831.105C362.585 834.641 362.089 837.377 361.897 841.953L360.377 841.953Z" fill="white"></path> </g> <path d="M218.434 609.327L230.309 609.327" stroke="url(#paint5_linear_164_9178)" stroke-width="0.760232" stroke-linecap="round"></path> <path d="M218.434 609.201L218.434 593.553" stroke="white" stroke-width="0.760232" stroke-linecap="round"></path> <circle cx="4.43469" cy="4.43469" r="4.43469" transform="matrix(-1 -6.99748e-09 -6.99748e-09 1 222.867 585)" fill="white"></circle> <path d="M246.434 639.327L258.309 639.327" stroke="url(#paint6_linear_164_9178)" stroke-width="0.760232" stroke-linecap="round"></path> <path d="M246.434 639.201L246.434 623.553" stroke="white" stroke-width="0.760232" stroke-linecap="round"></path> <circle cx="4.43469" cy="4.43469" r="4.43469" transform="matrix(-1 -6.99748e-09 -6.99748e-09 1 250.867 615)" fill="white"></circle> <path d="M336.126 729.327L348 729.327" stroke="url(#paint7_linear_164_9178)" stroke-width="0.760232" stroke-linecap="round"></path> <path d="M336.125 729.201L336.125 713.553" stroke="white" stroke-width="0.760232" stroke-linecap="round"></path> <circle cx="4.43469" cy="4.43469" r="4.43469" transform="matrix(-1 -6.99748e-09 -6.99748e-09 1 340.559 705)" fill="white"></circle> <path d="M398.434 802.327L410.309 802.327" stroke="url(#paint8_linear_164_9178)" stroke-width="0.760232" stroke-linecap="round"></path> <path d="M398.434 802.201L398.434 786.553" stroke="white" stroke-width="0.760232" stroke-linecap="round"></path> <circle cx="4.43469" cy="4.43469" r="4.43469" transform="matrix(-1 -6.99748e-09 -6.99748e-09 1 402.867 778)" fill="white"></circle> <defs> <filter id="filter0_f_164_9178" x="-9.29229" y="380.227" width="435.186" height="457.647" filterUnits="userSpaceOnUse" color-interpolation-filters="sRGB"> <feFlood flood-opacity="0" result="BackgroundImageFix"></feFlood> <feBlend mode="normal" in="SourceGraphic" in2="BackgroundImageFix" result="shape"></feBlend> <feGaussianBlur stdDeviation="2.85611" result="effect1_foregroundBlur_164_9178"></feGaussianBlur> </filter> <filter id="filter1_b_164_9178" x="-8.30328" y="286.697" width="136.607" height="116.607" filterUnits="userSpaceOnUse" color-interpolation-filters="sRGB"> <feFlood flood-opacity="0" result="BackgroundImageFix"></feFlood> <feGaussianBlur in="BackgroundImageFix" stdDeviation="14.1516"></feGaussianBlur> <feComposite in2="SourceAlpha" operator="in" result="effect1_backgroundBlur_164_9178"></feComposite> <feBlend mode="normal" in="SourceGraphic" in2="effect1_backgroundBlur_164_9178" result="shape"></feBlend> </filter> <filter id="filter2_b_164_9178" x="36.6967" y="370.697" width="136.607" height="116.607" filterUnits="userSpaceOnUse" color-interpolation-filters="sRGB"> <feFlood flood-opacity="0" result="BackgroundImageFix"></feFlood> <feGaussianBlur in="BackgroundImageFix" stdDeviation="14.1516"></feGaussianBlur> <feComposite in2="SourceAlpha" operator="in" result="effect1_backgroundBlur_164_9178"></feComposite> <feBlend mode="normal" in="SourceGraphic" in2="effect1_backgroundBlur_164_9178" result="shape"></feBlend> </filter> <filter id="filter3_b_164_9178" x="105.697" y="414.697" width="136.607" height="116.607" filterUnits="userSpaceOnUse" color-interpolation-filters="sRGB"> <feFlood flood-opacity="0" result="BackgroundImageFix"></feFlood> <feGaussianBlur in="BackgroundImageFix" stdDeviation="14.1516"></feGaussianBlur> <feComposite in2="SourceAlpha" operator="in" result="effect1_backgroundBlur_164_9178"></feComposite> <feBlend mode="normal" in="SourceGraphic" in2="effect1_backgroundBlur_164_9178" result="shape"></feBlend> </filter> <filter id="filter4_b_164_9178" x="149.697" y="490.697" width="136.607" height="116.607" filterUnits="userSpaceOnUse" color-interpolation-filters="sRGB"> <feFlood flood-opacity="0" result="BackgroundImageFix"></feFlood> <feGaussianBlur in="BackgroundImageFix" stdDeviation="14.1516"></feGaussianBlur> <feComposite in2="SourceAlpha" operator="in" result="effect1_backgroundBlur_164_9178"></feComposite> <feBlend mode="normal" in="SourceGraphic" in2="effect1_backgroundBlur_164_9178" result="shape"></feBlend> </filter> <filter id="filter5_b_164_9178" x="104.697" y="587.697" width="162.743" height="137.098" filterUnits="userSpaceOnUse" color-interpolation-filters="sRGB"> <feFlood flood-opacity="0" result="BackgroundImageFix"></feFlood> <feGaussianBlur in="BackgroundImageFix" stdDeviation="14.1516"></feGaussianBlur> <feComposite in2="SourceAlpha" operator="in" result="effect1_backgroundBlur_164_9178"></feComposite> <feBlend mode="normal" in="SourceGraphic" in2="effect1_backgroundBlur_164_9178" result="shape"></feBlend> </filter> <filter id="filter6_b_164_9178" x="258.697" y="589.697" width="162.743" height="137.098" filterUnits="userSpaceOnUse" color-interpolation-filters="sRGB"> <feFlood flood-opacity="0" result="BackgroundImageFix"></feFlood> <feGaussianBlur in="BackgroundImageFix" stdDeviation="14.1516"></feGaussianBlur> <feComposite in2="SourceAlpha" operator="in" result="effect1_backgroundBlur_164_9178"></feComposite> <feBlend mode="normal" in="SourceGraphic" in2="effect1_backgroundBlur_164_9178" result="shape"></feBlend> </filter> <filter id="filter7_b_164_9178" x="251.947" y="740.947" width="164.243" height="138.598" filterUnits="userSpaceOnUse" color-interpolation-filters="sRGB"> <feFlood flood-opacity="0" result="BackgroundImageFix"></feFlood> <feGaussianBlur in="BackgroundImageFix" stdDeviation="14.1516"></feGaussianBlur> <feComposite in2="SourceAlpha" operator="in" result="effect1_backgroundBlur_164_9178"></feComposite> <feBlend mode="normal" in="SourceGraphic" in2="effect1_backgroundBlur_164_9178" result="shape"></feBlend> </filter> <linearGradient id="paint0_linear_164_9178" x1="416.692" y1="831.399" x2="304.979" y2="320.053" gradientUnits="userSpaceOnUse"> <stop stop-color="#73BB3A"></stop> <stop offset="0.264" stop-color="#35EB93"></stop> <stop offset="0.534" stop-color="#3D3393"></stop> <stop offset="0.753141" stop-color="#2CACD1"></stop> <stop offset="0.994" stop-color="#2B76B9"></stop> </linearGradient> <linearGradient id="paint1_linear_164_9178" x1="429.037" y1="835.842" x2="315.659" y2="316.87" gradientUnits="userSpaceOnUse"> <stop stop-color="#73BB3A"></stop> <stop offset="0.264" stop-color="#35EB93"></stop> <stop offset="0.534" stop-color="#3D3393"></stop> <stop offset="0.753141" stop-color="#2CACD1"></stop> <stop offset="0.994" stop-color="#2B76B9"></stop> </linearGradient> <linearGradient id="paint2_linear_164_9178" x1="27.2256" y1="406.474" x2="36.3757" y2="406.474" gradientUnits="userSpaceOnUse"> <stop stop-opacity="0.2"></stop> <stop offset="1" stop-opacity="0"></stop> </linearGradient> <linearGradient id="paint3_linear_164_9178" x1="104.599" y1="490.327" x2="113.749" y2="490.327" gradientUnits="userSpaceOnUse"> <stop stop-opacity="0.2"></stop> <stop offset="1" stop-opacity="0"></stop> </linearGradient> <linearGradient id="paint4_linear_164_9178" x1="146.308" y1="534.327" x2="155.458" y2="534.327" gradientUnits="userSpaceOnUse"> <stop stop-opacity="0.2"></stop> <stop offset="1" stop-opacity="0"></stop> </linearGradient> <linearGradient id="paint5_linear_164_9178" x1="218.308" y1="610.327" x2="227.458" y2="610.327" gradientUnits="userSpaceOnUse"> <stop stop-opacity="0.2"></stop> <stop offset="1" stop-opacity="0"></stop> </linearGradient> <linearGradient id="paint6_linear_164_9178" x1="246.308" y1="640.327" x2="255.458" y2="640.327" gradientUnits="userSpaceOnUse"> <stop stop-opacity="0.2"></stop> <stop offset="1" stop-opacity="0"></stop> </linearGradient> <linearGradient id="paint7_linear_164_9178" x1="335.999" y1="730.327" x2="345.149" y2="730.327" gradientUnits="userSpaceOnUse"> <stop stop-opacity="0.2"></stop> <stop offset="1" stop-opacity="0"></stop> </linearGradient> <linearGradient id="paint8_linear_164_9178" x1="398.308" y1="803.327" x2="407.458" y2="803.327" gradientUnits="userSpaceOnUse"> <stop stop-opacity="0.2"></stop> <stop offset="1" stop-opacity="0"></stop> </linearGradient> </defs> </svg>