<svg width="504" height="504" viewBox="0 0 504 504" fill="none" xmlns="http://www.w3.org/2000/svg">
<g filter="url(#filter0_f_92_252)">
<circle cx="251.513" cy="251.512" r="101.5" transform="rotate(9.26161 251.513 251.512)" fill="#35EB93" fill-opacity="0.5"/>
</g>
<g clip-path="url(#clip0_92_252)">
<g filter="url(#filter1_d_92_252)">
<path opacity="0.87" d="M192.543 290.352C191.024 288.199 189.943 285.767 189.364 283.197C188.784 280.626 188.717 277.967 189.165 275.37C189.613 272.773 190.569 270.29 191.977 268.063C193.385 265.836 195.218 263.907 197.371 262.388L181.853 240.385C180.294 238.164 179.671 235.418 180.12 232.741C180.569 230.065 182.053 227.672 184.251 226.08L255.654 174.7C257.876 173.104 260.641 172.456 263.341 172.896C266.042 173.337 268.457 174.83 270.058 177.049L322.335 249.697C323.13 250.804 323.698 252.058 324.006 253.386C324.314 254.714 324.356 256.09 324.131 257.434C323.905 258.779 323.415 260.065 322.689 261.22C321.964 262.374 321.018 263.373 319.904 264.16L297.842 279.721C300.818 284.068 301.963 289.412 301.031 294.598C300.098 299.783 297.162 304.393 292.857 307.431C288.552 310.468 283.225 311.69 278.027 310.831C272.829 309.972 268.178 307.102 265.079 302.841L249.798 313.651C246.915 315.672 243.35 316.469 239.881 315.869C236.413 315.269 233.323 313.321 231.286 310.45L220.513 295.181C216.163 298.249 210.773 299.464 205.528 298.559C200.282 297.653 195.612 294.701 192.543 290.352Z" fill="#67C2B5"/>
<path d="M217.119 261.022L270.292 285.639L285.564 279.983" stroke="#231815" stroke-width="1.52754" stroke-linecap="round" stroke-linejoin="round"/>
<path d="M266.642 271.59L226.31 277.289L214.061 271.025" stroke="#231815" stroke-width="1.52754" stroke-linecap="round" stroke-linejoin="round"/>
<path d="M252.463 227.932C251.929 231.2 250.336 234.202 247.931 236.477C245.526 238.753 242.44 240.176 239.148 240.529C238.688 240.584 238.232 240.608 237.772 240.618C237.012 240.628 236.252 240.579 235.5 240.47C235.366 240.449 235.239 240.428 235.105 240.406L228.75 239.37C226.788 239.055 224.906 238.356 223.214 237.314C221.521 236.271 220.051 234.905 218.887 233.294C217.723 231.682 216.888 229.858 216.429 227.923C215.971 225.989 215.898 223.983 216.216 222.021L252.463 227.932Z" fill="#231815"/>
<path d="M288.723 233.845C288.406 235.805 287.705 237.683 286.659 239.371C285.614 241.059 284.244 242.524 282.63 243.68C280.257 245.383 277.443 246.366 274.526 246.514C274.064 246.536 273.594 246.532 273.112 246.519C272.526 246.489 271.942 246.426 271.362 246.331L264.989 245.292C263.028 244.973 261.15 244.271 259.461 243.227C257.772 242.182 256.305 240.815 255.144 239.203C253.983 237.591 253.151 235.767 252.696 233.834C252.24 231.901 252.169 229.897 252.488 227.936L288.723 233.845Z" fill="#231815"/>
<path d="M235.5 240.47C235.366 240.448 235.239 240.428 235.105 240.406L232.466 239.976L225.502 223.535L228.549 224.032L235.5 240.47Z" fill="white"/>
<path d="M239.148 240.529C238.687 240.584 238.232 240.608 237.772 240.618L230.921 224.452L232.451 224.701L239.148 240.529Z" fill="white"/>
<path d="M270.776 246.236L267.729 245.739L260.774 229.287L263.827 229.785L270.776 246.236Z" fill="white"/>
<path d="M274.806 246.481C274.339 246.496 273.868 246.498 273.386 246.485L266.472 230.138L268.008 230.388L274.806 246.481Z" fill="white"/>
<path d="M229.277 207.165L245.676 217.907L250.217 214.617" stroke="#231815" stroke-width="2.28653" stroke-linecap="round" stroke-linejoin="round"/>
<path d="M279.949 215.428L260.986 220.403L257.726 215.841" stroke="#231815" stroke-width="2.28653" stroke-linecap="round" stroke-linejoin="round"/>
<path d="M237.901 253.588L266.2 252.51" stroke="#231815" stroke-width="2.28653" stroke-linecap="round" stroke-linejoin="round"/>
<path d="M271.671 249.496C271.671 249.496 275.299 250.801 273.573 254.524" stroke="#231815" stroke-width="2.28653" stroke-linecap="round" stroke-linejoin="round"/>
<path d="M228.623 306.678L219.668 326.241L203.822 321.943" stroke="#231815" stroke-width="1.21248" stroke-linecap="round" stroke-linejoin="round"/>
<path d="M252.137 311.625L253.117 331.696L269.509 332.654" stroke="#231815" stroke-width="1.21248" stroke-linecap="round" stroke-linejoin="round"/>
</g>
</g>
<defs>
<filter id="filter0_f_92_252" x="-0.00292969" y="-0.00292969" width="503.031" height="503.031" filterUnits="userSpaceOnUse" color-interpolation-filters="sRGB">
<feFlood flood-opacity="0" result="BackgroundImageFix"/>
<feBlend mode="normal" in="SourceGraphic" in2="BackgroundImageFix" result="shape"/>
<feGaussianBlur stdDeviation="75" result="effect1_foregroundBlur_92_252"/>
</filter>
<filter id="filter1_d_92_252" x="178.069" y="172.761" width="148.114" height="164.318" filterUnits="userSpaceOnUse" color-interpolation-filters="sRGB">
<feFlood flood-opacity="0" result="BackgroundImageFix"/>
<feColorMatrix in="SourceAlpha" type="matrix" values="0 0 0 0 0 0 0 0 0 0 0 0 0 0 0 0 0 0 127 0" result="hardAlpha"/>
<feOffset dy="1.90942"/>
<feGaussianBlur stdDeviation="0.954711"/>
<feComposite in2="hardAlpha" operator="out"/>
<feColorMatrix type="matrix" values="0 0 0 0 0 0 0 0 0 0 0 0 0 0 0 0 0 0 0.25 0"/>
<feBlend mode="normal" in2="BackgroundImageFix" result="effect1_dropShadow_92_252"/>
<feBlend mode="normal" in="SourceGraphic" in2="effect1_dropShadow_92_252" result="shape"/>
</filter>
<clipPath id="clip0_92_252">
<rect width="146.136" height="159.206" fill="white" transform="translate(191.766 161.22) rotate(9.26161)"/>
</clipPath>
</defs>
</svg>
