<svg width="1440" height="108" viewBox="0 0 1440 108" fill="none" xmlns="http://www.w3.org/2000/svg">
<path opacity="0.6" d="M20.437 59.37C12.7237 56.5967 6.87366 53.0433 2.88699 48.71C-1.01301 44.3767 -2.96301 38.44 -2.96301 30.9C-2.96301 25.44 -1.53301 20.4567 1.32699 15.95C4.18699 11.3567 8.30366 7.71666 13.677 5.02999C19.0503 2.25666 25.507 0.869992 33.047 0.869992C51.507 0.869992 63.6403 7.58666 69.447 21.02L64.507 24.53C61.0403 17.5967 56.6637 12.96 51.377 10.62C46.177 8.28 40.067 7.11 33.047 7.11C26.8937 7.11 21.5637 8.19333 17.057 10.36C12.637 12.44 9.21366 15.3 6.78699 18.94C4.44699 22.4933 3.27699 26.48 3.27699 30.9C3.27699 36.9667 4.92366 41.69 8.21699 45.07C11.5103 48.45 16.277 51.2667 22.517 53.52L37.207 58.72C43.7937 61.06 48.257 63.79 50.597 66.91C52.937 69.9433 54.107 73.41 54.107 77.31C54.107 81.99 52.5037 85.89 49.297 89.01C46.0903 92.13 40.7603 93.69 33.307 93.69C27.847 93.69 22.6037 92 17.577 88.62C12.5503 85.1533 8.39033 79.8233 5.09699 72.63L10.427 68.99C12.6803 74.7967 15.9303 79.3467 20.177 82.64C24.4237 85.8467 28.8003 87.45 33.307 87.45C38.3337 87.45 42.017 86.54 44.357 84.72C46.697 82.9 47.867 80.43 47.867 77.31C47.867 74.5367 46.9137 72.1533 45.007 70.16C43.1003 68.08 39.807 66.2167 35.127 64.57L20.437 59.37ZM28.887 45.2C23.2537 43.2933 19.3103 40.9967 17.057 38.31C14.8037 35.6233 13.677 32.72 13.677 29.6C13.677 26.9133 14.2837 24.4 15.497 22.06C16.797 19.72 18.9203 17.8133 21.867 16.34C24.9003 14.8667 28.9303 14.13 33.957 14.13C39.0703 14.13 43.6637 15.43 47.737 18.03C51.8103 20.63 55.0603 24.4867 57.487 29.6L52.287 33.37C50.727 29.21 48.3003 26.0033 45.007 23.75C41.7137 21.4967 38.0303 20.37 33.957 20.37C28.9303 20.37 25.3337 21.28 23.167 23.1C21.0003 24.8333 19.917 27 19.917 29.6C19.917 33.5867 23.557 36.7933 30.837 39.22L46.957 44.55C54.6703 47.0633 60.7803 50.7467 65.287 55.6C69.8803 60.4533 72.177 66.8233 72.177 74.71C72.177 85.1967 68.797 93.3 62.037 99.02C55.3637 104.74 45.8303 107.6 33.437 107.6C22.9503 107.6 14.2403 105.26 7.30699 100.58C0.37366 95.9 -4.52301 89.4 -7.38301 81.08L-2.70301 77.96C1.11033 86.54 6.05033 92.6067 12.117 96.16C18.1837 99.7133 25.2903 101.49 33.437 101.49C43.7503 101.49 51.7237 99.1933 57.357 94.6C63.077 90.0067 65.937 83.3767 65.937 74.71C65.937 68.2967 63.987 63.1833 60.087 59.37C56.2737 55.5567 51.247 52.61 45.007 50.53L28.887 45.2ZM110.634 3.6H116.874V105H110.634V3.6ZM92.4336 3.6H98.6736V105H92.4336V3.6ZM130.923 3.6H209.053V9.83999H130.923V3.6ZM175.773 17.12H209.053V23.36H182.013V105H175.773V17.12ZM157.833 23.36H130.923V17.12H164.073V105H157.833V23.36ZM304.188 87.32C300.982 93.56 295.998 98.5 289.238 102.14C282.565 105.78 274.895 107.6 266.228 107.6C256.522 107.6 247.985 105.433 240.618 101.1C233.338 96.68 227.618 90.4833 223.458 82.51C219.385 74.45 217.348 64.96 217.348 54.04C217.348 43.2933 219.385 33.9333 223.458 25.96C227.618 17.9867 233.338 11.8333 240.618 7.49999C247.985 3.07999 256.478 0.869992 266.098 0.869992C272.252 0.869992 277.842 1.73666 282.868 3.47C287.895 5.20333 292.185 7.58666 295.738 10.62C299.292 13.6533 301.892 17.12 303.538 21.02L299.248 24.92C295.522 18.2467 290.798 13.61 285.078 11.01C279.358 8.41 273.032 7.11 266.098 7.11C257.605 7.11 250.152 9.06 243.738 12.96C237.412 16.86 232.472 22.32 228.918 29.34C225.365 36.36 223.588 44.5933 223.588 54.04C223.588 63.66 225.365 72.0233 228.918 79.13C232.472 86.2367 237.455 91.74 243.868 95.64C250.282 99.54 257.735 101.49 266.228 101.49C272.988 101.49 279.185 100.147 284.818 97.46C290.538 94.7733 295.652 90.0067 300.158 83.16L304.188 87.32ZM294.568 77.57C291.188 82.77 287.158 86.6267 282.478 89.14C277.798 91.5667 273.075 92.78 268.308 92.78C262.588 92.78 257.302 91.35 252.448 88.49C247.682 85.63 243.868 81.34 241.008 75.62C238.148 69.9 236.718 62.7067 236.718 54.04C236.718 45.72 238.148 38.7 241.008 32.98C243.868 27.26 247.682 22.97 252.448 20.11C257.215 17.1633 262.458 15.69 268.178 15.69C272.772 15.69 277.365 16.9033 281.958 19.33C286.552 21.67 290.322 25.3967 293.268 30.51L288.718 34.67C287.678 32.33 286.075 30.2067 283.908 28.3C281.828 26.3067 279.402 24.7467 276.628 23.62C273.855 22.4933 271.038 21.93 268.178 21.93C263.498 21.93 259.252 23.1867 255.438 25.7C251.625 28.2133 248.592 31.8533 246.338 36.62C244.085 41.3867 242.958 47.1933 242.958 54.04C242.958 61.1467 244.085 67.1267 246.338 71.98C248.592 76.8333 251.625 80.4733 255.438 82.9C259.252 85.3267 263.542 86.54 268.308 86.54C271.168 86.54 273.985 85.9767 276.758 84.85C279.618 83.6367 282.218 82.0333 284.558 80.04C286.898 77.96 288.675 75.5767 289.888 72.89L294.568 77.57ZM359.998 107.6C350.638 107.6 342.448 105.433 335.428 101.1C328.408 96.7667 322.948 90.6133 319.048 82.64C315.148 74.58 313.198 65.0467 313.198 54.04C313.198 43.2933 315.148 33.9333 319.048 25.96C322.948 17.9867 328.408 11.8333 335.428 7.49999C342.448 3.07999 350.638 0.869992 359.998 0.869992C369.358 0.869992 377.505 3.07999 384.438 7.49999C391.458 11.92 396.875 18.1167 400.688 26.09C404.501 34.0633 406.408 43.38 406.408 54.04C406.408 65.0467 404.501 74.58 400.688 82.64C396.875 90.6133 391.458 96.7667 384.438 101.1C377.505 105.433 369.358 107.6 359.998 107.6ZM359.998 101.49C368.231 101.49 375.338 99.54 381.318 95.64C387.298 91.74 391.935 86.2367 395.228 79.13C398.521 72.0233 400.168 63.66 400.168 54.04C400.168 44.68 398.521 36.49 395.228 29.47C391.935 22.45 387.298 16.99 381.318 13.09C375.338 9.10333 368.231 7.11 359.998 7.11C351.765 7.11 344.615 9.06 338.548 12.96C332.481 16.86 327.758 22.32 324.378 29.34C321.085 36.36 319.438 44.5933 319.438 54.04C319.438 63.66 321.085 72.0233 324.378 79.13C327.758 86.2367 332.481 91.74 338.548 95.64C344.615 99.54 351.765 101.49 359.998 101.49ZM359.998 93.56C354.798 93.56 349.988 92.0433 345.568 89.01C341.235 85.9767 337.768 81.5567 335.168 75.75C332.568 69.8567 331.268 62.62 331.268 54.04C331.268 45.3733 332.655 38.18 335.428 32.46C338.201 26.6533 341.755 22.32 346.088 19.46C350.508 16.5133 355.145 15.04 359.998 15.04C365.198 15.04 369.921 16.5133 374.168 19.46C378.501 22.32 381.925 26.6533 384.438 32.46C387.038 38.18 388.338 45.3733 388.338 54.04C388.338 62.62 386.995 69.8567 384.308 75.75C381.621 81.5567 378.111 85.9767 373.778 89.01C369.531 92.0433 364.938 93.56 359.998 93.56ZM359.998 87.32C364.071 87.32 367.755 86.02 371.048 83.42C374.428 80.82 377.115 77.05 379.108 72.11C381.101 67.0833 382.098 61.06 382.098 54.04C382.098 43.4667 380.018 35.3633 375.858 29.73C371.698 24.0967 366.411 21.28 359.998 21.28C356.011 21.28 352.285 22.5367 348.818 25.05C345.438 27.5633 342.708 31.2467 340.628 36.1C338.548 40.9533 337.508 46.9333 337.508 54.04C337.508 61.06 338.461 67.0833 340.368 72.11C342.361 77.05 345.048 80.82 348.428 83.42C351.895 86.02 355.751 87.32 359.998 87.32ZM453.654 56.51C452.267 53.5633 450.924 50.4 449.624 47.02C448.411 43.5533 447.327 40.26 446.374 37.14C445.507 33.9333 444.814 31.29 444.294 29.21H443.904C444.857 34.2367 445.594 40.0433 446.114 46.63C446.634 53.13 446.894 60.1067 446.894 67.56V105H440.654V22.19H444.164L480.694 98.76H500.194V3.6H506.434V105H476.794L453.654 56.51ZM449.104 9.83999H430.644V105H424.404V3.6H453.004L476.274 51.57C478.007 55.1233 479.611 58.7633 481.084 62.49C482.557 66.13 483.771 69.4233 484.724 72.37C485.764 75.23 486.371 77.2667 486.544 78.48H487.194C486.067 72.0667 485.244 65.7833 484.724 59.63C484.204 53.4767 483.944 47.8867 483.944 42.86V3.6H490.184V85.5H485.894L449.104 9.83999ZM591.892 3.6H598.132V42.73H632.192V3.6H638.432V48.97H591.892V3.6ZM650.262 3.6H656.502V105H650.262V3.6ZM574.082 3.6H580.322V105H574.082V3.6ZM632.192 62.62H598.132V105H591.892V56.38H638.432V105H632.192V62.62ZM727.296 9.83999H706.236L674.386 105H667.886L701.686 3.6H731.846L765.646 105H758.886L727.296 9.83999ZM712.736 20.11H720.276L735.876 67.56H697.136L712.736 20.11ZM727.296 61.32C726.862 59.9333 726.169 57.8533 725.216 55.08C724.262 52.3067 723.222 49.23 722.096 45.85C720.969 42.3833 719.929 38.96 718.976 35.58C718.022 32.1133 717.329 29.0367 716.896 26.35H716.116C715.682 28.95 714.989 31.9833 714.036 35.45C713.169 38.83 712.172 42.2533 711.046 45.72C709.919 49.1 708.879 52.22 707.926 55.08C706.972 57.8533 706.279 59.9333 705.846 61.32H727.296ZM733.796 81.21H699.476L691.416 105H684.916L695.056 74.97H738.346L748.096 105H741.596L733.796 81.21ZM858.72 87.32C855.513 93.56 850.53 98.5 843.77 102.14C837.096 105.78 829.426 107.6 820.76 107.6C811.053 107.6 802.516 105.433 795.15 101.1C787.87 96.68 782.15 90.4833 777.99 82.51C773.916 74.45 771.88 64.96 771.88 54.04C771.88 43.2933 773.916 33.9333 777.99 25.96C782.15 17.9867 787.87 11.8333 795.15 7.49999C802.516 3.07999 811.01 0.869992 820.63 0.869992C826.783 0.869992 832.373 1.73666 837.4 3.47C842.426 5.20333 846.716 7.58666 850.27 10.62C853.823 13.6533 856.423 17.12 858.07 21.02L853.78 24.92C850.053 18.2467 845.33 13.61 839.61 11.01C833.89 8.41 827.563 7.11 820.63 7.11C812.136 7.11 804.683 9.06 798.27 12.96C791.943 16.86 787.003 22.32 783.45 29.34C779.896 36.36 778.12 44.5933 778.12 54.04C778.12 63.66 779.896 72.0233 783.45 79.13C787.003 86.2367 791.986 91.74 798.4 95.64C804.813 99.54 812.266 101.49 820.76 101.49C827.52 101.49 833.716 100.147 839.35 97.46C845.07 94.7733 850.183 90.0067 854.69 83.16L858.72 87.32ZM849.1 77.57C845.72 82.77 841.69 86.6267 837.01 89.14C832.33 91.5667 827.606 92.78 822.84 92.78C817.12 92.78 811.833 91.35 806.98 88.49C802.213 85.63 798.4 81.34 795.54 75.62C792.68 69.9 791.25 62.7067 791.25 54.04C791.25 45.72 792.68 38.7 795.54 32.98C798.4 27.26 802.213 22.97 806.98 20.11C811.746 17.1633 816.99 15.69 822.71 15.69C827.303 15.69 831.896 16.9033 836.49 19.33C841.083 21.67 844.853 25.3967 847.8 30.51L843.25 34.67C842.21 32.33 840.606 30.2067 838.44 28.3C836.36 26.3067 833.933 24.7467 831.16 23.62C828.386 22.4933 825.57 21.93 822.71 21.93C818.03 21.93 813.783 23.1867 809.97 25.7C806.156 28.2133 803.123 31.8533 800.87 36.62C798.616 41.3867 797.49 47.1933 797.49 54.04C797.49 61.1467 798.616 67.1267 800.87 71.98C803.123 76.8333 806.156 80.4733 809.97 82.9C813.783 85.3267 818.073 86.54 822.84 86.54C825.7 86.54 828.516 85.9767 831.29 84.85C834.15 83.6367 836.75 82.0333 839.09 80.04C841.43 77.96 843.206 75.5767 844.42 72.89L849.1 77.57ZM896.329 3.6V40.13L927.919 3.6H936.109L890.089 56.77V3.6H896.329ZM912.189 43.77L947.159 3.6H955.349L919.859 44.42L958.469 105H951.059L912.189 43.77ZM872.929 3.6H879.169V105H872.929V3.6ZM903.609 61.84L896.329 69.77V105H890.089V67.43L904.649 51.57L937.799 105H930.389L903.609 61.84ZM1015.86 9.83999H994.8L962.95 105H956.45L990.25 3.6H1020.41L1054.21 105H1047.45L1015.86 9.83999ZM1001.3 20.11H1008.84L1024.44 67.56H985.7L1001.3 20.11ZM1015.86 61.32C1015.43 59.9333 1014.73 57.8533 1013.78 55.08C1012.83 52.3067 1011.79 49.23 1010.66 45.85C1009.53 42.3833 1008.49 38.96 1007.54 35.58C1006.59 32.1133 1005.89 29.0367 1005.46 26.35H1004.68C1004.25 28.95 1003.55 31.9833 1002.6 35.45C1001.73 38.83 1000.74 42.2533 999.61 45.72C998.484 49.1 997.444 52.22 996.49 55.08C995.537 57.8533 994.844 59.9333 994.41 61.32H1015.86ZM1022.36 81.21H988.04L979.98 105H973.48L983.62 74.97H1026.91L1036.66 105H1030.16L1022.36 81.21ZM1056.28 3.6H1134.41V9.83999H1056.28V3.6ZM1101.13 17.12H1134.41V23.36H1107.37V105H1101.13V17.12ZM1083.19 23.36H1056.28V17.12H1089.43V105H1083.19V23.36ZM1165.72 3.6H1171.96V42.73H1206.02V3.6H1212.26V48.97H1165.72V3.6ZM1224.09 3.6H1230.33V105H1224.09V3.6ZM1147.91 3.6H1154.15V105H1147.91V3.6ZM1206.02 62.62H1171.96V105H1165.72V56.38H1212.26V105H1206.02V62.62ZM1294.75 107.6C1285.39 107.6 1277.2 105.433 1270.18 101.1C1263.16 96.7667 1257.7 90.6133 1253.8 82.64C1249.9 74.58 1247.95 65.0467 1247.95 54.04C1247.95 43.2933 1249.9 33.9333 1253.8 25.96C1257.7 17.9867 1263.16 11.8333 1270.18 7.49999C1277.2 3.07999 1285.39 0.869992 1294.75 0.869992C1304.11 0.869992 1312.26 3.07999 1319.19 7.49999C1326.21 11.92 1331.63 18.1167 1335.44 26.09C1339.26 34.0633 1341.16 43.38 1341.16 54.04C1341.16 65.0467 1339.26 74.58 1335.44 82.64C1331.63 90.6133 1326.21 96.7667 1319.19 101.1C1312.26 105.433 1304.11 107.6 1294.75 107.6ZM1294.75 101.49C1302.99 101.49 1310.09 99.54 1316.07 95.64C1322.05 91.74 1326.69 86.2367 1329.98 79.13C1333.28 72.0233 1334.92 63.66 1334.92 54.04C1334.92 44.68 1333.28 36.49 1329.98 29.47C1326.69 22.45 1322.05 16.99 1316.07 13.09C1310.09 9.10333 1302.99 7.11 1294.75 7.11C1286.52 7.11 1279.37 9.06 1273.3 12.96C1267.24 16.86 1262.51 22.32 1259.13 29.34C1255.84 36.36 1254.19 44.5933 1254.19 54.04C1254.19 63.66 1255.84 72.0233 1259.13 79.13C1262.51 86.2367 1267.24 91.74 1273.3 95.64C1279.37 99.54 1286.52 101.49 1294.75 101.49ZM1294.75 93.56C1289.55 93.56 1284.74 92.0433 1280.32 89.01C1275.99 85.9767 1272.52 81.5567 1269.92 75.75C1267.32 69.8567 1266.02 62.62 1266.02 54.04C1266.02 45.3733 1267.41 38.18 1270.18 32.46C1272.96 26.6533 1276.51 22.32 1280.84 19.46C1285.26 16.5133 1289.9 15.04 1294.75 15.04C1299.95 15.04 1304.68 16.5133 1308.92 19.46C1313.26 22.32 1316.68 26.6533 1319.19 32.46C1321.79 38.18 1323.09 45.3733 1323.09 54.04C1323.09 62.62 1321.75 69.8567 1319.06 75.75C1316.38 81.5567 1312.87 85.9767 1308.53 89.01C1304.29 92.0433 1299.69 93.56 1294.75 93.56ZM1294.75 87.32C1298.83 87.32 1302.51 86.02 1305.8 83.42C1309.18 80.82 1311.87 77.05 1313.86 72.11C1315.86 67.0833 1316.85 61.06 1316.85 54.04C1316.85 43.4667 1314.77 35.3633 1310.61 29.73C1306.45 24.0967 1301.17 21.28 1294.75 21.28C1290.77 21.28 1287.04 22.5367 1283.57 25.05C1280.19 27.5633 1277.46 31.2467 1275.38 36.1C1273.3 40.9533 1272.26 46.9333 1272.26 54.04C1272.26 61.06 1273.22 67.0833 1275.12 72.11C1277.12 77.05 1279.8 80.82 1283.18 83.42C1286.65 86.02 1290.51 87.32 1294.75 87.32ZM1388.41 56.51C1387.02 53.5633 1385.68 50.4 1384.38 47.02C1383.17 43.5533 1382.08 40.26 1381.13 37.14C1380.26 33.9333 1379.57 31.29 1379.05 29.21H1378.66C1379.61 34.2367 1380.35 40.0433 1380.87 46.63C1381.39 53.13 1381.65 60.1067 1381.65 67.56V105H1375.41V22.19H1378.92L1415.45 98.76H1434.95V3.6H1441.19V105H1411.55L1388.41 56.51ZM1383.86 9.83999H1365.4V105H1359.16V3.6H1387.76L1411.03 51.57C1412.76 55.1233 1414.37 58.7633 1415.84 62.49C1417.31 66.13 1418.53 69.4233 1419.48 72.37C1420.52 75.23 1421.13 77.2667 1421.3 78.48H1421.95C1420.82 72.0667 1420 65.7833 1419.48 59.63C1418.96 53.4767 1418.7 47.8867 1418.7 42.86V3.6H1424.94V85.5H1420.65L1383.86 9.83999Z" fill="white" fill-opacity="0.75"/>
</svg>
