<svg width="417" height="119" viewBox="0 0 417 119" fill="none" xmlns="http://www.w3.org/2000/svg">
<path d="M53.0395 62.1835C51.8202 51.4093 45.114 46.3271 32.7178 46.3271C21.7442 46.3271 14.8348 50.7994 14.8348 57.5079C14.8348 63.1999 19.1023 66.6558 29.4664 68.6886L42.6754 71.5346C52.4298 73.5675 57.307 75.6004 61.1681 79.0562C65.4357 82.7154 67.8743 87.7975 67.8743 93.8961C67.8743 108.533 55.4781 117.681 35.5629 117.681C14.4284 117.681 1.62573 107.516 0 88.814H12.193C13.4123 101.214 21.9474 107.923 35.9693 107.923C47.7559 107.923 56.0877 102.434 56.0877 94.7093C56.0877 88.814 51.617 85.1548 43.0819 83.122L24.7924 78.853C9.7544 75.3971 3.04825 69.2985 3.04825 58.7276C3.04825 45.1074 14.8348 36.5693 33.7339 36.5693C52.4298 36.5693 62.5906 44.9041 65.0292 62.1835H53.0395Z" fill="#77B55A"/>
<path d="M94.6986 38.3989H83.1152V115.851H94.6986V38.3989Z" fill="#77B55A"/>
<path d="M143.471 115.851H131.684V47.9534H106.282V38.3989H168.873V47.9534H143.471V115.851Z" fill="#77B55A"/>
<path d="M234.105 62.59C231.667 52.4257 223.538 46.1238 212.158 46.1238C196.51 46.1238 186.146 58.1177 186.146 76.4135C186.146 95.1159 196.51 107.72 211.751 107.72C224.554 107.72 233.292 99.5882 235.121 86.1713H246.908C245.892 93.8962 244.063 98.775 239.998 104.264C233.292 113.005 223.741 117.477 211.548 117.477C199.355 117.477 189.804 113.005 182.895 104.264C177.001 96.7422 173.953 87.391 173.953 76.8201C173.953 53.2388 189.804 36.5693 212.158 36.5693C229.634 36.5693 241.827 45.9205 245.485 61.5736L234.105 62.59Z" fill="#77B55A"/>
<path d="M405.214 115.851L371.887 66.859C367.822 60.7604 365.384 56.8979 363.351 53.4421C363.555 56.8979 363.758 64.2162 363.758 68.0787V115.648H352.784V38.1956H364.571L396.679 85.358C399.727 89.8303 403.995 96.7421 406.433 101.418C406.23 97.1487 406.027 92.2698 406.027 86.9843V38.8054H417.001V115.851H405.214Z" fill="#77B55A"/>
<path d="M312.953 3.63688C319.862 -1.64857 327.991 0.38428 327.991 0.38428C327.991 0.38428 326.568 10.1421 319.659 15.4275C312.749 20.713 302.995 19.4932 302.995 19.4932C302.995 19.4932 305.231 16.2407 307.263 11.9716C308.685 9.5322 310.514 5.66974 312.953 3.63688Z" fill="#77B55A"/>
<path d="M296.492 11.565C293.241 9.12553 289.38 9.93871 289.38 9.93871C289.38 9.93871 289.99 14.6143 293.241 17.0537C296.492 19.4932 300.963 18.8833 300.963 18.8833C300.963 18.8833 299.947 17.4603 298.931 15.4274C298.525 14.411 297.712 12.5814 296.492 11.565Z" fill="#77B55A"/>
<path d="M297.305 34.9431C298.321 34.9431 299.134 34.9431 300.15 35.1464C299.337 30.0642 299.541 24.9821 301.979 20.5098C297.508 24.1689 295.273 29.6577 294.054 35.3497C295.273 35.1464 296.289 34.9431 297.305 34.9431Z" fill="#77B55A"/>
<path d="M297.305 36.7727C274.748 36.7727 256.459 55.0685 256.459 77.6333C256.459 100.198 274.748 118.494 297.305 118.494C319.862 118.494 338.152 100.198 338.152 77.6333C338.152 55.0685 319.862 36.7727 297.305 36.7727ZM313.969 94.3028L297.305 82.7155L280.642 94.3028L292.225 77.6333L280.642 60.9638L297.305 72.5511L313.969 60.9638L302.386 77.6333L313.969 94.3028Z" fill="#77B55A"/>
</svg>
